<?xml version="1.0" standalone="no"?>
<!DOCTYPE svg PUBLIC "-//W3C//DTD SVG 20010904//EN"
 "http://www.w3.org/TR/2001/REC-SVG-20010904/DTD/svg10.dtd">
<svg version="1.0" xmlns="http://www.w3.org/2000/svg"
 width="1000.000000pt" height="1000.000000pt" viewBox="0 0 1000.000000 1000.000000"
 preserveAspectRatio="xMidYMid meet">
<metadata>
Created by potrace 1.14, written by Peter Selinger 2001-2017
</metadata>
<g transform="translate(0.000000,1000.000000) scale(0.100000,-0.100000)"
fill="#000000" stroke="none">
<path d="M2578 9995 c-1 -2 -31 -6 -65 -9 -347 -32 -742 -229 -1004 -502 -129
-135 -271 -347 -329 -494 -12 -30 -26 -64 -31 -75 -33 -75 -72 -226 -94 -374
-13 -80 -13 -571 -1 -671 2 -19 7 -77 11 -129 4 -52 8 -102 10 -110 1 -9 6
-45 10 -81 3 -36 9 -78 11 -95 3 -16 7 -41 9 -55 56 -415 214 -912 388 -1215
94 -163 148 -244 245 -364 297 -369 676 -627 1157 -789 66 -22 134 -43 150
-48 17 -4 32 -8 35 -9 3 0 14 -4 25 -8 11 -3 31 -8 45 -11 14 -3 90 -18 170
-35 80 -16 170 -32 200 -35 30 -4 64 -8 75 -10 17 -3 94 -11 215 -22 111 -10
384 -14 375 -6 -5 5 -50 38 -100 73 -352 248 -634 536 -803 819 -60 101 -136
285 -159 385 -33 145 -41 368 -18 490 6 36 14 67 17 70 2 2 42 16 89 29 195
57 398 166 578 310 63 49 222 218 279 296 71 95 159 246 192 330 12 30 26 64
31 75 22 49 65 200 75 260 3 22 8 43 10 46 9 15 18 157 19 284 0 174 -12 282
-46 415 -142 549 -540 984 -1073 1175 -50 18 -119 39 -151 46 -33 7 -62 13
-65 14 -3 1 -27 5 -55 10 -27 4 -59 10 -70 12 -24 6 -352 13 -357 8z"/>
<path d="M7150 9985 c0 -8 -4 -23 -9 -33 -5 -9 -23 -51 -41 -92 -18 -41 -38
-88 -45 -105 -7 -16 -34 -79 -60 -140 -87 -205 -1087 -2540 -1100 -2570 -8
-16 -48 -111 -90 -210 -42 -99 -82 -193 -90 -210 -7 -16 -45 -106 -85 -200
-40 -93 -80 -188 -90 -210 -10 -22 -57 -132 -105 -245 -48 -113 -95 -223 -105
-245 -10 -22 -30 -69 -45 -105 -26 -64 -40 -97 -69 -162 -8 -18 -96 -224 -196
-458 -100 -234 -188 -438 -195 -455 -65 -144 -1548 -3620 -1545 -3621 3 0 0
-7 -6 -15 -7 -8 -37 -75 -69 -149 -31 -74 -68 -159 -81 -188 -13 -29 -24 -55
-24 -57 0 -2 -13 -34 -30 -70 -17 -36 -30 -68 -30 -70 0 -2 -11 -28 -24 -57
-22 -48 -79 -183 -119 -280 l-16 -38 1120 0 1120 0 15 38 c9 20 22 52 30 70 8
17 20 47 28 65 27 63 57 132 66 152 5 11 28 65 51 120 23 55 50 118 59 140 10
22 51 117 90 210 40 94 80 188 90 210 10 22 37 85 60 140 23 55 50 118 60 140
10 22 43 101 75 175 31 74 63 150 72 168 8 18 55 128 104 245 50 117 97 226
104 242 8 17 116 269 240 560 124 292 237 554 250 583 14 29 25 58 25 65 0 7
4 17 8 23 5 5 26 50 47 99 20 50 46 108 56 130 9 22 104 243 209 490 105 248
200 468 210 490 9 22 68 159 130 305 62 146 121 283 131 305 10 22 66 153 124
290 58 138 112 264 119 280 8 17 53 122 101 235 48 113 95 223 105 245 10 22
50 117 90 210 40 94 78 184 86 200 7 17 101 237 209 490 107 253 203 476 211
495 9 19 77 177 150 350 74 173 141 329 148 345 8 17 21 47 30 68 9 20 22 52
30 70 8 17 40 93 71 167 31 74 65 153 75 175 9 22 70 164 135 315 64 151 128
299 141 328 13 29 24 55 24 57 0 3 9 27 21 53 35 78 47 105 62 142 90 213 121
286 129 295 4 5 8 13 8 17 0 4 -506 8 -1125 8 -998 0 -1125 -2 -1125 -15z"/>
</g>
</svg>
