<svg height="250" viewBox="0 0 250 250" width="250" xmlns="http://www.w3.org/2000/svg"><g fill="#141414" fill-rule="evenodd" transform="translate(0 31)"><path d="m229.536914 31.3426541c6.518519 3.4861418 11.63429 8.6019133 15.120432 15.1204318s5.342654 12.9842433 5.342654 30.8146181v72.444592c0 17.830375-1.856512 24.2961-5.342654 30.814618-3.486142 6.518519-8.601913 11.63429-15.120432 15.120432-6.518518 3.486142-12.984243 5.342654-30.814618 5.342654h-147.444592c-17.8303748 0-24.2960996-1.856512-30.8146181-5.342654s-11.63428997-8.601913-15.12043182-15.120432c-3.44512842-6.44183-5.29874589-12.832101-5.34188358-30.190011l-.0007705-73.069199c0-17.8303748 1.85651222-24.2960996 5.34265408-30.8146181 3.48614185-6.5185185 8.60191332-11.63429 15.12043182-15.1204318 6.4418301-3.4451284 12.8321013-5.2987459 30.190011-5.3418836l148.0691991-.0007705c17.830375 0 24.2961 1.8565122 30.814618 5.3426541zm-104.536914 31.6573459c-27.6142375 0-50 22.3857625-50 50 0 27.614237 22.3857625 50 50 50 27.614237 0 50-22.385763 50-50 0-27.6142375-22.385763-50-50-50zm62.5-12c-6.903559 0-12.5 5.5964406-12.5 12.5s5.596441 12.5 12.5 12.5 12.5-5.5964406 12.5-12.5-5.596441-12.5-12.5-12.5z"/><path d="m97 0h55c19.329966 0 35 15.6700338 35 35h-125c0-19.3299662 15.6700338-35 35-35z"/></g></svg>