<?xml version="1.0" encoding="UTF-8"?>
<svg width="250px" height="250px" viewBox="0 0 250 250" version="1.1" xmlns="http://www.w3.org/2000/svg" xmlns:xlink="http://www.w3.org/1999/xlink">
    <title>Alternate Icons</title>
    <g id="Alternate-Icons" stroke="none" stroke-width="1" fill="none" fill-rule="evenodd">
        <path d="M20.8289146,173 L74.069498,173 C80.6400101,173 85.7710551,171.203064 89.4626331,167.609192 C93.154211,164.01532 95,158.997453 95,152.555591 L95,98.4442008 C95,92.0024778 93.154211,86.9846802 89.4626331,83.3908081 C85.7710551,79.796936 80.6400101,78 74.069498,78 L20.8289146,78 C14.2585412,78 9.14442049,79.796936 5.48655241,83.3908081 C1.8288508,86.9846802 0,92.0024778 0,98.4442008 L0,152.555591 C0,158.997453 1.8288508,164.01532 5.48655241,167.609192 C9.14442049,171.203064 14.2585412,173 20.8289146,173 Z M21.2540845,159 C18.9704523,159 17.1905646,158.319293 15.9144213,156.957878 C14.6381404,155.596602 14,153.724761 14,151.342355 L14,98.6576454 C14,96.275239 14.6381404,94.4033283 15.9144213,93.0419133 C17.1905646,91.6806378 18.9704523,91 21.2540845,91 L73.6452217,91 C75.9961206,91 77.8096417,91.6806378 79.085785,93.0419133 C80.3619283,94.4033283 81,96.275239 81,98.6576454 L81,151.342355 C81,153.724761 80.3619283,155.596602 79.085785,156.957878 C77.8096417,158.319293 75.9961206,159 73.6452217,159 L21.2540845,159 Z M125.549691,209 C127.53436,209 129.105579,208.42512 130.263347,207.275359 C131.421116,206.125599 132,204.603864 132,202.710155 L132,47.2899692 C132,45.3962329 131.421116,43.8744706 130.263347,42.7246824 C129.105579,41.5748941 127.53436,41 125.549691,41 C123.564887,41 121.977071,41.5748941 120.786242,42.7246824 C119.595414,43.8744706 119,45.3962329 119,47.2899692 L119,202.710155 C119,204.603864 119.595414,206.125599 120.786242,207.275359 C121.977071,208.42512 123.564887,209 125.549691,209 Z M175.828993,173 L229.170591,173 C235.673972,173 240.771386,171.203064 244.462831,167.609192 C248.154277,164.01532 250,158.997453 250,152.555591 L250,98.4442008 C250,92.0024778 248.154277,86.9846802 244.462831,83.3908081 C240.771386,79.796936 235.673972,78 229.170591,78 L175.828993,78 C169.258608,78 164.144478,79.796936 160.486604,83.3908081 C156.828868,86.9846802 155,92.0024778 155,98.4442008 L155,152.555591 C155,158.997453 156.828868,164.01532 160.486604,167.609192 C164.144478,171.203064 169.258608,173 175.828993,173 Z" id="Shape" fill="#141414" fill-rule="nonzero"></path>
    </g>
</svg>