<?xml version="1.0" encoding="UTF-8"?>
<svg width="469px" height="285px" viewBox="0 0 469 285" version="1.1" xmlns="http://www.w3.org/2000/svg" xmlns:xlink="http://www.w3.org/1999/xlink">
    <title>apple</title>
    <g id="Page-1" stroke="none" stroke-width="1" fill="none" fill-rule="evenodd">
        <g id="apple" transform="translate(0.518891, 0.000000)" fill="#141414" fill-rule="nonzero">
            <g transform="translate(128.481109, 0.000000)" id="Shape">
                <path d="M175.592598,239.93256 C162.03228,253.092573 147.070896,251.041012 132.810045,244.836291 C117.648509,238.506475 103.787963,238.10617 87.7757795,244.836291 C67.8356074,253.44284 57.252555,250.940936 45.2434174,239.93256 C-22.5581715,170.129448 -12.5505569,63.7985431 64.5080755,59.7954973 C83.1972958,60.7962587 96.2822519,70.1283593 107.290628,70.9039495 C123.653078,67.5764176 139.314995,58.0441647 156.82832,59.2951165 C177.86933,60.996411 193.606304,69.3027311 204.114299,84.2390959 C160.831366,110.258894 171.089171,167.302297 210.84442,183.314481 C202.888366,204.205376 192.6806,224.846081 175.567579,240.107693 L175.592598,239.93256 Z M105.789486,59.0449262 C103.762944,28.0213209 128.907076,2.50190365 157.829082,0 C161.807109,35.7772222 125.304334,62.5475913 105.789486,59.0449262 Z"></path>
            </g>
            <g id="􁊘" transform="translate(0.000000, 81.792619)">
                <path d="M65.5611875,186.629317 C62.828847,186.421798 59.9128924,186.677128 56.8133237,187.395309 C53.713755,188.113489 50.9966733,189.187199 48.6620786,190.616439 C46.4668475,191.884953 46.2745867,193.372176 48.0852963,195.078109 C50.2001645,197.028182 52.7555031,198.661636 55.751312,199.978469 C58.7471209,201.295303 61.6462908,202.086979 64.4488217,202.3535 C67.3245948,202.686141 70.3448178,202.442763 73.5094907,201.623366 C76.6741635,200.80397 79.4176938,199.48739 81.7400815,197.673629 C83.3615822,196.464116 83.4236346,195.140161 81.9262387,193.701766 C79.8703712,191.744572 77.3297828,190.12536 74.3044736,188.844131 C71.2791643,187.562901 68.3647356,186.82463 65.5611875,186.629317 Z M85.0237729,155.251144 C83.5345151,157.573531 82.3672177,160.282984 81.5218808,163.379501 C80.6765439,166.476017 80.3189796,169.39655 80.4491879,172.141097 C80.5926206,175.015853 81.2853696,177.965886 82.527435,180.991195 C83.7695004,184.016504 85.3299659,186.554041 87.2088315,188.603805 C88.5302426,190.101201 89.8516538,190.0717 91.1730649,188.515304 C92.9990333,186.323124 94.3898719,183.646224 95.3455808,180.484603 C96.3012896,177.322982 96.6133318,174.268681 96.2817075,171.3217 C96.0802915,168.577153 95.3537188,165.706974 94.1019895,162.711166 C92.8502601,159.715357 91.2488502,157.127975 89.2977597,154.94902 C87.7749326,153.191207 86.3502703,153.291915 85.0237729,155.251144 Z M39.4305112,161.525558 C36.828379,160.595789 33.9108986,160.08818 30.6780698,160.00273 C27.445241,159.917281 24.4921567,160.290613 21.8188169,161.122726 C19.6581723,161.851078 19.1607358,163.234033 20.3265073,165.27159 C21.8422137,167.690617 23.8800249,169.924249 26.4399411,171.972488 C28.9998573,174.020726 31.5839332,175.51329 34.1921689,176.450179 C36.8655087,177.529484 39.8511451,178.059727 43.1490781,178.040908 C46.447011,178.022089 49.4326474,177.457259 52.1059873,176.346419 C53.9940081,175.598739 54.4171852,174.345992 53.3755185,172.58818 C51.8720192,170.110152 49.8418373,167.864822 47.2849729,165.852187 C44.7281084,163.839553 42.1099545,162.397343 39.4305112,161.525558 Z M66.1852719,136.122726 C64.1039731,137.971074 62.270121,140.290664 60.6837155,143.081496 C59.0973101,145.872329 58.0340268,148.607467 57.4938657,151.28691 C56.8896176,154.143355 56.7805173,157.171716 57.1665647,160.371993 C57.552612,163.57227 58.3895566,166.405318 59.6773984,168.871139 C60.5420631,170.771367 61.8304135,171.102991 63.5424497,169.866012 C65.8963722,168.212976 67.9186704,165.991042 69.6093442,163.20021 C71.300018,160.409377 72.4088234,157.547083 72.9357602,154.613326 C73.4626971,151.803675 73.5021156,148.79871 73.0540158,145.598434 C72.6059161,142.398157 71.7379453,139.506108 70.4501035,136.922286 C69.4420061,134.708744 68.0203956,134.442224 66.1852719,136.122726 Z M0.0735165605,125.641463 C0.458038045,128.393132 1.39213025,131.23737 2.87579317,134.174178 C4.35945609,137.110987 6.1058245,139.577824 8.1148984,141.574691 C10.118886,143.649886 12.6248878,145.331659 15.6329038,146.62001 C18.6409197,147.90836 21.6148577,148.56932 24.5547177,148.602889 C26.5983782,148.71377 27.4900001,147.72144 27.2295835,145.625899 C26.7931821,142.74504 25.8150937,139.885034 24.2953183,137.045882 C22.7755429,134.20673 20.981618,131.856368 18.9135434,129.994796 C16.9166766,128.05693 14.462809,126.396519 11.5519406,125.013564 C8.64107231,123.630609 5.81031262,122.786035 3.05966158,122.479842 C0.703704549,122.28453 -0.291677124,123.338404 0.0735165605,125.641463 Z M53.7417295,117.618392 C51.0683896,118.458643 48.4408261,119.823796 45.859039,121.713851 C43.2772519,123.603906 41.1827288,125.684188 39.5754697,127.954696 C37.9102272,130.172307 36.618825,132.833948 35.7012631,135.93962 C34.7837013,139.045292 34.4027402,142.058903 34.5583798,144.980453 C34.6885882,146.951888 35.7460223,147.745345 37.7306821,147.360824 C40.6115415,146.723006 43.406443,145.476872 46.1153867,143.62242 C48.8243304,141.767969 50.9463193,139.634282 52.4813535,137.221358 C54.0947161,134.833867 55.3439023,132.070754 56.2289121,128.932021 C57.1139218,125.793288 57.4725034,122.819096 57.3046567,120.009444 C57.2853289,117.54159 56.0976865,116.744572 53.7417295,117.618392 Z M37.9626157,95.9478599 C35.6870216,97.756535 33.7049049,100.062647 32.0162656,102.866195 C30.3276263,105.669743 29.2289934,108.443791 28.7203671,111.188338 C28.3429664,113.15367 29.1369321,114.208053 31.1022641,114.351485 C34.0360206,114.448124 37.0575152,113.939752 40.1667478,112.826369 C43.2759803,111.712986 45.9002378,110.18075 48.03952,108.229659 C50.1798195,106.363001 52.0925087,104.024846 53.7775876,101.215194 C55.4626665,98.4055422 56.595123,95.6284426 57.174957,92.883895 C57.553375,90.5859214 56.5966489,89.4694867 54.3047788,89.5345908 C51.4361264,89.6983685 48.4977923,90.3593284 45.4897763,91.5174705 C42.4817604,92.6756126 39.9727068,94.152409 37.9626157,95.9478599 Z M0.236785603,83.698104 C-0.0551658939,86.4955487 0.140655232,89.4811851 0.824248982,92.6550132 C1.50784273,95.8288413 2.61410494,98.6517173 4.1430356,101.123641 C5.55396497,103.725773 7.54879732,106.023747 10.1275327,108.017562 C12.706268,110.011377 15.3745216,111.392806 18.1322934,112.161849 C20.103729,112.734562 21.2262672,112.005701 21.4999082,109.975265 C21.8508603,107.236821 21.6502072,104.28221 20.8979489,101.111434 C20.1456906,97.9406577 19.0345965,95.1223594 17.5646665,92.6565391 C16.0428566,90.2690472 14.0429379,88.0473675 11.5649106,85.9915 C9.08688326,83.9356325 6.56969169,82.4097536 4.0133359,81.4138633 C1.7682594,80.4566286 0.509409301,81.2180422 0.236785603,83.698104 Z M43.0193784,64.8214561 C40.3460385,65.6932416 37.7309364,67.1339256 35.174072,69.1435081 C32.6172076,71.1530906 30.5839739,73.3938438 29.0743711,75.8657676 C28.0327044,77.5249066 28.4589332,78.813257 30.3530576,79.7308189 C33.0131731,80.8355552 35.9792274,81.397333 39.2512204,81.4161521 C42.5232134,81.4349713 45.4989316,80.8782798 48.178375,79.7460777 C50.9697161,78.7379803 53.6438189,77.1803123 56.2006833,75.0730735 C58.7575477,72.9658347 60.7317807,70.7322023 62.1233823,68.3721763 C63.2952573,66.3997235 62.7683204,65.0752606 60.5425717,64.3987876 C57.8753354,63.5798993 54.940053,63.1969037 51.7367246,63.2498008 C48.5333961,63.3026979 45.6276141,63.826583 43.0193784,64.8214561 Z M11.9021298,40.3173667 C10.614288,42.9001711 9.74784314,45.8079877 9.30279512,49.0408164 C8.85774711,52.2736452 8.90174329,55.2592816 9.43478365,57.9977256 C9.96273775,60.9314821 11.0850217,63.7808067 12.8016355,66.5456992 C14.5182492,69.3105918 16.5565691,71.5190472 18.9165952,73.1710655 C20.51063,74.3958376 21.7959287,74.0937136 22.7724912,72.2646934 C24.0664365,69.7398724 24.9049069,66.8757977 25.2879025,63.6724693 C25.6708982,60.4691408 25.5602719,57.4687543 24.9560239,54.6713096 C24.3568621,51.9267621 23.2493283,49.159072 21.6334226,46.3682395 C20.0175168,43.577407 18.1953631,41.2608685 16.1669614,39.4186241 C14.3898211,37.9273317 12.9682106,38.2269126 11.9021298,40.3173667 Z M59.9291684,38.0300742 C57.1256202,38.504114 54.326904,39.5801129 51.5330197,41.2580711 C48.7391355,42.9360292 46.47702,44.8543133 44.7466733,47.0129234 C43.456797,48.5357505 43.6612648,49.8536013 45.3600766,50.9664756 C47.8187762,52.5269411 50.6795448,53.5330039 53.9423825,53.9846641 C57.2052203,54.4363242 60.241465,54.2618654 63.0511167,53.4612876 C65.8546648,52.8560223 68.6533811,51.7146649 71.4472653,50.0372154 C74.2411496,48.3597658 76.5327654,46.4447878 78.3221128,44.2922813 C79.8724057,42.4439333 79.5733335,41.0543662 77.424896,40.1235801 C74.900075,38.9608604 72.0375262,38.1877484 68.8372495,37.8042442 C65.6369728,37.4207399 62.6676124,37.4960166 59.9291684,38.0300742 Z M32.4725034,9.39543069 C30.8469337,11.7829226 29.5921526,14.5590049 28.7081601,17.7236778 C27.8241676,20.8883506 27.4767758,23.8460126 27.6659848,26.5966636 C27.731089,29.4653159 28.4218035,32.3975466 29.7381284,35.3933555 C31.0544532,38.3891644 32.7598772,40.9414512 34.8544003,43.0502158 C36.4291074,44.4235069 37.782562,44.2607464 38.9147641,42.5619346 C40.533213,40.2385296 41.7681577,37.4977968 42.6195981,34.3397361 C43.4710385,31.1816754 43.7665504,28.1978192 43.5061337,25.3881675 C43.3637184,22.7016034 42.684448,19.875167 41.4683225,16.9088584 C40.252197,13.9425498 38.7342018,11.3694094 36.9143369,9.18943704 C35.3325091,7.37364114 33.8518979,7.44230569 32.4725034,9.39543069 Z M80.5712583,0.0570517848 C77.8328142,0.494470405 75.0246884,1.44026101 72.1468808,2.89442361 C69.2690732,4.34858621 66.8576759,6.048161 64.9126889,7.99314798 C62.9097185,9.99611835 61.198954,12.4660077 59.7803952,15.4028159 C58.3618365,18.3396242 57.4989519,21.1772504 57.1917417,23.9156944 C57.0025327,25.9532513 57.8972063,26.9130292 59.8757627,26.7950279 C62.7505185,26.6841473 65.6743568,25.9339235 68.6472775,24.5443565 C71.6201983,23.1547894 74.1081438,21.3639162 76.1111142,19.1717368 C78.0489804,17.2206463 79.7126971,14.7751711 81.1022641,11.8353111 C82.4918312,8.89545104 83.3722633,5.99119485 83.7435605,3.12254251 C83.9856666,0.759464708 82.9282325,-0.262365533 80.5712583,0.0570517848 Z" id="Shape"></path>
            </g>
            <g id="􁊘" transform="translate(419.601714, 183.041404) scale(-1, 1) translate(-419.601714, -183.041404) translate(371.396789, 81.792619)">
                <path d="M65.5611875,186.629317 C62.828847,186.421798 59.9128924,186.677128 56.8133237,187.395309 C53.713755,188.113489 50.9966733,189.187199 48.6620786,190.616439 C46.4668475,191.884953 46.2745867,193.372176 48.0852963,195.078109 C50.2001645,197.028182 52.7555031,198.661636 55.751312,199.978469 C58.7471209,201.295303 61.6462908,202.086979 64.4488217,202.3535 C67.3245948,202.686141 70.3448178,202.442763 73.5094907,201.623366 C76.6741635,200.80397 79.4176938,199.48739 81.7400815,197.673629 C83.3615822,196.464116 83.4236346,195.140161 81.9262387,193.701766 C79.8703712,191.744572 77.3297828,190.12536 74.3044736,188.844131 C71.2791643,187.562901 68.3647356,186.82463 65.5611875,186.629317 Z M85.0237729,155.251144 C83.5345151,157.573531 82.3672177,160.282984 81.5218808,163.379501 C80.6765439,166.476017 80.3189796,169.39655 80.4491879,172.141097 C80.5926206,175.015853 81.2853696,177.965886 82.527435,180.991195 C83.7695004,184.016504 85.3299659,186.554041 87.2088315,188.603805 C88.5302426,190.101201 89.8516538,190.0717 91.1730649,188.515304 C92.9990333,186.323124 94.3898719,183.646224 95.3455808,180.484603 C96.3012896,177.322982 96.6133318,174.268681 96.2817075,171.3217 C96.0802915,168.577153 95.3537188,165.706974 94.1019895,162.711166 C92.8502601,159.715357 91.2488502,157.127975 89.2977597,154.94902 C87.7749326,153.191207 86.3502703,153.291915 85.0237729,155.251144 Z M39.4305112,161.525558 C36.828379,160.595789 33.9108986,160.08818 30.6780698,160.00273 C27.445241,159.917281 24.4921567,160.290613 21.8188169,161.122726 C19.6581723,161.851078 19.1607358,163.234033 20.3265073,165.27159 C21.8422137,167.690617 23.8800249,169.924249 26.4399411,171.972488 C28.9998573,174.020726 31.5839332,175.51329 34.1921689,176.450179 C36.8655087,177.529484 39.8511451,178.059727 43.1490781,178.040908 C46.447011,178.022089 49.4326474,177.457259 52.1059873,176.346419 C53.9940081,175.598739 54.4171852,174.345992 53.3755185,172.58818 C51.8720192,170.110152 49.8418373,167.864822 47.2849729,165.852187 C44.7281084,163.839553 42.1099545,162.397343 39.4305112,161.525558 Z M66.1852719,136.122726 C64.1039731,137.971074 62.270121,140.290664 60.6837155,143.081496 C59.0973101,145.872329 58.0340268,148.607467 57.4938657,151.28691 C56.8896176,154.143355 56.7805173,157.171716 57.1665647,160.371993 C57.552612,163.57227 58.3895566,166.405318 59.6773984,168.871139 C60.5420631,170.771367 61.8304135,171.102991 63.5424497,169.866012 C65.8963722,168.212976 67.9186704,165.991042 69.6093442,163.20021 C71.300018,160.409377 72.4088234,157.547083 72.9357602,154.613326 C73.4626971,151.803675 73.5021156,148.79871 73.0540158,145.598434 C72.6059161,142.398157 71.7379453,139.506108 70.4501035,136.922286 C69.4420061,134.708744 68.0203956,134.442224 66.1852719,136.122726 Z M0.0735165605,125.641463 C0.458038045,128.393132 1.39213025,131.23737 2.87579317,134.174178 C4.35945609,137.110987 6.1058245,139.577824 8.1148984,141.574691 C10.118886,143.649886 12.6248878,145.331659 15.6329038,146.62001 C18.6409197,147.90836 21.6148577,148.56932 24.5547177,148.602889 C26.5983782,148.71377 27.4900001,147.72144 27.2295835,145.625899 C26.7931821,142.74504 25.8150937,139.885034 24.2953183,137.045882 C22.7755429,134.20673 20.981618,131.856368 18.9135434,129.994796 C16.9166766,128.05693 14.462809,126.396519 11.5519406,125.013564 C8.64107231,123.630609 5.81031262,122.786035 3.05966158,122.479842 C0.703704549,122.28453 -0.291677124,123.338404 0.0735165605,125.641463 Z M53.7417295,117.618392 C51.0683896,118.458643 48.4408261,119.823796 45.859039,121.713851 C43.2772519,123.603906 41.1827288,125.684188 39.5754697,127.954696 C37.9102272,130.172307 36.618825,132.833948 35.7012631,135.93962 C34.7837013,139.045292 34.4027402,142.058903 34.5583798,144.980453 C34.6885882,146.951888 35.7460223,147.745345 37.7306821,147.360824 C40.6115415,146.723006 43.406443,145.476872 46.1153867,143.62242 C48.8243304,141.767969 50.9463193,139.634282 52.4813535,137.221358 C54.0947161,134.833867 55.3439023,132.070754 56.2289121,128.932021 C57.1139218,125.793288 57.4725034,122.819096 57.3046567,120.009444 C57.2853289,117.54159 56.0976865,116.744572 53.7417295,117.618392 Z M37.9626157,95.9478599 C35.6870216,97.756535 33.7049049,100.062647 32.0162656,102.866195 C30.3276263,105.669743 29.2289934,108.443791 28.7203671,111.188338 C28.3429664,113.15367 29.1369321,114.208053 31.1022641,114.351485 C34.0360206,114.448124 37.0575152,113.939752 40.1667478,112.826369 C43.2759803,111.712986 45.9002378,110.18075 48.03952,108.229659 C50.1798195,106.363001 52.0925087,104.024846 53.7775876,101.215194 C55.4626665,98.4055422 56.595123,95.6284426 57.174957,92.883895 C57.553375,90.5859214 56.5966489,89.4694867 54.3047788,89.5345908 C51.4361264,89.6983685 48.4977923,90.3593284 45.4897763,91.5174705 C42.4817604,92.6756126 39.9727068,94.152409 37.9626157,95.9478599 Z M0.236785603,83.698104 C-0.0551658939,86.4955487 0.140655232,89.4811851 0.824248982,92.6550132 C1.50784273,95.8288413 2.61410494,98.6517173 4.1430356,101.123641 C5.55396497,103.725773 7.54879732,106.023747 10.1275327,108.017562 C12.706268,110.011377 15.3745216,111.392806 18.1322934,112.161849 C20.103729,112.734562 21.2262672,112.005701 21.4999082,109.975265 C21.8508603,107.236821 21.6502072,104.28221 20.8979489,101.111434 C20.1456906,97.9406577 19.0345965,95.1223594 17.5646665,92.6565391 C16.0428566,90.2690472 14.0429379,88.0473675 11.5649106,85.9915 C9.08688326,83.9356325 6.56969169,82.4097536 4.0133359,81.4138633 C1.7682594,80.4566286 0.509409301,81.2180422 0.236785603,83.698104 Z M43.0193784,64.8214561 C40.3460385,65.6932416 37.7309364,67.1339256 35.174072,69.1435081 C32.6172076,71.1530906 30.5839739,73.3938438 29.0743711,75.8657676 C28.0327044,77.5249066 28.4589332,78.813257 30.3530576,79.7308189 C33.0131731,80.8355552 35.9792274,81.397333 39.2512204,81.4161521 C42.5232134,81.4349713 45.4989316,80.8782798 48.178375,79.7460777 C50.9697161,78.7379803 53.6438189,77.1803123 56.2006833,75.0730735 C58.7575477,72.9658347 60.7317807,70.7322023 62.1233823,68.3721763 C63.2952573,66.3997235 62.7683204,65.0752606 60.5425717,64.3987876 C57.8753354,63.5798993 54.940053,63.1969037 51.7367246,63.2498008 C48.5333961,63.3026979 45.6276141,63.826583 43.0193784,64.8214561 Z M11.9021298,40.3173667 C10.614288,42.9001711 9.74784314,45.8079877 9.30279512,49.0408164 C8.85774711,52.2736452 8.90174329,55.2592816 9.43478365,57.9977256 C9.96273775,60.9314821 11.0850217,63.7808067 12.8016355,66.5456992 C14.5182492,69.3105918 16.5565691,71.5190472 18.9165952,73.1710655 C20.51063,74.3958376 21.7959287,74.0937136 22.7724912,72.2646934 C24.0664365,69.7398724 24.9049069,66.8757977 25.2879025,63.6724693 C25.6708982,60.4691408 25.5602719,57.4687543 24.9560239,54.6713096 C24.3568621,51.9267621 23.2493283,49.159072 21.6334226,46.3682395 C20.0175168,43.577407 18.1953631,41.2608685 16.1669614,39.4186241 C14.3898211,37.9273317 12.9682106,38.2269126 11.9021298,40.3173667 Z M59.9291684,38.0300742 C57.1256202,38.504114 54.326904,39.5801129 51.5330197,41.2580711 C48.7391355,42.9360292 46.47702,44.8543133 44.7466733,47.0129234 C43.456797,48.5357505 43.6612648,49.8536013 45.3600766,50.9664756 C47.8187762,52.5269411 50.6795448,53.5330039 53.9423825,53.9846641 C57.2052203,54.4363242 60.241465,54.2618654 63.0511167,53.4612876 C65.8546648,52.8560223 68.6533811,51.7146649 71.4472653,50.0372154 C74.2411496,48.3597658 76.5327654,46.4447878 78.3221128,44.2922813 C79.8724057,42.4439333 79.5733335,41.0543662 77.424896,40.1235801 C74.900075,38.9608604 72.0375262,38.1877484 68.8372495,37.8042442 C65.6369728,37.4207399 62.6676124,37.4960166 59.9291684,38.0300742 Z M32.4725034,9.39543069 C30.8469337,11.7829226 29.5921526,14.5590049 28.7081601,17.7236778 C27.8241676,20.8883506 27.4767758,23.8460126 27.6659848,26.5966636 C27.731089,29.4653159 28.4218035,32.3975466 29.7381284,35.3933555 C31.0544532,38.3891644 32.7598772,40.9414512 34.8544003,43.0502158 C36.4291074,44.4235069 37.782562,44.2607464 38.9147641,42.5619346 C40.533213,40.2385296 41.7681577,37.4977968 42.6195981,34.3397361 C43.4710385,31.1816754 43.7665504,28.1978192 43.5061337,25.3881675 C43.3637184,22.7016034 42.684448,19.875167 41.4683225,16.9088584 C40.252197,13.9425498 38.7342018,11.3694094 36.9143369,9.18943704 C35.3325091,7.37364114 33.8518979,7.44230569 32.4725034,9.39543069 Z M80.5712583,0.0570517848 C77.8328142,0.494470405 75.0246884,1.44026101 72.1468808,2.89442361 C69.2690732,4.34858621 66.8576759,6.048161 64.9126889,7.99314798 C62.9097185,9.99611835 61.198954,12.4660077 59.7803952,15.4028159 C58.3618365,18.3396242 57.4989519,21.1772504 57.1917417,23.9156944 C57.0025327,25.9532513 57.8972063,26.9130292 59.8757627,26.7950279 C62.7505185,26.6841473 65.6743568,25.9339235 68.6472775,24.5443565 C71.6201983,23.1547894 74.1081438,21.3639162 76.1111142,19.1717368 C78.0489804,17.2206463 79.7126971,14.7751711 81.1022641,11.8353111 C82.4918312,8.89545104 83.3722633,5.99119485 83.7435605,3.12254251 C83.9856666,0.759464708 82.9282325,-0.262365533 80.5712583,0.0570517848 Z" id="Shape"></path>
            </g>
        </g>
    </g>
</svg>