<?xml version="1.0" encoding="UTF-8"?>
<svg width="250px" height="250px" viewBox="0 0 250 250" version="1.1" xmlns="http://www.w3.org/2000/svg" xmlns:xlink="http://www.w3.org/1999/xlink">
    <title>Apple</title>
    <g id="Apple" stroke="none" stroke-width="1" fill="none" fill-rule="evenodd" fill-opacity="0.75">
        <g transform="translate(20.000000, 0.000000)" fill="#141414" fill-rule="nonzero" id="Shape">
            <path d="M175.592598,239.93256 C162.03228,253.092573 147.070896,251.041012 132.810045,244.836291 C117.648509,238.506475 103.787963,238.10617 87.7757795,244.836291 C67.8356074,253.44284 57.252555,250.940936 45.2434174,239.93256 C-22.5581715,170.129448 -12.5505569,63.7985431 64.5080755,59.7954973 C83.1972958,60.7962587 96.2822519,70.1283593 107.290628,70.9039495 C123.653078,67.5764176 139.314995,58.0441647 156.82832,59.2951165 C177.86933,60.996411 193.606304,69.3027311 204.114299,84.2390959 C160.831366,110.258894 171.089171,167.302297 210.84442,183.314481 C202.888366,204.205376 192.6806,224.846081 175.567579,240.107693 L175.592598,239.93256 Z M105.789486,59.0449262 C103.762944,28.0213209 128.907076,2.50190365 157.829082,0 C161.807109,35.7772222 125.304334,62.5475913 105.789486,59.0449262 Z"></path>
        </g>
    </g>
</svg>