<?xml version="1.0" encoding="UTF-8"?>
<svg width="110px" height="250px" viewBox="0 0 110 250" version="1.1" xmlns="http://www.w3.org/2000/svg" xmlns:xlink="http://www.w3.org/1999/xlink">
    <title>Top-Right Arrow</title>
    <g id="Top-Right-Arrow" stroke="none" stroke-width="1" fill="none" fill-rule="evenodd">
        <path d="M110,172.305074 L109.905634,98.6569036 C109.905634,96.2650042 109.165981,94.2979462 107.686675,92.7557293 C106.207369,91.2135124 104.208791,90.442404 101.690941,90.442404 L28.0429633,90.442404 C25.6509351,90.442404 23.7310601,91.2135124 22.2833384,92.7557293 C20.8354877,94.2979462 20.1115624,96.1076628 20.1115624,98.1848792 C20.1115624,100.199185 20.8826708,101.961718 22.4248876,103.47248 C23.9671045,104.983112 25.7453657,105.738429 27.7596714,105.738429 L49.5708307,105.738429 L86.9613067,104.416529 L72.7038902,116.596922 L2.36046971,187.129075 C0.786823236,188.639836 0,190.40237 0,192.416676 C0,194.493866 0.802550934,196.350779 2.4076528,197.987413 C4.01290937,199.624035 5.85414587,200.442346 7.93136231,200.442346 C10.0085787,200.442346 11.8025677,199.686978 13.3133292,198.176242 L83.7511159,127.644148 L96.1202417,113.386538 L94.5150495,150.493915 L94.5150495,172.682733 C94.5150495,174.697038 95.286158,176.491027 96.8283748,178.064699 C98.3705917,179.638372 100.180308,180.425208 102.257525,180.425208 C104.27183,180.425208 106.065819,179.654099 107.639492,178.111883 C109.213164,176.569666 110,174.634063 110,172.305074 Z" id="Path" fill="#009CDF" fill-rule="nonzero"></path>
    </g>
</svg>