<?xml version="1.0" encoding="UTF-8"?>
<svg width="250px" height="250px" viewBox="0 0 250 250" version="1.1" xmlns="http://www.w3.org/2000/svg" xmlns:xlink="http://www.w3.org/1999/xlink">
    <title>Apple Award</title>
    <g id="Apple-Award" stroke="none" stroke-width="1" fill="none" fill-rule="evenodd">
        <g id="apple" transform="translate(0, 49)" fill="#141414" fill-rule="nonzero">
            <g id="Shape" transform="translate(68, 0)">
                <path d="M94.1071316,128.603852 C86.8396121,135.657619 78.821205,134.557982 71.1782417,131.232252 C63.0525651,127.839471 55.6241413,127.624907 47.0425686,131.232252 C36.3558288,135.845362 30.6839456,134.504342 24.247766,128.603852 C-12.0898309,91.1893842 -6.72634794,34.1960191 34.5724707,32.0503866 C44.5887751,32.5867947 51.6015291,37.5888006 57.5013603,38.0045169 C66.270655,36.2209598 74.6645059,31.1116723 84.0506007,31.7821825 C95.3273238,32.6940763 103.761401,37.1462639 109.393058,45.1521554 C86.195994,59.0987672 91.693564,89.6740312 113,98.2565618 C108.736031,109.454082 103.265279,120.517499 94.0937229,128.697723 L94.1071316,128.603852 Z M56.696838,31.6480805 C55.6107327,15.019428 69.0864837,1.34102036 84.5869493,0 C86.7189339,19.1765911 67.1556295,33.5255089 56.696838,31.6480805 Z"></path>
            </g>
            <g id="􁊘" transform="translate(0, 44)">
                <path d="M35.3613428,99.5368298 C33.8876167,99.4261516 32.3148559,99.5623293 30.6430602,99.9453637 C28.9712645,100.328398 27.5057685,100.90105 26.2465722,101.66332 C25.0625436,102.339869 24.9588451,103.133064 25.9354766,104.042906 C27.0761603,105.082958 28.4544179,105.954144 30.0702493,106.656463 C31.6860807,107.358783 33.2497885,107.781015 34.7613727,107.923161 C36.3124611,108.100572 37.9414606,107.970769 39.6483712,107.533752 C41.3552817,107.096735 42.8350431,106.394551 44.0876554,105.4272 C44.9622344,104.782119 44.9957033,104.076001 44.1880618,103.308848 C43.079201,102.264999 41.7088991,101.401408 40.0771563,100.718078 C38.4454135,100.034747 36.8734756,99.640998 35.3613428,99.5368298 Z M45.8587602,82.8016034 C45.0555082,84.0402247 44.42591,85.4852836 43.9699658,87.1367792 C43.5140215,88.7882742 43.3211642,90.3459105 43.3913939,91.8096864 C43.4687563,93.342908 43.8424001,94.9162778 44.5123255,96.5297953 C45.1822508,98.1433128 46.0239097,99.4966821 47.0373021,100.589903 C47.7500236,101.388523 48.4627452,101.372789 49.1754668,100.542702 C50.1603284,99.3735249 50.9104966,97.9458278 51.4259716,96.2596097 C51.9414465,94.5733916 52.1097508,92.9444115 51.9308846,91.3726694 C51.822248,89.9088935 51.4303609,88.378113 50.7552232,86.7803295 C50.0800855,85.1825456 49.2163427,83.802592 48.1639947,82.6404687 C47.3426366,81.7029572 46.5742251,81.7566688 45.8587602,82.8016034 Z M21.2673973,86.1479977 C19.8639009,85.6521149 18.2903171,85.3813869 16.5466457,85.335813 C14.8029743,85.2902397 13.210187,85.4893525 11.7682838,85.9331514 C10.60291,86.3216104 10.3346106,87.0591953 10.9633858,88.1459054 C11.7809032,89.4360686 12.8800252,90.6273533 14.2607518,91.7197605 C15.6414783,92.8121672 17.0352358,93.6082109 18.4420242,94.107891 C19.8839274,94.6835273 21.4942721,94.9663269 23.2730583,94.95629 C25.0518445,94.9462531 26.6621892,94.6450068 28.1040925,94.0525517 C29.1224229,93.6537843 29.3506694,92.9856445 28.7888319,92.0481335 C27.9778985,90.7265028 26.8828915,89.5289791 25.503811,88.4555608 C24.1247304,87.3821432 22.7125925,86.6129553 21.2673973,86.1479977 Z M35.6979514,72.5996581 C34.5753738,73.5854555 33.58626,74.822585 32.7306101,76.3110466 C31.8749601,77.7995087 31.3014634,79.2582665 31.01012,80.6873199 C30.6842103,82.2107755 30.6253656,83.8259208 30.8335856,85.5327556 C31.0418056,87.2395905 31.4932234,88.7505676 32.1878389,90.0656879 C32.6542079,91.079155 33.3490977,91.2560232 34.2725083,90.5962932 C35.5421293,89.7146634 36.6328841,88.5296177 37.5447727,87.0411561 C38.4566612,85.552694 39.0547109,84.0261189 39.3389216,82.4614297 C39.6231324,80.9629312 39.6443933,79.360264 39.4027044,77.6534297 C39.1610156,75.9465948 38.6928634,74.4041502 37.9982479,73.0260952 C37.4545165,71.8455253 36.687751,71.7033796 35.6979514,72.5996581 Z M0.0396521843,67.0095841 C0.247049221,68.4771585 0.750864907,69.9941036 1.55109924,71.56042 C2.35133357,73.126737 3.29326178,74.4423991 4.37688387,75.5074077 C5.45776259,76.6141916 6.80940968,77.511148 8.43182515,78.1982767 C10.0542406,78.885405 11.6582756,79.2379212 13.2439302,79.2558249 C14.346207,79.3149621 14.8271158,78.7857131 14.6866564,77.6680778 C14.4512772,76.1316013 13.9237316,74.6062464 13.1040195,73.0920139 C12.2843074,71.5777813 11.3167289,70.3242399 10.201284,69.3313896 C9.12424595,68.2978486 7.80071817,67.4122855 6.23070061,66.6747006 C4.66068312,65.9371158 3.13387332,65.4866709 1.65027124,65.323366 C0.379552883,65.2191984 -0.157320133,65.7812712 0.0396521843,67.0095841 Z M28.9863529,62.7305616 C27.5444497,63.1787008 26.1272366,63.9067912 24.7347136,64.9148326 C23.3421907,65.922874 22.2124803,67.0323711 21.3455827,68.2433232 C20.4474109,69.4260632 19.750875,70.8456221 19.2559752,72.5020004 C18.7610754,74.1583787 18.5555987,75.7656572 18.6395451,77.3238358 C18.7097749,78.3752805 19.2801167,78.7984626 20.3505707,78.5933823 C21.9044025,78.2532086 23.4118717,77.5885958 24.8729783,76.5995429 C26.334085,75.6104905 27.4786093,74.4725104 28.3065515,73.1856022 C29.1767412,71.9122584 29.8505072,70.4385804 30.3278496,68.7645694 C30.8051919,67.0905584 30.9985979,65.5043037 30.9080675,64.0058046 C30.8976428,62.6896 30.2570712,62.2645187 28.9863529,62.7305616 Z M20.4756673,51.1728058 C19.2482939,52.1374441 18.1792115,53.3673853 17.2684203,54.8626288 C16.3576291,56.3578723 15.7650661,57.8373823 15.4907314,59.3011583 C15.287175,60.3493479 15.7154115,60.9116923 16.7754408,60.9881903 C18.3578034,61.0397317 19.9874887,60.7685967 21.6644968,60.1747853 C23.3415048,59.5809739 24.7569348,58.7637716 25.9107865,57.7231772 C27.065187,56.7276144 28.0968226,55.4805834 29.0056935,53.9820844 C29.9145643,52.4835854 30.5253706,51.0024479 30.8381121,49.5386716 C31.0422172,48.313071 30.5261936,47.717632 29.2900414,47.7523546 C27.7427936,47.8397038 26.1579621,48.1922199 24.5355466,48.8099031 C22.9131312,49.4275863 21.5598381,50.2152205 20.4756673,51.1728058 Z M0.127713624,44.6395243 C-0.0297544959,46.1315127 0.0758643651,47.7238712 0.444570208,49.4165998 C0.81327605,51.1093285 1.40995403,52.6148804 2.23460415,53.9332555 C2.99560863,55.3210759 4.07154934,56.5466767 5.4624263,57.6100575 C6.85330323,58.6734382 8.2924631,59.4102092 9.77990586,59.8203704 C10.8432272,60.125821 11.4486839,59.7370905 11.596276,58.6541783 C11.7855669,57.1936573 11.6773418,55.6178459 11.2716008,53.926745 C10.8658598,52.2356441 10.2665757,50.7325336 9.47374836,49.4174137 C8.65293892,48.1440694 7.57425482,46.9591593 6.23769616,45.8626835 C4.90113748,44.7662077 3.54345503,43.9523958 2.16464881,43.421248 C0.953735421,42.9107167 0.274757026,43.3168088 0.127713624,44.6395243 Z M23.203103,34.571858 C21.7611997,35.0368158 20.3507079,35.8051898 18.9716273,36.87698 C17.5925468,37.9487702 16.4958938,39.1438529 15.6816684,40.4622281 C15.1198309,41.3471129 15.3497234,42.0342413 16.3713458,42.5236135 C17.8061163,43.1128133 19.4058991,43.4124317 21.1706943,43.4224687 C22.9354895,43.4325057 24.5404847,43.1356 25.9856799,42.5317517 C27.4912287,41.9940933 28.9335435,41.163327 30.312624,40.0394528 C31.6917045,38.9155787 32.7565347,37.7242938 33.5071145,36.4655981 C34.1391816,35.4136107 33.8549709,34.707222 32.6544822,34.3464321 C31.215871,33.9096864 29.6326854,33.7054196 27.9049255,33.7336318 C26.1771655,33.7618439 24.6098914,34.0412526 23.203103,34.571858 Z M6.41958005,21.5028535 C5.72496458,22.8803657 5.25763543,24.4312198 5.01759256,26.1554158 C4.7775497,27.8796119 4.80127965,29.4719704 5.08878242,30.9324914 C5.37354184,32.4971803 5.97886138,34.0168383 6.90474102,35.4914653 C7.83062061,36.9660924 8.93001694,38.1439494 10.20293,39.0250364 C11.0626949,39.678256 11.7559388,39.5171213 12.2826614,38.5416322 C12.9805689,37.1950448 13.4328096,35.66752 13.6393836,33.9590577 C13.8459577,32.2505953 13.7862899,30.65037 13.4603803,29.1583816 C13.137214,27.6946053 12.5398502,26.2184862 11.6682888,24.7300244 C10.7967275,23.2415625 9.81392339,22.0060605 8.71987658,21.0235184 C7.76135112,20.2281529 6.99458563,20.3879313 6.41958005,21.5028535 Z M32.3236345,20.2829496 C30.8115016,20.5357738 29.3019749,21.1096468 27.7950544,22.0045686 C26.2881339,22.8994903 25.0680303,23.9225874 24.1347436,25.0738599 C23.4390308,25.8860441 23.5493134,26.5889063 24.4655913,27.1824464 C25.7917253,28.0147047 27.3347208,28.5512779 29.0945779,28.7921662 C30.8544351,29.0330545 32.4920761,28.9400087 34.007501,28.5130288 C35.5196338,28.1902167 37.0291606,27.5814855 38.5360811,26.686835 C40.0430016,25.7921845 41.2790166,24.7708506 42.2441262,23.6228334 C43.0802983,22.637036 42.9189895,21.8959246 41.7601997,21.3994994 C40.3984023,20.7793748 38.8544466,20.3670435 37.1283326,20.1625054 C35.4022186,19.9579674 33.8006526,19.9981154 32.3236345,20.2829496 Z M17.5144985,5.01095648 C16.6377248,6.28430077 15.9609411,7.76489576 15.4841474,9.45274155 C15.0073537,11.1405873 14.819983,12.718026 14.9220356,14.1850574 C14.9571504,15.7150237 15.3296969,17.2788988 16.0396752,18.8766827 C16.7496534,20.4744666 17.6694976,21.8357026 18.7992079,22.9603905 C19.6485482,23.6928212 20.3785529,23.6060146 20.9892219,22.6999708 C21.8621549,21.4608066 22.5282396,19.9990649 22.9874759,18.3147456 C23.4467122,16.6304264 23.6061006,15.0390173 23.4656413,13.5405184 C23.3888276,12.1076671 23.0224536,10.6002162 22.3665193,9.018166 C21.710585,7.43611576 20.8918331,6.06375775 19.9102635,4.90109188 C19.0570826,3.93265578 18.2584942,3.96927732 17.5144985,5.01095648 Z M43.4572342,0.0304279836 C41.9802161,0.263720713 40.4656142,0.76814842 38.9134285,1.54371111 C37.3612427,2.3192738 36.0606219,3.22572456 35.011566,4.2630634 C33.9312359,5.33132707 33.0085112,6.6486172 32.2433916,8.21493369 C31.4782722,9.78125024 31.0128633,11.294669 30.8471652,12.75519 C30.7451127,13.8419001 31.2276674,14.3537878 32.2948294,14.290853 C33.8453692,14.231716 35.4223822,13.8315918 37.0258685,13.0904805 C38.6293549,12.3493692 39.9712631,11.3942253 41.0515932,10.225049 C42.0968084,9.18445487 42.9941572,7.88018578 43.7436396,6.31224164 C44.4931221,4.74429747 44.9679954,3.19534225 45.1682598,1.66537598 C45.2988431,0.405052703 44.7285012,-0.139929963 43.4572342,0.0304279836 Z" id="Shape"></path>
            </g>
            <g id="􁊘" transform="translate(225, 98) scale(-1, 1) translate(-225, -98)translate(199, 44)">
                <path d="M35.3613428,99.5368298 C33.8876167,99.4261516 32.3148559,99.5623293 30.6430602,99.9453637 C28.9712645,100.328398 27.5057685,100.90105 26.2465722,101.66332 C25.0625436,102.339869 24.9588451,103.133064 25.9354766,104.042906 C27.0761603,105.082958 28.4544179,105.954144 30.0702493,106.656463 C31.6860807,107.358783 33.2497885,107.781015 34.7613727,107.923161 C36.3124611,108.100572 37.9414606,107.970769 39.6483712,107.533752 C41.3552817,107.096735 42.8350431,106.394551 44.0876554,105.4272 C44.9622344,104.782119 44.9957033,104.076001 44.1880618,103.308848 C43.079201,102.264999 41.7088991,101.401408 40.0771563,100.718078 C38.4454135,100.034747 36.8734756,99.640998 35.3613428,99.5368298 Z M45.8587602,82.8016034 C45.0555082,84.0402247 44.42591,85.4852836 43.9699658,87.1367792 C43.5140215,88.7882742 43.3211642,90.3459105 43.3913939,91.8096864 C43.4687563,93.342908 43.8424001,94.9162778 44.5123255,96.5297953 C45.1822508,98.1433128 46.0239097,99.4966821 47.0373021,100.589903 C47.7500236,101.388523 48.4627452,101.372789 49.1754668,100.542702 C50.1603284,99.3735249 50.9104966,97.9458278 51.4259716,96.2596097 C51.9414465,94.5733916 52.1097508,92.9444115 51.9308846,91.3726694 C51.822248,89.9088935 51.4303609,88.378113 50.7552232,86.7803295 C50.0800855,85.1825456 49.2163427,83.802592 48.1639947,82.6404687 C47.3426366,81.7029572 46.5742251,81.7566688 45.8587602,82.8016034 Z M21.2673973,86.1479977 C19.8639009,85.6521149 18.2903171,85.3813869 16.5466457,85.335813 C14.8029743,85.2902397 13.210187,85.4893525 11.7682838,85.9331514 C10.60291,86.3216104 10.3346106,87.0591953 10.9633858,88.1459054 C11.7809032,89.4360686 12.8800252,90.6273533 14.2607518,91.7197605 C15.6414783,92.8121672 17.0352358,93.6082109 18.4420242,94.107891 C19.8839274,94.6835273 21.4942721,94.9663269 23.2730583,94.95629 C25.0518445,94.9462531 26.6621892,94.6450068 28.1040925,94.0525517 C29.1224229,93.6537843 29.3506694,92.9856445 28.7888319,92.0481335 C27.9778985,90.7265028 26.8828915,89.5289791 25.503811,88.4555608 C24.1247304,87.3821432 22.7125925,86.6129553 21.2673973,86.1479977 Z M35.6979514,72.5996581 C34.5753738,73.5854555 33.58626,74.822585 32.7306101,76.3110466 C31.8749601,77.7995087 31.3014634,79.2582665 31.01012,80.6873199 C30.6842103,82.2107755 30.6253656,83.8259208 30.8335856,85.5327556 C31.0418056,87.2395905 31.4932234,88.7505676 32.1878389,90.0656879 C32.6542079,91.079155 33.3490977,91.2560232 34.2725083,90.5962932 C35.5421293,89.7146634 36.6328841,88.5296177 37.5447727,87.0411561 C38.4566612,85.552694 39.0547109,84.0261189 39.3389216,82.4614297 C39.6231324,80.9629312 39.6443933,79.360264 39.4027044,77.6534297 C39.1610156,75.9465948 38.6928634,74.4041502 37.9982479,73.0260952 C37.4545165,71.8455253 36.687751,71.7033796 35.6979514,72.5996581 Z M0.0396521843,67.0095841 C0.247049221,68.4771585 0.750864907,69.9941036 1.55109924,71.56042 C2.35133357,73.126737 3.29326178,74.4423991 4.37688387,75.5074077 C5.45776259,76.6141916 6.80940968,77.511148 8.43182515,78.1982767 C10.0542406,78.885405 11.6582756,79.2379212 13.2439302,79.2558249 C14.346207,79.3149621 14.8271158,78.7857131 14.6866564,77.6680778 C14.4512772,76.1316013 13.9237316,74.6062464 13.1040195,73.0920139 C12.2843074,71.5777813 11.3167289,70.3242399 10.201284,69.3313896 C9.12424595,68.2978486 7.80071817,67.4122855 6.23070061,66.6747006 C4.66068312,65.9371158 3.13387332,65.4866709 1.65027124,65.323366 C0.379552883,65.2191984 -0.157320133,65.7812712 0.0396521843,67.0095841 Z M28.9863529,62.7305616 C27.5444497,63.1787008 26.1272366,63.9067912 24.7347136,64.9148326 C23.3421907,65.922874 22.2124803,67.0323711 21.3455827,68.2433232 C20.4474109,69.4260632 19.750875,70.8456221 19.2559752,72.5020004 C18.7610754,74.1583787 18.5555987,75.7656572 18.6395451,77.3238358 C18.7097749,78.3752805 19.2801167,78.7984626 20.3505707,78.5933823 C21.9044025,78.2532086 23.4118717,77.5885958 24.8729783,76.5995429 C26.334085,75.6104905 27.4786093,74.4725104 28.3065515,73.1856022 C29.1767412,71.9122584 29.8505072,70.4385804 30.3278496,68.7645694 C30.8051919,67.0905584 30.9985979,65.5043037 30.9080675,64.0058046 C30.8976428,62.6896 30.2570712,62.2645187 28.9863529,62.7305616 Z M20.4756673,51.1728058 C19.2482939,52.1374441 18.1792115,53.3673853 17.2684203,54.8626288 C16.3576291,56.3578723 15.7650661,57.8373823 15.4907314,59.3011583 C15.287175,60.3493479 15.7154115,60.9116923 16.7754408,60.9881903 C18.3578034,61.0397317 19.9874887,60.7685967 21.6644968,60.1747853 C23.3415048,59.5809739 24.7569348,58.7637716 25.9107865,57.7231772 C27.065187,56.7276144 28.0968226,55.4805834 29.0056935,53.9820844 C29.9145643,52.4835854 30.5253706,51.0024479 30.8381121,49.5386716 C31.0422172,48.313071 30.5261936,47.717632 29.2900414,47.7523546 C27.7427936,47.8397038 26.1579621,48.1922199 24.5355466,48.8099031 C22.9131312,49.4275863 21.5598381,50.2152205 20.4756673,51.1728058 Z M0.127713624,44.6395243 C-0.0297544959,46.1315127 0.0758643651,47.7238712 0.444570208,49.4165998 C0.81327605,51.1093285 1.40995403,52.6148804 2.23460415,53.9332555 C2.99560863,55.3210759 4.07154934,56.5466767 5.4624263,57.6100575 C6.85330323,58.6734382 8.2924631,59.4102092 9.77990586,59.8203704 C10.8432272,60.125821 11.4486839,59.7370905 11.596276,58.6541783 C11.7855669,57.1936573 11.6773418,55.6178459 11.2716008,53.926745 C10.8658598,52.2356441 10.2665757,50.7325336 9.47374836,49.4174137 C8.65293892,48.1440694 7.57425482,46.9591593 6.23769616,45.8626835 C4.90113748,44.7662077 3.54345503,43.9523958 2.16464881,43.421248 C0.953735421,42.9107167 0.274757026,43.3168088 0.127713624,44.6395243 Z M23.203103,34.571858 C21.7611997,35.0368158 20.3507079,35.8051898 18.9716273,36.87698 C17.5925468,37.9487702 16.4958938,39.1438529 15.6816684,40.4622281 C15.1198309,41.3471129 15.3497234,42.0342413 16.3713458,42.5236135 C17.8061163,43.1128133 19.4058991,43.4124317 21.1706943,43.4224687 C22.9354895,43.4325057 24.5404847,43.1356 25.9856799,42.5317517 C27.4912287,41.9940933 28.9335435,41.163327 30.312624,40.0394528 C31.6917045,38.9155787 32.7565347,37.7242938 33.5071145,36.4655981 C34.1391816,35.4136107 33.8549709,34.707222 32.6544822,34.3464321 C31.215871,33.9096864 29.6326854,33.7054196 27.9049255,33.7336318 C26.1771655,33.7618439 24.6098914,34.0412526 23.203103,34.571858 Z M6.41958005,21.5028535 C5.72496458,22.8803657 5.25763543,24.4312198 5.01759256,26.1554158 C4.7775497,27.8796119 4.80127965,29.4719704 5.08878242,30.9324914 C5.37354184,32.4971803 5.97886138,34.0168383 6.90474102,35.4914653 C7.83062061,36.9660924 8.93001694,38.1439494 10.20293,39.0250364 C11.0626949,39.678256 11.7559388,39.5171213 12.2826614,38.5416322 C12.9805689,37.1950448 13.4328096,35.66752 13.6393836,33.9590577 C13.8459577,32.2505953 13.7862899,30.65037 13.4603803,29.1583816 C13.137214,27.6946053 12.5398502,26.2184862 11.6682888,24.7300244 C10.7967275,23.2415625 9.81392339,22.0060605 8.71987658,21.0235184 C7.76135112,20.2281529 6.99458563,20.3879313 6.41958005,21.5028535 Z M32.3236345,20.2829496 C30.8115016,20.5357738 29.3019749,21.1096468 27.7950544,22.0045686 C26.2881339,22.8994903 25.0680303,23.9225874 24.1347436,25.0738599 C23.4390308,25.8860441 23.5493134,26.5889063 24.4655913,27.1824464 C25.7917253,28.0147047 27.3347208,28.5512779 29.0945779,28.7921662 C30.8544351,29.0330545 32.4920761,28.9400087 34.007501,28.5130288 C35.5196338,28.1902167 37.0291606,27.5814855 38.5360811,26.686835 C40.0430016,25.7921845 41.2790166,24.7708506 42.2441262,23.6228334 C43.0802983,22.637036 42.9189895,21.8959246 41.7601997,21.3994994 C40.3984023,20.7793748 38.8544466,20.3670435 37.1283326,20.1625054 C35.4022186,19.9579674 33.8006526,19.9981154 32.3236345,20.2829496 Z M17.5144985,5.01095648 C16.6377248,6.28430077 15.9609411,7.76489576 15.4841474,9.45274155 C15.0073537,11.1405873 14.819983,12.718026 14.9220356,14.1850574 C14.9571504,15.7150237 15.3296969,17.2788988 16.0396752,18.8766827 C16.7496534,20.4744666 17.6694976,21.8357026 18.7992079,22.9603905 C19.6485482,23.6928212 20.3785529,23.6060146 20.9892219,22.6999708 C21.8621549,21.4608066 22.5282396,19.9990649 22.9874759,18.3147456 C23.4467122,16.6304264 23.6061006,15.0390173 23.4656413,13.5405184 C23.3888276,12.1076671 23.0224536,10.6002162 22.3665193,9.018166 C21.710585,7.43611576 20.8918331,6.06375775 19.9102635,4.90109188 C19.0570826,3.93265578 18.2584942,3.96927732 17.5144985,5.01095648 Z M43.4572342,0.0304279836 C41.9802161,0.263720713 40.4656142,0.76814842 38.9134285,1.54371111 C37.3612427,2.3192738 36.0606219,3.22572456 35.011566,4.2630634 C33.9312359,5.33132707 33.0085112,6.6486172 32.2433916,8.21493369 C31.4782722,9.78125024 31.0128633,11.294669 30.8471652,12.75519 C30.7451127,13.8419001 31.2276674,14.3537878 32.2948294,14.290853 C33.8453692,14.231716 35.4223822,13.8315918 37.0258685,13.0904805 C38.6293549,12.3493692 39.9712631,11.3942253 41.0515932,10.225049 C42.0968084,9.18445487 42.9941572,7.88018578 43.7436396,6.31224164 C44.4931221,4.74429747 44.9679954,3.19534225 45.1682598,1.66537598 C45.2988431,0.405052703 44.7285012,-0.139929963 43.4572342,0.0304279836 Z" id="Shape"></path>
            </g>
        </g>
    </g>
</svg>