<?xml version="1.0" encoding="UTF-8"?>
<svg width="250px" height="250px" viewBox="0 0 250 250" version="1.1" xmlns="http://www.w3.org/2000/svg" xmlns:xlink="http://www.w3.org/1999/xlink">
    <title>Camera</title>
    <g id="Camera" stroke="none" stroke-width="1" fill="none" fill-rule="evenodd">
        <g transform="translate(0.000000, 31.000000)" fill="#141414">
            <path d="M229.536914,31.3426541 C236.055433,34.8287959 241.171204,39.9445674 244.657346,46.4630859 C248.143488,52.9816044 250,59.4473292 250,77.277704 L250,149.722296 C250,167.552671 248.143488,174.018396 244.657346,180.536914 C241.171204,187.055433 236.055433,192.171204 229.536914,195.657346 C223.018396,199.143488 216.552671,201 198.722296,201 L51.277704,201 C33.4473292,201 26.9816044,199.143488 20.4630859,195.657346 C13.9445674,192.171204 8.82879593,187.055433 5.34265408,180.536914 C1.89752566,174.095084 0.0439081948,167.704813 0.000770500687,150.346903 L1.38112041e-15,77.277704 C-8.02470732e-16,59.4473292 1.85651222,52.9816044 5.34265408,46.4630859 C8.82879593,39.9445674 13.9445674,34.8287959 20.4630859,31.3426541 C26.904916,27.8975257 33.2951872,26.0439082 50.6530969,26.0007705 L198.722296,26 C216.552671,26 223.018396,27.8565122 229.536914,31.3426541 Z M125,63 C97.3857625,63 75,85.3857625 75,113 C75,140.614237 97.3857625,163 125,163 C152.614237,163 175,140.614237 175,113 C175,85.3857625 152.614237,63 125,63 Z M187.5,51 C180.596441,51 175,56.5964406 175,63.5 C175,70.4035594 180.596441,76 187.5,76 C194.403559,76 200,70.4035594 200,63.5 C200,56.5964406 194.403559,51 187.5,51 Z" id="Combined-Shape"></path>
            <path d="M97,0 L152,0 C171.329966,-3.55085719e-15 187,15.6700338 187,35 L187,35 L187,35 L62,35 C62,15.6700338 77.6700338,1.06562846e-14 97,0 Z" id="Rectangle"></path>
        </g>
    </g>
</svg>