<?xml version="1.0" encoding="UTF-8"?>
<svg width="250px" height="250px" viewBox="0 0 250 250" version="1.1" xmlns="http://www.w3.org/2000/svg" xmlns:xlink="http://www.w3.org/1999/xlink">
    <title>Camera</title>
    <g id="Camera" stroke="none" stroke-width="1" fill="none" fill-rule="evenodd">
        <path d="M32.7930568,222 L217.205574,222 C228.093768,222 236.280896,219.31589 241.766957,213.947669 C247.255652,208.579457 250,200.527105 250,189.790611 L250,85.2382476 C250,74.5018938 247.255652,66.4708749 241.766957,61.1451911 C236.280896,55.8196817 228.093768,53.1569271 217.205574,53.1569271 L188.784984,53.1569271 C184.841236,53.1569271 181.947731,52.645614 180.104471,51.6229877 C178.26121,50.600536 176.267915,48.8963625 174.124585,46.5104674 L166.280017,37.6913632 C163.793776,35.0498114 160.985955,32.9408629 157.856556,31.3645178 C154.727333,29.7881726 150.547865,29 145.318154,29 L104.551951,29 C99.2363796,29 95.0354033,29.7881726 91.9490219,31.3645178 C88.8626405,32.9408629 86.0763289,35.0498114 83.590087,37.6913632 L75.6169936,46.5104674 C73.4736634,48.8963625 71.4803681,50.600536 69.6371077,51.6229877 C67.7936717,52.645614 64.9430092,53.1569271 61.0851203,53.1569271 L32.7930568,53.1569271 C21.9048623,53.1569271 13.7172955,55.8196817 8.23035621,61.1451911 C2.74345207,66.4708749 0,74.5018938 0,85.2382476 L0,189.790611 C0,200.527105 2.74345207,208.579457 8.23035621,213.947669 C13.7172955,219.31589 21.9048623,222 32.7930568,222 Z M125.063548,191 C115.07985,191 106.005754,188.527553 97.8412594,183.582659 C89.6767647,178.637766 83.1620978,171.957753 78.2972587,163.542621 C73.4324196,155.127667 71,145.801803 71,135.565027 C71,125.241371 73.4324196,115.893742 78.2972587,107.522139 C83.1620978,99.1505364 89.6767647,92.4706125 97.8412594,87.4823675 C106.005754,82.4941225 115.07985,80 125.063548,80 C135.047073,80 144.121082,82.4941225 152.285577,87.4823675 C160.450072,92.4706125 166.943599,99.1505364 171.76616,107.522139 C176.58872,115.893742 179,125.241371 179,135.565027 C179,145.801803 176.58872,155.127667 171.76616,163.542621 C166.943599,171.957753 160.450072,178.637766 152.285577,183.582659 C144.121082,188.527553 135.047073,191 125.063548,191 Z M124.564417,174 C131.425416,174 137.707581,172.327613 143.410912,168.98284 C149.114242,165.638066 153.638212,161.135453 156.982822,155.474999 C160.327607,149.814721 162,143.51115 162,136.564285 C162,129.617421 160.327607,123.292334 156.982822,117.589023 C153.638212,111.885888 149.114242,107.361934 143.410912,104.01716 C137.707581,100.672387 131.425416,99 124.564417,99 C117.617529,99 111.313847,100.672387 105.653374,104.01716 C99.9930761,107.361934 95.469106,111.885888 92.0814636,117.589023 C88.6938212,123.292334 87,129.617421 87,136.564285 C87,143.51115 88.6938212,149.814721 92.0814636,155.474999 C95.469106,161.135453 100.014505,165.638066 105.71766,168.98284 C111.42099,172.327613 117.703243,174 124.564417,174 Z M186,97.9979912 C186,94.4646989 187.297934,91.4150439 189.893801,88.8490264 C192.489668,86.2830088 195.545989,85 199.062766,85 C202.579714,85 205.615199,86.2830088 208.169223,88.8490264 C210.723074,91.4150439 212,94.4646989 212,97.9979912 C212,101.615537 210.723074,104.686298 208.169223,107.210275 C205.615199,109.73408 202.579714,110.995982 199.062766,110.995982 C195.545989,111.080236 192.489668,109.839353 189.893801,107.273336 C187.297934,104.707318 186,101.615537 186,97.9979912 Z" id="Shape" fill="#141414" fill-rule="nonzero"></path>
    </g>
</svg>