<?xml version="1.0" encoding="UTF-8"?>
<svg width="250px" height="250px" viewBox="0 0 250 250" version="1.1" xmlns="http://www.w3.org/2000/svg" xmlns:xlink="http://www.w3.org/1999/xlink">
    <title>Code</title>
    <g id="Code" stroke="none" stroke-width="1" fill="none" fill-rule="evenodd">
        <path d="M10.5015506,39 L239.184765,39 C242.215248,39 244.775354,37.981293 246.865084,35.943879 C248.955028,33.9066789 250,31.4253859 250,28.5 C250,25.5746141 248.955028,23.0933211 246.865084,21.056121 C244.775354,19.018707 242.215248,18 239.184765,18 L10.5015506,18 C7.57571478,18 5.0940402,19.018707 3.05652684,21.056121 C1.01884228,23.0933211 0,25.5746141 0,28.5 C0,31.4253859 1.01884228,33.9066789 3.05652684,35.943879 C5.0940402,37.981293 7.57571478,39 10.5015506,39 Z M10.5189741,103 L146.323731,103 C149.254421,103 151.766472,101.962924 153.859883,99.8887709 C155.953294,97.8146182 157,95.3256774 157,92.4219485 C157,89.518432 155.953294,87.0555084 153.859883,85.0331776 C151.766472,83.0110592 149.254421,82 146.323731,82 L10.5189741,82 C7.58828392,82 5.10249191,83.0110592 3.06159804,85.0331776 C1.02053268,87.0555084 0,89.518432 0,92.4219485 C0,95.3256774 1.02053268,97.8146182 3.06159804,99.8887709 C5.10249191,101.962924 7.58828392,103 10.5189741,103 Z M10.5015506,167 L239.184765,167 C242.215248,167 244.775354,165.962924 246.865084,163.888771 C248.955028,161.814831 250,159.325996 250,156.422267 C250,153.518538 248.955028,151.055508 246.865084,149.033178 C244.775354,147.011059 242.215248,146 239.184765,146 L10.5015506,146 C7.57571478,146 5.0940402,147.011059 3.05652684,149.033178 C1.01884228,151.055508 0,153.518538 0,156.422267 C0,159.325996 1.01884228,161.814831 3.05652684,163.888771 C5.0940402,165.962924 7.57571478,167 10.5015506,167 Z M10.5189741,233 L146.323731,233 C149.254421,233 151.766472,231.988888 153.859883,229.966663 C155.953294,227.944439 157,225.429629 157,222.422235 C157,219.518528 155.953294,217.055561 153.859883,215.033337 C151.766472,213.011112 149.254421,212 146.323731,212 L10.5189741,212 C7.58828392,212 5.10249191,213.011112 3.06159804,215.033337 C1.02053268,217.055561 0,219.518528 0,222.422235 C0,225.429629 1.02053268,227.944439 3.06159804,229.966663 C5.10249191,231.988888 7.58828392,233 10.5189741,233 Z" id="Shape" fill="#141414" fill-rule="nonzero"></path>
    </g>
</svg>