<?xml version="1.0" encoding="UTF-8"?>
<svg width="250px" height="250px" viewBox="0 0 250 250" version="1.1" xmlns="http://www.w3.org/2000/svg" xmlns:xlink="http://www.w3.org/1999/xlink">
    <title>Dark Mode</title>
    <g id="Dark-Mode" stroke="none" stroke-width="1" fill="none" fill-rule="evenodd">
        <path d="M124.922423,250 C142.053544,250 158.152634,246.747214 173.219693,240.241641 C188.286752,233.736069 201.5737,224.700548 213.080538,213.135078 C224.587164,201.569503 233.617065,188.248515 240.170239,173.172112 C246.723413,158.09571 250,142.038345 250,125.000016 C250,107.961687 246.723413,91.9042159 240.170239,76.8276022 C233.617065,61.7512 224.587164,48.4303171 213.080538,36.8649534 C201.5737,25.2993783 188.286752,16.2638785 173.219693,9.758454 C158.152634,3.252818 142.053544,0 124.922423,0 C107.894654,0 91.8472393,3.252818 76.7801803,9.758454 C61.7131214,16.2638785 48.426173,25.2993783 36.9193352,36.8649534 C25.4127088,48.4303171 16.3828296,61.7512 9.82969779,76.8276022 C3.27656593,91.9042159 0,107.961687 0,125.000016 C0,142.038345 3.27656593,158.09571 9.82969779,173.172112 C16.3828296,188.248515 25.4127088,201.569503 36.9193352,213.135078 C48.426173,224.700548 61.7131214,233.736069 76.7801803,240.241641 C91.8472393,246.747214 107.894654,250 124.922423,250 Z M125,227 C110.998432,227 97.8719883,224.391475 85.620669,219.174426 C73.3691388,213.957376 62.6105174,206.699943 53.3448049,197.402126 C44.0790923,188.104479 36.8465864,177.308883 31.6472872,165.015339 C26.4481988,152.721584 23.9001014,139.549793 24.0029952,125.499968 C24.0029952,111.450143 26.6283683,98.2783528 31.8791145,85.9845972 C37.1296498,73.6910531 44.3620502,62.8953516 53.5763159,53.5974928 C62.7905816,44.2998456 73.497756,37.0425183 85.6978393,31.825511 C97.8977117,26.6085037 110.998432,24 125,24 L125,227 Z" id="Shape" fill="#141414" fill-rule="nonzero"></path>
    </g>
</svg>