<?xml version="1.0" encoding="UTF-8"?>
<svg width="200px" height="250px" viewBox="0 0 200 250" version="1.1" xmlns="http://www.w3.org/2000/svg" xmlns:xlink="http://www.w3.org/1999/xlink">
    <title>Download</title>
    <g id="Download" stroke="none" stroke-width="1" fill="none" fill-rule="evenodd">
        <path d="M99.9379387,225 C113.642835,225 126.522107,222.397771 138.575754,217.193313 C150.629401,211.988855 161.25896,204.760438 170.46443,195.508063 C179.669732,186.255603 186.893652,175.598812 192.136191,163.53769 C197.37873,151.476568 200,138.630676 200,125.000013 C200,111.36935 197.37873,98.5233727 192.136191,86.4620817 C186.893652,74.40096 179.649019,63.7442536 170.402293,54.4919627 C161.155736,45.2395027 150.505634,38.0111028 138.451987,32.8067632 C126.398339,27.6022544 113.519068,25 99.814171,25 C86.1919553,25 73.3540238,27.6022544 61.3003767,32.8067632 C49.2467295,38.0111028 38.6377987,45.2395027 29.4735844,54.4919627 C20.3095391,63.7442536 13.1062637,74.40096 7.86375823,86.4620817 C2.62125274,98.5233727 0,111.36935 0,125.000013 C0,138.630676 2.62125274,151.476568 7.86375823,163.53769 C13.1062637,175.598812 20.330167,186.255603 29.5354682,195.508063 C38.7409384,204.760438 49.3704971,211.988855 61.4241443,217.193313 C73.4777914,222.397771 86.3157229,225 99.9379387,225 Z M100.875965,206 C89.6466512,206 79.1398214,203.91832 69.3554751,199.75496 C59.5709597,195.591601 50.9837632,189.799954 43.5938854,182.380022 C36.2040077,174.960225 30.424224,166.34502 26.2545344,156.534409 C22.0848448,146.723628 20,136.21215 20,124.999975 C20,113.787799 22.0642145,103.276321 26.1926435,93.4655406 C30.3210725,83.6549291 36.0802258,75.0396402 43.4701036,67.6196741 C50.8599813,60.1998767 59.4470933,54.4083151 69.2314396,50.244989 C79.015955,46.081663 89.5228693,44 100.752183,44 C112.064186,44 122.632992,46.081663 132.458598,50.244989 C142.284374,54.4083151 150.912832,60.1998767 158.34397,67.6196741 C165.775108,75.0396402 171.575522,83.6549291 175.745212,93.4655406 C179.915071,103.276321 182,113.787799 182,124.999975 C182,136.21215 179.915071,146.723628 175.745212,156.534409 C171.575522,166.34502 165.775108,174.960225 158.34397,182.380022 C150.912832,189.799954 142.305005,195.591601 132.520489,199.75496 C122.736143,203.91832 112.187968,206 100.875965,206 Z M99.4378871,76 C97.0397463,76 95.0550985,76.7797029 93.4839437,78.3391086 C91.9127889,79.8986824 91.1272115,81.868573 91.1272115,84.2487805 L91.1272115,127.708495 L91.9952673,149.623045 L82.9402535,138.173339 L72.892704,128.200925 C71.2389014,126.55949 69.2542536,125.738772 66.9387606,125.738772 C64.7059154,125.738772 62.8245773,126.497967 61.2947464,128.016358 C59.7649155,129.534749 59,131.443033 59,133.741211 C59,136.039389 59.7028449,137.927166 61.1085348,139.404542 L92.9878029,170.798823 C95.137831,172.932941 97.2878591,174 99.4378871,174 C101.670732,174 103.862169,172.932941 106.012197,170.798823 L137.643268,139.404542 C139.214423,137.927166 140,136.039389 140,133.741211 C140,131.443033 139.214423,129.534749 137.643268,128.016358 C136.072113,126.497967 134.128789,125.738772 131.813296,125.738772 C129.415155,125.738772 127.471831,126.55949 125.983324,128.200925 L116.059747,138.173339 L106.880507,149.746089 L107.624845,127.708495 L107.624845,84.2487805 C107.624845,81.868573 106.85993,79.8986824 105.330099,78.3391086 C103.800098,76.7797029 101.836028,76 99.4378871,76 Z" id="Shape" fill="#009CDF" fill-rule="nonzero"></path>
    </g>
</svg>