<?xml version="1.0" encoding="UTF-8"?>
<svg width="250px" height="250px" viewBox="0 0 250 250" version="1.1" xmlns="http://www.w3.org/2000/svg" xmlns:xlink="http://www.w3.org/1999/xlink">
    <title>Image Detection</title>
    <g id="Image-Detection" stroke="none" stroke-width="1" fill="none" fill-rule="evenodd">
        <path d="M24.404429,124.5 C24.404429,114.132536 25.936286,104.024216 29,94.1750401 L6.49724807,85 C4.48997451,91.3241361 2.90528144,97.7778974 1.74316887,104.361284 C0.581056289,110.944458 0,117.657363 0,124.5 C0,131.342637 0.581056289,138.055542 1.74316887,144.638716 C2.90528144,151.222103 4.54279978,157.675864 6.65572387,164 L29,154.82496 C27.5209358,150.055901 26.3852413,145.131313 25.5929164,140.051196 C24.8005915,134.971079 24.404429,129.787347 24.404429,124.5 Z M78,35.56256 L69.2096606,14 C57.3862457,20.0416 46.7195264,27.85408 37.2095027,37.43744 C27.699479,47.0208 19.9629781,57.8020267 14,69.78112 L35.4360852,79 C40.268161,69.7291733 46.3083083,61.39584 53.5565272,54 C60.8047461,46.60416 68.9525704,40.4583467 78,35.56256 Z M124.499841,24.2199129 C129.787167,24.2199129 134.996782,24.644795 140.128685,25.4945593 C145.260589,26.3443235 150.211061,27.5128038 154.980101,29 L164,6.692383 C157.779504,4.56775481 151.377576,2.9212006 144.794216,1.75272036 C138.210857,0.584240119 131.446065,0 124.499841,0 C117.657444,0 110.918662,0.584240119 104.283495,1.75272036 C97.6483274,2.9212006 91.2204958,4.56775481 85,6.692383 L94.1750031,29 C103.920524,25.8132753 114.028804,24.2199129 124.499841,24.2199129 Z M215.177228,77 L237,67.9376 C230.86881,55.9585067 222.997055,45.17728 213.384735,35.59392 C203.772415,26.01056 192.991063,18.14592 181.04068,12 L172,33.71904 C191.016713,43.71904 205.409123,58.1460267 215.177228,77 Z M226.754253,124.5 C226.754253,129.787347 226.357984,134.996983 225.565446,140.128908 C224.773125,145.260832 223.637435,150.211324 222.158378,154.980383 L244.185863,164 C246.404233,157.779691 248.094461,151.35194 249.256547,144.716746 C250.418849,138.081552 251,131.342637 251,124.5 C251,117.657363 250.418849,110.918448 249.256547,104.283254 C248.094461,97.6480599 246.404233,91.2203086 244.185863,85 L222,94.0196173 C225.169502,103.868793 226.754253,114.028921 226.754253,124.5 Z M172,214.281283 L181.04068,236 C193.09492,229.85417 203.902236,221.989607 213.462628,212.406311 C223.023019,202.822971 230.86881,192.041768 237,180.0627 L215.333333,171 C210.553138,180.270807 204.473983,188.604122 197.095868,195.999946 C189.717754,203.395855 181.352464,209.489634 172,214.281283 Z M124.499841,225.78024 C113.925189,225.78024 103.765102,224.186826 94.019581,221 L85,243.307697 C91.2204958,245.432234 97.6483274,247.078752 104.283495,248.247251 C110.918662,249.41575 117.657444,250 124.499841,250 C131.446065,250 138.210857,249.442314 144.794216,248.326941 C151.377576,247.211546 157.779504,245.59158 164,243.467044 L154.824678,221.159347 C144.871927,224.239942 134.763648,225.78024 124.499841,225.78024 Z M35.590213,173 L14,181.944776 C20.06573,193.767971 27.8279189,204.408889 37.2865666,213.867529 C46.7452143,223.326127 57.3862457,231.036951 69.2096606,237 L78,215.563913 C59.2882083,205.796785 45.1516127,191.608815 35.590213,173 Z M125.922687,186 C134.569075,186 142.10884,184.464581 148.541984,181.393743 C154.975338,178.323114 159.993346,174.817403 163.596008,170.87661 C167.198669,166.935816 169,163.583553 169,160.819819 C169,159.284505 168.330904,158.184169 166.992713,157.51881 C165.654521,156.853661 164.264893,156.828086 162.823828,157.442086 C158.294888,159.59161 153.225549,161.741134 147.615811,163.890657 C142.005862,166.040181 134.774821,167.114943 125.922687,167.114943 C117.070554,167.114943 109.865336,166.040181 104.307034,163.890657 C98.7487324,161.741134 93.6535698,159.59161 89.0215463,157.442086 C87.5804816,156.828086 86.2165717,156.853661 84.9298166,157.51881 C83.6432722,158.184169 83,159.284505 83,160.819819 C83,163.583553 84.7756125,166.935816 88.3268376,170.87661 C91.8778518,174.817403 96.8957544,178.323114 103.380545,181.393743 C109.865336,184.464581 117.379383,186 125.922687,186 Z M89.8452923,115 C93.8658988,115 97.3967823,113.370849 100.437943,110.112547 C103.479314,106.854245 105,102.702639 105,97.6577275 C105,92.4025129 103.479314,88.1457547 100.437943,84.8874528 C97.3967823,81.6291509 93.8658988,80 89.8452923,80 C85.8246857,80 82.3453187,81.6291509 79.4071912,84.8874528 C76.4690637,88.1457547 75,92.4025129 75,97.6577275 C75,102.702639 76.4690637,106.854245 79.4071912,110.112547 C82.3453187,113.370849 85.8246857,115 89.8452923,115 Z M160.766816,115 C164.911809,115 168.486868,113.370849 171.491994,110.112547 C174.497331,106.854245 176,102.702639 176,97.6577275 C176,92.4025129 174.497331,88.1457547 171.491994,84.8874528 C168.486868,81.6291509 164.911809,80 160.766816,80 C156.828956,80 153.383355,81.6291509 150.430013,84.8874528 C147.476671,88.1457547 146,92.4025129 146,97.6577275 C146,102.702639 147.476671,106.854245 150.430013,110.112547 C153.383355,113.370849 156.828956,115 160.766816,115 Z" id="Shape" fill="#141414" fill-rule="nonzero"></path>
    </g>
</svg>