<?xml version="1.0" encoding="UTF-8"?>
<svg width="250px" height="250px" viewBox="0 0 250 250" version="1.1" xmlns="http://www.w3.org/2000/svg" xmlns:xlink="http://www.w3.org/1999/xlink">
    <title>Heart</title>
    <g id="Heart" stroke="none" stroke-width="1" fill="none" fill-rule="evenodd">
        <path d="M125.00013,241.052028 C126.376523,241.052028 128.017698,240.654952 129.923657,239.860799 C131.829615,239.06665 133.470899,238.193083 134.847509,237.240098 C158.672095,222.204108 179.187765,206.400411 196.394519,189.829005 C213.601273,173.257643 226.837154,156.209845 236.102162,138.685613 C245.367387,121.161163 250,103.451408 250,85.5563497 C250,70.6263798 246.902737,57.3904986 240.70821,45.8487062 C234.5139,34.3071306 226.095936,25.2802314 215.454318,18.7680087 C204.8127,12.2560029 192.873841,9 179.637743,9 C167.248907,9 156.501354,12.12372 147.395085,18.37116 C138.288816,24.6183831 130.823831,32.9305209 125.00013,43.3075731 C119.282039,33.0363472 111.869858,24.7506661 102.76359,18.4505297 C93.6573206,12.1501766 82.8568546,9 70.3621915,9 C57.1263103,9 45.2140173,12.2560029 34.6253123,18.7680087 C24.0363906,25.2802314 15.6183181,34.3071306 9.37109494,45.8487062 C3.12369831,57.3904986 0,70.6263798 0,85.5563497 C0,103.451408 4.63259094,121.161163 13.8977728,138.685613 C23.1627812,156.209845 36.3986624,173.257643 53.6054163,189.829005 C70.8121702,206.400411 91.3278403,222.204108 115.152426,237.240098 C116.634862,238.193083 118.302603,239.06665 120.155648,239.860799 C122.008693,240.654952 123.62352,241.052028 125.00013,241.052028 Z" id="Path" fill="#E23838" fill-rule="nonzero"></path>
    </g>
</svg>