<?xml version="1.0" encoding="UTF-8"?>
<svg width="250px" height="250px" viewBox="0 0 250 250" version="1.1" xmlns="http://www.w3.org/2000/svg" xmlns:xlink="http://www.w3.org/1999/xlink">
    <title>Image Detection</title>
    <g id="Image-Detection" stroke="none" stroke-width="1" fill="none" fill-rule="evenodd" stroke-linecap="round">
        <g transform="translate(14.000000, 13.000000)" stroke="#141414" stroke-width="22.2332016">
            <g id="Face" transform="translate(44.000000, 54.000000)">
                <path d="M0,89.1472868 C12.4133333,106.382429 34.8755556,115 67.3866667,115 C99.8977778,115 121.768889,106.382429 133,89.1472868" id="Mouth"></path>
                <line x1="21.7233333" y1="0.445736434" x2="21.7233333" y2="22.7325581" id="Eye-1"></line>
                <line x1="110.39" y1="0.445736434" x2="110.39" y2="22.7325581" id="Eye-2"></line>
                <path d="M76.2533333,22.2868217 C63.2488889,38.3333333 56.7466667,56.1627907 56.7466667,75.7751938 C56.7466667,75.7751938 63.2488889,75.7751938 76.2533333,75.7751938" id="Nose" stroke-linejoin="round"></path>
            </g>
            <path d="M67,0 C22.3333333,0 0,22.3333333 0,67" id="Path-4"></path>
            <path d="M222,0 C177.333333,0 155,22.3333333 155,67" id="Path-4" transform="translate(188.500000, 33.500000) scale(-1, 1) translate(-188.500000, -33.500000) "></path>
            <path d="M222,158 C177.333333,158 155,180.333333 155,225" id="Path-4" transform="translate(188.500000, 191.500000) scale(-1, -1) translate(-188.500000, -191.500000) "></path>
            <path d="M67,158 C22.3333333,158 0,180.333333 0,225" id="Path-4" transform="translate(33.500000, 191.500000) scale(1, -1) translate(-33.500000, -191.500000) "></path>
        </g>
    </g>
</svg>