<?xml version="1.0" encoding="UTF-8"?>
<svg width="250px" height="250px" viewBox="0 0 250 250" version="1.1" xmlns="http://www.w3.org/2000/svg" xmlns:xlink="http://www.w3.org/1999/xlink">
    <title>Lock</title>
    <g id="Lock" stroke="none" stroke-width="1" fill="none" fill-rule="evenodd">
        <g transform="translate(33.000000, 0.000000)">
            <path d="M90.8318885,12.5 C100.011801,12.5 108.613803,14.975112 116.001435,19.302447 C123.398322,23.6352025 129.580299,29.8171795 133.913054,37.2140658 C138.240389,44.6016983 140.715501,53.2037005 140.715501,62.3836127 L140.715501,62.3836127 L140.715501,187.616387 C140.715501,196.7963 138.240389,205.398302 133.913054,212.785934 C129.580299,220.182821 123.398322,226.364798 116.001435,230.697553 C108.613803,235.024888 100.011801,237.5 90.8318885,237.5 C81.6519763,237.5 73.0499742,235.024888 65.6623417,230.697553 C58.2654554,226.364798 52.0834783,220.182821 47.7507229,212.785934 C43.4233878,205.398302 40.9482759,196.7963 40.9482759,187.616387 L40.9482759,187.616387 L40.9482759,62.3836127 C40.9482759,53.2037005 43.4233878,44.6016983 47.7507229,37.2140658 C52.0834783,29.8171795 58.2654554,23.6352025 65.6623417,19.302447 C73.0499742,14.975112 81.6519763,12.5 90.8318885,12.5 Z" id="Rectangle" stroke="#141414" stroke-width="25"></path>
            <path d="M157.610798,105.816249 C165.758946,110.173926 172.15366,116.56864 176.511338,124.716788 C180.869015,132.864937 183.189655,141.18718 183.189655,162.034624 L183.189655,187.103307 C183.189655,207.950751 180.869015,216.272994 176.511338,224.421143 C172.15366,232.569291 165.758946,238.964005 157.610798,243.321682 C149.46265,247.67936 141.140406,250 120.292963,250 L62.8966927,250 C42.049249,250 33.7270056,247.67936 25.5788574,243.321682 C17.4307093,238.964005 11.0359949,232.569291 6.67831759,224.421143 C6.43888477,223.973442 6.20560169,223.525216 5.97851537,223.074416 L5.70898926,222.532088 C2.02177457,215.009173 0.0473283926,206.551048 0.000840333814,187.786065 L8.2162927e-15,162.034624 C-4.04364477e-15,142.79083 1.9773503,134.219395 5.70898926,126.605843 L5.97851537,126.063515 C6.20560169,125.612715 6.43888477,125.164489 6.67831759,124.716788 C11.0359949,116.56864 17.4307093,110.173926 25.5788574,105.816249 C26.0265579,105.576816 26.4747839,105.343533 26.9255843,105.116446 L27.4679115,104.84692 C34.9908268,101.159706 43.4489525,99.1852594 62.2139355,99.1387714 L120.292963,99.137931 C141.140406,99.137931 149.46265,101.458571 157.610798,105.816249 Z M92.3793103,148.706897 C85.475751,148.706897 79.8793103,154.303337 79.8793103,161.206897 L79.8793103,161.206897 L79.8793103,187.931034 C79.8793103,194.834594 85.475751,200.431034 92.3793103,200.431034 C99.2828697,200.431034 104.87931,194.834594 104.87931,187.931034 L104.87931,187.931034 L104.87931,161.206897 C104.87931,154.303337 99.2828697,148.706897 92.3793103,148.706897 Z" id="Combined-Shape" fill="#141414"></path>
        </g>
    </g>
</svg>