<?xml version="1.0" encoding="UTF-8"?>
<svg width="250px" height="250px" viewBox="0 0 250 250" version="1.1" xmlns="http://www.w3.org/2000/svg" xmlns:xlink="http://www.w3.org/1999/xlink">
    <title>Lock</title>
    <g id="Lock" stroke="none" stroke-width="1" fill="none" fill-rule="evenodd">
        <path d="M64.7033923,250 L185.458705,250 C193.693391,250 199.842223,247.886771 203.905201,243.660313 C207.9684,239.433855 210,232.823233 210,223.828447 L210,131.171446 C210,122.285057 207.9684,115.701552 203.905201,111.420931 C199.842223,107.14031 193.693391,105 185.458705,105 L67.791566,105 C59.4485931,105 52.7309222,107.167388 47.6385533,111.502163 C42.5461844,115.836938 40,122.393366 40,131.171446 L40,223.828447 C40,232.823233 42.0314888,239.433855 46.0944665,243.660313 C50.157666,247.886771 56.3606413,250 64.7033923,250 Z M58,114 L81.5670516,114 L81.5670516,68.4647504 C81.5670516,58.1304859 83.5444813,49.5185988 87.4993406,42.6290891 C91.4544219,35.7395794 96.6283374,30.5993438 103.021087,27.2083823 C109.414059,23.8174207 116.240419,22.12194 123.500166,22.12194 C130.759914,22.12194 137.586163,23.8174207 143.978913,27.2083823 C150.371884,30.5993438 155.572873,35.7395794 159.581878,42.6290891 C163.591105,49.5185988 165.595719,58.1304859 165.595719,68.4647504 L165.595719,114 L189,114 L189,71.8553812 C189,55.2775675 185.803625,41.6869349 179.410875,31.0834835 C173.017903,20.4802525 164.81005,12.6489193 154.787316,7.58948385 C144.764581,2.52982795 134.335531,0 123.500166,0 C112.664802,0 102.235752,2.52982795 92.2130172,7.58948385 C82.1902826,12.6489193 73.9824294,20.4802525 67.5894576,31.0834835 C61.1964859,41.6869349 58,55.2775675 58,71.8553812 L58,114 Z" id="Shape" fill="#141414" fill-rule="nonzero"></path>
    </g>
</svg>