<?xml version="1.0" encoding="UTF-8"?>
<svg width="250px" height="250px" viewBox="0 0 250 250" version="1.1" xmlns="http://www.w3.org/2000/svg" xmlns:xlink="http://www.w3.org/1999/xlink">
    <title>Quick Actions</title>
    <g id="Quick-Actions" stroke="none" stroke-width="1" fill="none" fill-rule="evenodd">
        <path d="M55.4342597,81 L143.700833,81 C145.773364,81 147.508071,80.3301982 148.904953,78.9905945 C150.301651,77.6511678 151,75.9444076 151,73.8703138 C151,71.969135 150.301651,70.3488322 148.904953,69.0094055 C147.508071,67.6698018 145.773364,67 143.700833,67 L55.4342597,67 C53.2714821,67 51.4917444,67.6698018 50.0950466,69.0094055 C48.6983489,70.3488322 48,71.969135 48,73.8703138 C48,75.9444076 48.6983489,77.6511678 50.0950466,78.9905945 C51.4917444,80.3301982 53.2714821,81 55.4342597,81 Z M55.4342597,183 L143.700833,183 C145.773364,183 147.508071,182.330274 148.904953,180.990822 C150.301651,179.651193 151,178.030771 151,176.129556 C151,174.055423 150.301651,172.34863 148.904953,171.009178 C147.508071,169.669726 145.773364,169 143.700833,169 L55.4342597,169 C53.2714821,169 51.4917444,169.669726 50.0950466,171.009178 C48.6983489,172.34863 48,174.055423 48,176.129556 C48,178.030771 48.6983489,179.651193 50.0950466,180.990822 C51.4917444,182.330274 53.2714821,183 55.4342597,183 Z M34.3665203,224 L215.632872,224 C227.223275,224 235.848592,221.162549 241.508824,215.487648 C247.169608,209.812756 250,201.300381 250,189.950522 L250,61.0494083 C250,49.6996978 247.169608,41.1873688 241.508824,35.5124213 C235.848592,29.8374738 227.223275,27 215.632872,27 L34.3665203,27 C22.9558928,27 14.3754733,29.8374738 8.62526191,35.5124213 C2.8750873,41.1873688 0,49.6996978 0,61.0494083 L0,189.950522 C0,201.300381 2.8750873,209.812756 8.62526191,215.487648 C14.3754733,221.162549 22.9558928,224 34.3665203,224 Z M35.2157734,204 C30.3681402,204 26.6202697,202.700624 23.9721618,200.101872 C21.3240539,197.503138 20,193.694597 20,188.676249 L20,62.3236129 C20,57.215742 21.3240539,53.3848387 23.9721618,50.8309032 C26.6202697,48.2769677 30.3681402,47 35.2157734,47 L215.784502,47 C220.631952,47 224.37973,48.2769677 227.027838,50.8309032 C229.675946,53.3848387 231,57.215742 231,62.3236129 L231,188.676249 C231,193.694597 229.675946,197.503138 227.027838,200.101872 C224.37973,202.700624 220.631952,204 215.784502,204 L35.2157734,204 Z M46.536849,151 L201.463151,151 C206.039536,151 209.60644,149.647255 212.163864,146.941765 C214.721288,144.23609 216,140.628617 216,136.119344 L216,114.880656 C216,110.371383 214.721288,106.76391 212.163864,104.058235 C209.60644,101.352745 206.039536,100 201.463151,100 L46.536849,100 C41.9604642,100 38.3935599,101.352745 35.8361359,104.058235 C33.278712,106.76391 32,110.371383 32,114.880656 L32,136.119344 C32,140.628617 33.278712,144.23609 35.8361359,146.941765 C38.3935599,149.647255 41.9604642,151 46.536849,151 Z M55.3254545,132 C53.1943305,132 51.4406405,131.308681 50.0643843,129.926044 C48.6881281,128.54323 48,126.85803 48,124.870444 C48,122.969229 48.6881281,121.348807 50.0643843,120.009178 C51.4406405,118.669726 53.1943305,118 55.3254545,118 L103.807388,118 C105.849769,118 107.559087,118.669726 108.935343,120.009178 C110.311781,121.348807 111,122.969229 111,124.870444 C111,126.85803 110.311781,128.54323 108.935343,129.926044 C107.559087,131.308681 105.849769,132 103.807388,132 L55.3254545,132 Z" id="Shape" fill="#141414" fill-rule="nonzero"></path>
    </g>
</svg>