<?xml version="1.0" encoding="UTF-8"?>
<svg width="250px" height="250px" viewBox="0 0 250 250" version="1.1" xmlns="http://www.w3.org/2000/svg" xmlns:xlink="http://www.w3.org/1999/xlink">
    <title>Widgets</title>
    <g id="Widgets" stroke="none" stroke-width="1" fill="none" fill-rule="evenodd">
        <path d="M80.3978037,250 L169.454347,250 C179.020931,250 186.836852,247.134953 192.902111,241.40486 C198.96737,235.674768 202,228.314559 202,219.324232 L202,30.6757068 C202,21.6853014 198.96737,14.3250822 192.902111,8.59504935 C186.836852,2.86501645 179.020931,0 169.454347,0 L80.3978037,0 C70.9299883,0 63.1634511,2.86501645 57.0981918,8.59504935 C51.0327306,14.3250822 48,21.6853014 48,30.6757068 L48,219.324232 C48,228.314559 51.0327306,235.674768 57.0981918,241.40486 C63.1634511,247.134953 70.9299883,250 80.3978037,250 Z M83.8748866,229 C79.5451691,229 76.1502586,227.83536 73.6901552,225.506079 C71.2300517,223.176798 70,219.980233 70,215.916385 L70,34.0837067 C70,30.0197566 71.2300517,26.823202 73.6901552,24.494043 C76.1502586,22.164681 79.5451691,21 83.8748866,21 L167.125113,21 C171.454831,21 174.849741,22.164681 177.309845,24.494043 C179.769948,26.823202 181,30.0197566 181,34.0837067 L181,215.916385 C181,219.980233 179.769948,223.176798 177.309845,225.506079 C174.849741,227.83536 171.454831,229 167.125113,229 L83.8748866,229 Z M95.1248873,101 L155.875113,101 C158.907781,101 161.353429,100.031867 163.212057,98.0956019 C165.070686,96.1595399 166,93.6028643 166,90.4255752 L166,69.5744248 C166,66.3971357 165.070686,63.8404601 163.212057,61.9043981 C161.353429,59.9681327 158.907781,59 155.875113,59 L95.1248873,59 C92.0924198,59 89.6467716,59.9681327 87.7879428,61.9043981 C85.9293143,63.8404601 85,66.3971357 85,69.5744248 L85,90.4255752 C85,93.6028643 85.9293143,96.1595399 87.7879428,98.0956019 C89.6467716,100.031867 92.0924198,101 95.1248873,101 Z M95.1248873,193 L155.875113,193 C158.907781,193 161.353429,192.031962 163.212057,190.095886 C165.070686,188.159606 166,185.602811 166,182.425498 L166,161.574502 C166,158.297956 165.070686,155.716351 163.212057,153.829689 C161.353429,151.94323 158.907781,151 155.875113,151 L95.1248873,151 C92.0924198,151 89.6467716,151.94323 87.7879428,153.829689 C85.9293143,155.716351 85,158.297956 85,161.574502 L85,182.425498 C85,185.602811 85.9293143,188.159606 87.7879428,190.095886 C89.6467716,192.031962 92.0924198,193 95.1248873,193 Z" id="Shape" fill="#141414" fill-rule="nonzero"></path>
    </g>
</svg>