<?xml version="1.0" encoding="UTF-8"?>
<svg width="250px" height="250px" viewBox="0 0 250 250" version="1.1" xmlns="http://www.w3.org/2000/svg" xmlns:xlink="http://www.w3.org/1999/xlink">
    <title>Widgets</title>
    <g id="Widgets" stroke="none" stroke-width="1" fill="none" fill-rule="evenodd">
        <g id="Widget-3" transform="translate(130.000000, 130.000000)">
            <rect id="Rectangle" fill="#141414" x="0" y="0" width="120" height="120" rx="25"></rect>
            <path d="M43.325,85.5 L52.025,63.9 C53.625,59.9 54.675,56.9 55.175,54.9 C55.675,52.9 55.925,50.9 55.925,48.9 C55.925,44.6 54.575,41.125 51.875,38.475 C49.175,35.825 45.725,34.5 41.525,34.5 C37.325,34.5 33.85,35.825 31.1,38.475 C28.35,41.125 26.975,44.6 26.975,48.9 C26.975,52 27.675,54.65 29.075,56.85 C30.475,59.05 32.425,60.7 34.925,61.8 L34.925,61.8 L28.475,85.5 L43.325,85.5 Z M80.075,85.5 L88.775,63.9 C90.375,59.9 91.425,56.9 91.925,54.9 C92.425,52.9 92.675,50.9 92.675,48.9 C92.675,44.6 91.325,41.125 88.625,38.475 C85.925,35.825 82.475,34.5 78.275,34.5 C74.075,34.5 70.6,35.825 67.85,38.475 C65.1,41.125 63.725,44.6 63.725,48.9 C63.725,52 64.425,54.65 65.825,56.85 C67.225,59.05 69.175,60.7 71.675,61.8 L71.675,61.8 L65.225,85.5 L80.075,85.5 Z" id="’’" fill="#FAFEFD" fill-rule="nonzero"></path>
        </g>
        <g id="Widget-2" transform="translate(0.000000, 130.000000)">
            <circle id="Oval" fill="#141414" cx="60" cy="60" r="60"></circle>
            <line x1="56.0191306" y1="70.068212" x2="81.0190969" y2="70.1092554" id="Line" stroke="#FAFEFD" stroke-width="12.5" stroke-linecap="round" transform="translate(68.519114, 70.088734) rotate(50.000000) translate(-68.519114, -70.088734) "></line>
            <line x1="71.9906666" y1="55.1418141" x2="49.0093334" y2="35.8581859" id="Line" stroke="#FAFEFD" stroke-width="12.5" stroke-linecap="round" transform="translate(60.500000, 45.500000) rotate(50.000000) translate(-60.500000, -45.500000) "></line>
        </g>
        <g id="Widget-1">
            <rect id="Rectangle" fill="#141414" x="0" y="0" width="250" height="120" rx="25"></rect>
            <line x1="72.1511111" y1="81.0696902" x2="53" y2="65" id="Line" stroke="#FAFEFD" stroke-width="12.5" stroke-linecap="round" transform="translate(62.575556, 73.034845) rotate(50.000000) translate(-62.575556, -73.034845) "></line>
            <line x1="106.641778" y1="75.7115044" x2="68.3395556" y2="43.5721239" id="Line" stroke="#FAFEFD" stroke-width="12.5" stroke-linecap="round" transform="translate(87.500000, 59.500000) rotate(50.000000) translate(-87.500000, -59.500000) "></line>
            <line x1="124.151111" y1="79.0696902" x2="101.169778" y2="59.786062" id="Line" stroke="#FAFEFD" stroke-width="12.5" stroke-linecap="round" transform="translate(113.000000, 69.500000) rotate(50.000000) translate(-113.000000, -69.500000) "></line>
            <line x1="156.641778" y1="75.7115044" x2="118.339556" y2="43.5721239" id="Line" stroke="#FAFEFD" stroke-width="12.5" stroke-linecap="round" transform="translate(137.500000, 59.500000) rotate(50.000000) translate(-137.500000, -59.500000) "></line>
            <line x1="179.472" y1="77.9254424" x2="145" y2="49" id="Line" stroke="#FAFEFD" stroke-width="12.5" stroke-linecap="round" transform="translate(162.236000, 63.462721) rotate(50.000000) translate(-162.236000, -63.462721) "></line>
            <line x1="197.151111" y1="81.0696902" x2="178" y2="65" id="Line" stroke="#FAFEFD" stroke-width="12.5" stroke-linecap="round" transform="translate(187.575556, 73.034845) rotate(50.000000) translate(-187.575556, -73.034845) "></line>
        </g>
    </g>
</svg>