<?xml version="1.0" encoding="UTF-8"?>
<svg width="120px" height="40px" viewBox="0 0 120 40" version="1.1" xmlns="http://www.w3.org/2000/svg" xmlns:xlink="http://www.w3.org/1999/xlink">
    <title>download-white</title>
    <g id="Page-1" stroke="none" stroke-width="1" fill="none" fill-rule="evenodd">
        <g id="download-white" transform="translate(0.000000, -0.000130)" fill-rule="nonzero">
            <g id="Group">
                <g id="Path">
                    <path d="M110.13477,1.00613962e-16 L9.53468,1.00613962e-16 C9.16798,1.00613962e-16 8.80568,1.00613962e-16 8.43995,0.00213 C8.1338,0.00413 7.83009,0.00994 7.521,0.01483 C6.84951368,0.0227318036 6.17960647,0.0818062599 5.5171,0.19154 C4.85552408,0.303662628 4.21467252,0.51504574 3.61622,0.81854 C3.01849941,1.12460171 2.47234502,1.52229753 1.99757,1.9972 C1.5203025,2.47076699 1.12246318,3.01814638 0.81935,3.61829 C0.515400242,4.21723912 0.304640498,4.8590683 0.19435,5.52161 C0.0830109412,6.18331491 0.0230983806,6.85265054 0.01515,7.52361 C0.00587,7.83021 0.00489,8.13783 0,8.44447 L0,31.55873 C0.00489,31.86923 0.00587,32.17003 0.01515,32.48063 C0.023100818,33.1515562 0.0830133796,33.8208584 0.19435,34.48253 C0.304335953,35.145459 0.515108158,35.7876566 0.81935,36.38683 C1.12232555,36.9850329 1.52022081,37.5301962 1.99757,38.00113 C2.47054482,38.478144 3.01705224,38.8761104 3.61622,39.17983 C4.21466797,39.4841365 4.85545044,39.6967778 5.5171,39.81063 C6.1797191,39.9194847 6.84955741,39.9785832 7.521,39.98743 C7.83009,39.99423 8.1338,39.99813 8.43995,39.99813 C8.80567,40.00013 9.168,40.00013 9.53468,40.00013 L110.13477,40.00013 C110.49417,40.00013 110.85937,40.00013 111.21877,39.99813 C111.52347,39.99813 111.83597,39.99423 112.14067,39.98743 C112.810843,39.9790537 113.47942,39.9199515 114.14067,39.81063 C114.804454,39.6959764 115.447534,39.4833914 116.04887,39.17983 C116.647497,38.8759346 117.1935,38.4779791 117.66607,38.00113 C118.142188,37.5283518 118.540932,36.9835873 118.84767,36.38683 C119.149629,35.7872208 119.358395,35.1450745 119.46677,34.48253 C119.578285,33.8207676 119.640323,33.1516143 119.65237,32.48063 C119.65627,32.17003 119.65627,31.86923 119.65627,31.55873 C119.66407,31.19543 119.66407,30.83413 119.66407,30.46493 L119.66407,9.53626 C119.66407,9.17005 119.66407,8.80677 119.65627,8.44447 C119.65627,8.13783 119.65627,7.83021 119.65237,7.52357 C119.640326,6.85255244 119.578287,6.18336567 119.46677,5.52157 C119.358093,4.8594116 119.149339,4.21763328 118.84767,3.61825 C118.230394,2.41532608 117.251573,1.4361554 116.04887,0.81845 C115.447532,0.51569738 114.804383,0.30437041 114.14067,0.19145 C113.479535,0.0812327831 112.810888,0.0221377649 112.14067,0.01469 C111.83597,0.00981 111.52347,0.00395 111.21877,0.002 C110.85937,1.00613962e-16 110.49417,1.00613962e-16 110.13477,1.00613962e-16 L110.13477,1.00613962e-16 Z" fill="#000000"></path>
                    <path d="M8.44483,39.12513 C8.14015,39.12513 7.84283,39.12123 7.54054,39.11443 C6.91432177,39.1062707 6.28956717,39.051755 5.6714,38.95133 C5.0949903,38.8520582 4.53660424,38.6673945 4.01466,38.40343 C3.4975017,38.1416527 3.02581177,37.7984029 2.61766,37.38683 C2.20360033,36.9801053 1.85887673,36.508374 1.59715,35.99033 C1.33253926,35.4689191 1.14941288,34.9100296 1.05415,34.33313 C0.951274358,33.7132449 0.895614374,33.0864432 0.88765,32.45813 C0.88131,32.24723 0.87301,31.54503 0.87301,31.54503 L0.87301,8.44447 C0.87301,8.44447 0.88185,7.75306 0.8877,7.54993 C0.895325827,6.92261205 0.950662148,6.2967831 1.05323,5.67786 C1.14866872,5.09938008 1.33193687,4.53887887 1.59669,4.01576 C1.85745482,3.49807385 2.20026458,3.02599029 2.61183,2.61781 C3.02293283,2.20575142 3.49613161,1.86073412 4.01417,1.59534 C4.53491467,1.3322236 5.09224545,1.14886255 5.66749,1.0514 C6.28768733,0.949966139 6.91461084,0.895126084 7.543,0.88734 L8.44532,0.87513 L111.21387,0.87513 L112.12697,0.88783 C112.749643,0.895229198 113.370872,0.949580006 113.98537,1.05042 C114.566438,1.14910507 115.129577,1.33374553 115.65627,1.59827 C116.694088,2.13311605 117.538542,2.97929295 118.07127,4.0182 C118.331797,4.53770756 118.512239,5.09363676 118.60647,5.66712 C118.710259,6.29112138 118.768347,6.92186834 118.78027,7.55433 C118.78317,7.83753 118.78317,8.14173 118.78317,8.44447 C118.79107,8.81947 118.79107,9.1764 118.79107,9.53626 L118.79107,30.46493 C118.79107,30.82823 118.79107,31.18273 118.78317,31.54013 C118.78317,31.86533 118.78317,32.16323 118.77927,32.46983 C118.767605,33.0910057 118.710486,33.7104942 118.60837,34.32333 C118.51506,34.9043912 118.33293,35.4676431 118.06837,35.99333 C117.804793,36.5057511 117.462049,36.9733962 117.05277,37.37903 C116.644251,37.7928146 116.171729,38.1380727 115.65337,38.40153 C115.128136,38.6675237 114.565826,38.8528703 113.98537,38.95133 C113.36725,39.052291 112.742435,39.1068102 112.11617,39.11443 C111.82327,39.12123 111.51657,39.12513 111.21877,39.12513 L110.13477,39.12713 L8.44483,39.12513 Z" fill="#FFFFFF"></path>
                </g>
                <g id="_Group_" transform="translate(9.609053, 7.847050)" fill="#000000">
                    <g id="_Group_2" transform="translate(0.000000, 0.000000)">
                        <g id="_Group_3" transform="translate(0.000000, -0.000000)">
                            <path d="M15.3876575,12.04243 C15.4103877,10.2782765 16.3352575,8.6487359 17.8382375,7.72472 C16.8857679,6.364426 15.347637,5.53289052 13.6878475,5.48096 C11.9416075,5.29766 10.2487175,6.52588 9.35884746,6.52588 C8.45177746,6.52588 7.08171746,5.49916 5.60637746,5.52951 C3.66522659,5.59222505 1.89941743,6.6691273 0.955007459,8.36621 C-1.05610254,11.84821 0.444007459,16.9656 2.37051746,19.78021 C3.33439746,21.15844 4.46088746,22.69795 5.93489746,22.64336 C7.37729746,22.58353 7.91600746,21.72359 9.65709746,21.72359 C11.3820375,21.72359 11.8874475,22.64336 13.3913675,22.60865 C14.9391375,22.58353 15.9142875,21.2243 16.8443675,19.83302 C17.5369143,18.8509835 18.0698277,17.7656188 18.4233675,16.61713 C16.5850906,15.8396294 15.3897968,14.038367 15.3876575,12.04243 Z" id="_Path_"></path>
                            <path d="M12.5470575,3.62989 C13.3909684,2.61681521 13.8067332,1.31467511 13.7060575,-1.77635684e-15 C12.416761,0.135414929 11.225812,0.751614252 10.3705075,1.72582 C9.52593246,2.68700609 9.0980731,3.94449544 9.18116746,5.22132 C10.4877458,5.23476935 11.7283136,4.64821519 12.5470575,3.62989 Z" id="_Path_2"></path>
                        </g>
                    </g>
                </g>
            </g>
            <path d="M37.8440381,8.71111633 L35.6816846,14.70013 L36.6611768,14.70013 L37.202,13.08213 L39.491,13.08213 L40.0312939,14.70013 L41.0107861,14.70013 L38.852583,8.71111633 L38.3835889,8.71111633 L37.8440381,8.71111633 Z M38.383,9.76213 L39.242,12.33513 L37.452,12.33513 L38.3130322,9.76116516 L38.383,9.76213 Z M43.6949463,14.70013 L45.3218994,10.1928058 L44.37146,10.1928058 L43.2508545,13.7870441 L43.1844482,13.7870441 L42.0596924,10.1928058 L41.1009521,10.1928058 L42.7320557,14.70013 L43.6949463,14.70013 Z M47.4125537,14.774837 C47.6117725,14.774837 47.7957731,14.7471678 47.9645557,14.6918292 C48.1333382,14.6364907 48.2841357,14.5555581 48.4169482,14.4490314 C48.5497607,14.3425047 48.6604378,14.2131508 48.7489795,14.0609698 L48.8153857,14.0609698 L48.8153857,14.70013 L49.7118701,14.70013 L49.7118701,11.6163898 C49.7118701,11.3009601 49.6433887,11.030493 49.5064258,10.8049884 C49.3694629,10.5794838 49.1688607,10.4065509 48.9046191,10.2861896 C48.6403776,10.1658282 48.3187223,10.1056476 47.9396533,10.1056476 C47.5993213,10.1056476 47.2970345,10.1568357 47.032793,10.259212 C46.7685514,10.3615883 46.555498,10.5047768 46.3936328,10.6887775 C46.2317676,10.8727781 46.1328499,11.0892902 46.0968799,11.3383136 L46.0927295,11.3673663 L46.9601611,11.3673663 L46.9684619,11.3549152 C47.0210335,11.1944334 47.1268685,11.0699217 47.2859668,10.98138 C47.4450651,10.8928383 47.6505094,10.8485675 47.9022998,10.8485675 C48.2038949,10.8485675 48.4314746,10.914282 48.5850391,11.0457111 C48.7386035,11.1771401 48.8153857,11.3673663 48.8153857,11.6163898 L48.815,12.01313 L47.5993213,12.0853839 C47.0625374,12.118587 46.6481901,12.2493243 46.3562793,12.4775958 C46.0643685,12.7058673 45.9184131,13.0219887 45.9184131,13.4259601 L45.9184131,13.4342609 C45.9184131,13.7054197 45.9834359,13.941992 46.1134814,14.1439777 C46.243527,14.3459633 46.4213021,14.501603 46.6468066,14.6108966 C46.8723112,14.7201902 47.1275602,14.774837 47.4125537,14.774837 Z M47.6532764,14.0568195 C47.4125537,14.0568195 47.213335,13.9980223 47.0556201,13.8804279 C46.8979053,13.7628335 46.8190479,13.6016599 46.8190479,13.3969073 L46.8190479,13.3886066 C46.8190479,13.1866209 46.8923714,13.0295978 47.0390186,12.9175372 C47.1856657,12.8054767 47.4139372,12.7397622 47.723833,12.7203937 L48.815,12.65013 L48.8153857,13.0358234 C48.8153857,13.2295083 48.7655811,13.4031329 48.6659717,13.5566974 C48.5663623,13.7102618 48.4287077,13.8320066 48.2530078,13.9219318 C48.0773079,14.0118569 47.8773975,14.0568195 47.6532764,14.0568195 Z M51.5576514,9.38763 C51.7125993,9.38763 51.8454118,9.33229146 51.9560889,9.22161437 C52.066766,9.11093729 52.1221045,8.97812479 52.1221045,8.82317687 C52.1221045,8.66822896 52.066766,8.53610819 51.9560889,8.42681457 C51.8454118,8.31752095 51.7125993,8.26287414 51.5576514,8.26287414 C51.4027035,8.26287414 51.269891,8.31752095 51.1592139,8.42681457 C51.0485368,8.53610819 50.9931982,8.66822896 50.9931982,8.82317687 C50.9931982,8.97812479 51.0485368,9.11093729 51.1592139,9.22161437 C51.269891,9.33229146 51.4027035,9.38763 51.5576514,9.38763 Z M52.0058936,14.70013 L52.0058936,10.1928058 L51.1011084,10.1928058 L51.1011084,14.70013 L52.0058936,14.70013 Z M54.3621729,14.70013 L54.3621729,8.42473937 L53.4615381,8.42473937 L53.4615381,14.70013 L54.3621729,14.70013 Z M57.046333,14.774837 C57.2455518,14.774837 57.4295524,14.7471678 57.598335,14.6918292 C57.7671175,14.6364907 57.917915,14.5555581 58.0507275,14.4490314 C58.18354,14.3425047 58.2942171,14.2131508 58.3827588,14.0609698 L58.449165,14.0609698 L58.449165,14.70013 L59.3456494,14.70013 L59.3456494,11.6163898 C59.3456494,11.3009601 59.277168,11.030493 59.1402051,10.8049884 C59.0032422,10.5794838 58.80264,10.4065509 58.5383984,10.2861896 C58.2741569,10.1658282 57.9525016,10.1056476 57.5734326,10.1056476 C57.2331006,10.1056476 56.9308138,10.1568357 56.6665723,10.259212 C56.4023307,10.3615883 56.1892773,10.5047768 56.0274121,10.6887775 C55.8655469,10.8727781 55.7666292,11.0892902 55.7306592,11.3383136 L55.7265088,11.3673663 L56.5939404,11.3673663 L56.6022412,11.3549152 C56.6548128,11.1944334 56.7606478,11.0699217 56.9197461,10.98138 C57.0788444,10.8928383 57.2842887,10.8485675 57.5360791,10.8485675 C57.8376742,10.8485675 58.0652539,10.914282 58.2188184,11.0457111 C58.3723828,11.1771401 58.449165,11.3673663 58.449165,11.6163898 L58.449,12.01313 L57.2331006,12.0853839 C56.6963167,12.118587 56.2819694,12.2493243 55.9900586,12.4775958 C55.6981478,12.7058673 55.5521924,13.0219887 55.5521924,13.4259601 L55.5521924,13.4342609 C55.5521924,13.7054197 55.6172152,13.941992 55.7472607,14.1439777 C55.8773063,14.3459633 56.0550814,14.501603 56.2805859,14.6108966 C56.5060905,14.7201902 56.7613395,14.774837 57.046333,14.774837 Z M57.2870557,14.0568195 C57.046333,14.0568195 56.8471143,13.9980223 56.6893994,13.8804279 C56.5316846,13.7628335 56.4528271,13.6016599 56.4528271,13.3969073 L56.4528271,13.3886066 C56.4528271,13.1866209 56.5261507,13.0295978 56.6727979,12.9175372 C56.819445,12.8054767 57.0477165,12.7397622 57.3576123,12.7203937 L58.449,12.65013 L58.449165,13.0358234 C58.449165,13.2295083 58.3993604,13.4031329 58.299751,13.5566974 C58.2001416,13.7102618 58.062487,13.8320066 57.8867871,13.9219318 C57.7110872,14.0118569 57.5111768,14.0568195 57.2870557,14.0568195 Z M63.1213623,14.774837 C63.5004313,14.774837 63.8296956,14.6800698 64.1091553,14.4905353 C64.3886149,14.3010008 64.605127,14.0319171 64.7586914,13.6832843 C64.9122559,13.3346515 64.9890381,12.9237628 64.9890381,12.4506183 L64.9890381,12.4423175 C64.9890381,11.966406 64.9129476,11.5541339 64.7607666,11.2055011 C64.6085856,10.8568683 64.3927653,10.5877846 64.1133057,10.3982501 C63.833846,10.2087156 63.5031982,10.1139484 63.1213623,10.1139484 C62.8114665,10.1139484 62.5326986,10.1851967 62.2850586,10.3276935 C62.0374186,10.4701902 61.8541097,10.6631834 61.7351318,10.906673 L61.6645752,10.906673 L61.6645752,8.42473937 L60.7639404,8.42473937 L60.7639404,14.70013 L61.6645752,14.70013 L61.6645752,13.9904132 L61.7351318,13.9904132 C61.8679443,14.2366697 62.0533285,14.4289711 62.2912842,14.5673175 C62.5292399,14.7056639 62.8059326,14.774837 63.1213623,14.774837 Z M62.8640381,14.0028644 C62.6150146,14.0028644 62.3991943,13.9406085 62.2165771,13.8160968 C62.03396,13.6915851 61.8942301,13.5124265 61.7973877,13.2786212 C61.7005452,13.0448159 61.652124,12.7688149 61.652124,12.4506183 L61.652124,12.4423175 C61.652124,12.121354 61.7005452,11.8446612 61.7973877,11.6122394 C61.8942301,11.3798175 62.03396,11.200659 62.2165771,11.0747638 C62.3991943,10.9488686 62.6150146,10.885921 62.8640381,10.885921 C63.1158285,10.885921 63.3316488,10.9488686 63.511499,11.0747638 C63.6913493,11.200659 63.8290039,11.3791258 63.9244629,11.6101642 C64.0199219,11.8412026 64.0676514,12.118587 64.0676514,12.4423175 L64.0676514,12.4506183 C64.0676514,12.7715818 64.0199219,13.0482745 63.9244629,13.2806964 C63.8290039,13.5131183 63.6913493,13.6915851 63.511499,13.8160968 C63.3316488,13.9406085 63.1158285,14.0028644 62.8640381,14.0028644 Z M67.1087451,14.70013 L67.1087451,8.42473937 L66.2081104,8.42473937 L66.2081104,14.70013 L67.1087451,14.70013 Z M70.448667,14.7872882 C70.7391943,14.7872882 70.9958268,14.7499347 71.2185645,14.6752277 C71.4413021,14.6005206 71.6322201,14.5022947 71.7913184,14.3805499 C71.9504167,14.2588051 72.078387,14.1239174 72.1752295,13.9758868 C72.2720719,13.8278562 72.3398617,13.6791339 72.3785986,13.5297198 L72.3868994,13.4923663 L71.5153174,13.4923663 L71.4987158,13.5255695 C71.4655127,13.6030434 71.4039486,13.6819008 71.3140234,13.7621417 C71.2240983,13.8423826 71.1092708,13.9094806 70.969541,13.9634357 C70.8298112,14.0173907 70.6631038,14.0443683 70.4694189,14.0443683 C70.2176286,14.0443683 69.9997331,13.9890297 69.8157324,13.8783527 C69.6317318,13.7676756 69.4899268,13.6071938 69.3903174,13.3969073 C69.3106299,13.2286782 69.2628174,13.0330011 69.2468799,12.8098761 L69.242,12.68313 L72.4325537,12.6830402 L72.4325537,12.3676105 C72.4325537,11.9138344 72.3509294,11.5174721 72.1876807,11.1785236 C72.024432,10.839575 71.7913184,10.5760252 71.4883398,10.3878741 C71.1853613,10.1997231 70.8235856,10.1056476 70.4030127,10.1056476 C69.9852067,10.1056476 69.6206641,10.2038735 69.3093848,10.4003253 C68.9981055,10.5967771 68.7573828,10.8707029 68.5872168,11.2221027 C68.4170508,11.5735024 68.3319678,11.9843911 68.3319678,12.4547687 L68.3319678,12.4589191 C68.3319678,12.9348305 68.4170508,13.3471027 68.5872168,13.6957355 C68.7573828,14.0443683 69.0001807,14.3134519 69.3156104,14.5029864 C69.63104,14.692521 70.0087256,14.7872882 70.448667,14.7872882 Z M71.541,12.04013 L69.252,12.04013 L69.2651416,11.9276691 C69.2893799,11.7649737 69.3317969,11.6197101 69.3923926,11.491878 C69.4933854,11.2788247 69.6317318,11.1176512 69.8074316,11.0083575 C69.9831315,10.8990639 70.183042,10.8444171 70.4071631,10.8444171 C70.6312842,10.8444171 70.8291195,10.8969887 71.0006689,11.002132 C71.1722184,11.1072752 71.3071061,11.2656818 71.405332,11.4773517 C71.4642676,11.6043536 71.5055225,11.7510284 71.5290967,11.9173761 L71.541,12.04013 Z M77.9419873,14.7872882 C78.3846956,14.7872882 78.7644564,14.6932127 79.0812695,14.5050616 C79.3980827,14.3169106 79.6429557,14.0478269 79.8158887,13.6978107 C79.9888216,13.3477944 80.0752881,12.9320636 80.0752881,12.4506183 L80.0752881,12.4423175 C80.0752881,11.9581053 79.9888216,11.540991 79.8158887,11.1909747 C79.6429557,10.8409585 79.397391,10.5725665 79.0791943,10.3857989 C78.7609977,10.1990314 78.3819287,10.1056476 77.9419873,10.1056476 C77.5048128,10.1056476 77.1264355,10.1997231 76.8068555,10.3878741 C76.4872754,10.5760252 76.2410189,10.8444171 76.0680859,11.1930499 C75.895153,11.5416827 75.8086865,11.9581053 75.8086865,12.4423175 L75.8086865,12.4506183 C75.8086865,12.9320636 75.8944613,13.3477944 76.0660107,13.6978107 C76.2375602,14.0478269 76.483125,14.3169106 76.8027051,14.5050616 C77.1222852,14.6932127 77.5020459,14.7872882 77.9419873,14.7872882 Z M77.9419873,14.0319171 C77.6846631,14.0319171 77.4660758,13.9689695 77.2862256,13.8430743 C77.1063753,13.7171792 76.9687207,13.5366372 76.8732617,13.3014484 C76.7778027,13.0662596 76.7300732,12.7826495 76.7300732,12.4506183 L76.7300732,12.4423175 C76.7300732,12.1075193 76.7778027,11.8225258 76.8732617,11.587337 C76.9687207,11.3521482 77.1063753,11.1716062 77.2862256,11.0457111 C77.4660758,10.9198159 77.6846631,10.8568683 77.9419873,10.8568683 C78.1993115,10.8568683 78.4178988,10.9198159 78.597749,11.0457111 C78.7775993,11.1716062 78.9145622,11.3521482 79.0086377,11.587337 C79.1027132,11.8225258 79.149751,12.1075193 79.149751,12.4423175 L79.149751,12.4506183 C79.149751,12.7826495 79.1027132,13.0662596 79.0086377,13.3014484 C78.9145622,13.5366372 78.7775993,13.7171792 78.597749,13.8430743 C78.4178988,13.9689695 78.1993115,14.0319171 77.9419873,14.0319171 Z M82.1534912,14.70013 L82.1534912,12.0563312 C82.1534912,11.8128416 82.1970703,11.6032469 82.2842285,11.427547 C82.3713867,11.2518471 82.4952067,11.1162677 82.6556885,11.0208087 C82.8161702,10.9253497 83.0057048,10.8776202 83.224292,10.8776202 C83.5563232,10.8776202 83.8005046,10.9696206 83.9568359,11.1536212 C84.1131673,11.3376219 84.191333,11.6177732 84.191333,11.9940753 L84.191333,14.70013 L85.0961182,14.70013 L85.0961182,11.7824054 C85.0961182,11.2456215 84.9619222,10.8319659 84.6935303,10.5414386 C84.4251383,10.2509112 84.0377686,10.1056476 83.5314209,10.1056476 C83.2021566,10.1056476 82.9296143,10.1734373 82.7137939,10.3090167 C82.4979736,10.4445961 82.3347249,10.6327472 82.2240479,10.8734698 L82.1534912,10.8734698 L82.1534912,10.1928058 L81.2528564,10.1928058 L81.2528564,14.70013 L82.1534912,14.70013 Z" id="Availableon" fill="#000000"></path>
            <path d="M40.3027344,30.50013 L40.3027344,19.7665362 L44.1957031,19.7665362 L44.1957031,18.0993487 L34.4761719,18.0993487 L34.4761719,19.7665362 L38.3691406,19.7665362 L38.3691406,30.50013 L40.3027344,30.50013 Z M47.5558594,30.6805987 C48.1516927,30.6805987 48.6802083,30.603255 49.1414062,30.4485675 C49.6026042,30.29388 49.9979167,30.0904946 50.3273437,29.8384113 C50.6567708,29.5863279 50.9217448,29.307031 51.1222656,29.0005206 C51.3227865,28.6940102 51.463151,28.3860675 51.5433594,28.0766925 L51.5605469,27.9993487 L49.7558594,27.9993487 L49.7214844,28.0680987 C49.6527344,28.2285154 49.5252604,28.3917967 49.3390625,28.5579425 C49.1528646,28.7240883 48.9151042,28.8630206 48.6257812,28.9747394 C48.3364583,29.0864581 47.991276,29.1423175 47.5902344,29.1423175 C47.0746094,29.1423175 46.6263021,29.0277342 46.2453125,28.7985675 C45.8643229,28.5694008 45.5707031,28.2371092 45.3644531,27.8016925 C45.1876674,27.4284782 45.086647,26.9900216 45.0613919,26.4863226 L45.057,26.32413 L51.6550781,26.3235675 L51.6550781,25.6704425 C51.6550781,24.7365883 51.4860677,23.9187498 51.1480469,23.2169269 C50.810026,22.515104 50.3273437,21.9694008 49.7,21.5798175 C49.0726562,21.1902342 48.3235677,20.9954425 47.4527344,20.9954425 C46.5876302,20.9954425 45.8342448,21.1988279 45.1925781,21.6055987 C44.5509115,22.0123696 44.0539062,22.5795571 43.7015625,23.3071613 C43.3492187,24.0347654 43.1730469,24.8855467 43.1730469,25.859505 L43.1730469,25.8680987 C43.1730469,26.8477862 43.3492187,27.6985675 43.7015625,28.4204425 C44.0539062,29.1423175 44.5566406,29.699479 45.2097656,30.0919269 C45.8628906,30.4843748 46.6449219,30.6805987 47.5558594,30.6805987 Z M49.812,24.99213 L45.078,24.99213 L45.080684,24.9645273 C45.1233604,24.5471166 45.2193824,24.1808592 45.36875,23.865755 C45.5778646,23.4246092 45.8643229,23.0908852 46.228125,22.8645831 C46.5919271,22.638281 47.0058594,22.52513 47.4699219,22.52513 C47.9339844,22.52513 48.3436198,22.6339842 48.6988281,22.8516925 C49.0540365,23.0694008 49.331901,23.3959633 49.5324219,23.83138 C49.6577474,24.1035154 49.7439087,24.4215289 49.7909058,24.7854205 L49.812,24.99213 Z M56.2699219,30.6805987 C57.0089844,30.6805987 57.6692708,30.558854 58.2507812,30.3153644 C58.8322917,30.0718748 59.2920573,29.7324217 59.6300781,29.297005 C59.968099,28.8615883 60.1371094,28.3545571 60.1371094,27.7759113 L60.1371094,27.7587237 C60.1371094,27.0826821 59.919401,26.5441404 59.4839844,26.1430988 C59.0485677,25.7420571 58.3811198,25.4384113 57.4816406,25.2321612 L56.0035156,24.8884112 C55.4821615,24.7680987 55.106901,24.6134112 54.8777344,24.4243488 C54.6485677,24.2352862 54.5339844,23.9946613 54.5339844,23.7024737 L54.5339844,23.6852862 C54.5339844,23.4332029 54.6098958,23.2140623 54.7617187,23.0278644 C54.9135417,22.8416665 55.1197917,22.6955727 55.3804687,22.5895831 C55.6411458,22.4835935 55.9404948,22.4305987 56.2785156,22.4305987 C56.8113281,22.4305987 57.238151,22.5394529 57.5589844,22.7571612 C57.8798177,22.9748696 58.0832031,23.2498696 58.1691406,23.5821612 L58.1691406,23.5993487 L59.9566406,23.5993487 L59.9566406,23.5821612 C59.899349,23.0779946 59.7174479,22.6311196 59.4109375,22.2415362 C59.1044271,21.8519529 58.6861979,21.5468748 58.15625,21.3263019 C57.6263021,21.105729 57.0032552,20.9954425 56.2871094,20.9954425 C55.588151,20.9954425 54.9651042,21.1143227 54.4179687,21.3520831 C53.8708333,21.5898435 53.4425781,21.9192706 53.1332031,22.3403644 C52.8238281,22.7614581 52.6691406,23.2441404 52.6691406,23.7884112 L52.6691406,23.797005 C52.6691406,24.4730467 52.8796875,25.0201821 53.3007812,25.4384112 C53.721875,25.8566404 54.3707031,26.1660154 55.2472656,26.3665362 L56.7339844,26.7102862 C57.272526,26.8363279 57.6592448,26.9981769 57.8941406,27.1958331 C58.1290365,27.3934894 58.2464844,27.6412758 58.2464844,27.9391925 L58.2464844,27.9477863 C58.2464844,28.2055988 58.1634115,28.4304685 57.9972656,28.6223956 C57.8311198,28.8143227 57.6033854,28.9647133 57.3140625,29.0735675 C57.0247396,29.1824217 56.688151,29.2368488 56.3042969,29.2368488 C55.7485677,29.2368488 55.303125,29.1279946 54.9679687,28.9102862 C54.6328125,28.6925779 54.4050781,28.4061196 54.2847656,28.0509112 L54.2847656,28.0423175 L52.4113281,28.0423175 L52.4113281,28.059505 C52.4686198,28.5808592 52.6605469,29.0377602 52.9871094,29.4302081 C53.3136719,29.822656 53.7548177,30.1291665 54.3105469,30.3497394 C54.866276,30.5703123 55.519401,30.6805987 56.2699219,30.6805987 Z M64.8035156,30.5602862 C64.986849,30.5602862 65.1644531,30.5502602 65.3363281,30.5302081 C65.5082031,30.510156 65.6657552,30.4886717 65.8089844,30.465755 L65.8089844,28.9790363 C65.6829427,28.9904946 65.5697917,28.9990883 65.4695312,29.0048175 C65.3692708,29.0105467 65.2503906,29.0134112 65.1128906,29.0134112 C64.6545573,29.0134112 64.3236979,28.9031248 64.1203125,28.6825519 C63.9169271,28.461979 63.8152344,28.1024738 63.8152344,27.6040363 L63.8152344,22.6454425 L65.8089844,22.6454425 L65.8089844,21.1759112 L63.8152344,21.1759112 L63.8152344,18.8212237 L61.9074219,18.8212237 L61.9074219,21.1759112 L60.4550781,21.1759112 L60.4550781,22.6454425 L61.9074219,22.6454425 L61.9074219,28.0423175 C61.9074219,28.9360675 62.1351562,29.5791665 62.590625,29.9716144 C63.0460937,30.3640623 63.783724,30.5602862 64.8035156,30.5602862 Z M69.1347656,30.50013 L69.1347656,25.309505 L74.4628906,25.309505 L74.4628906,23.6852862 L69.1347656,23.6852862 L69.1347656,19.7665362 L74.9527344,19.7665362 L74.9527344,18.0993487 L67.2011719,18.0993487 L67.2011719,30.50013 L69.1347656,30.50013 Z M78.1753906,30.50013 L78.1753906,17.5235675 L76.3105469,17.5235675 L76.3105469,30.50013 L78.1753906,30.50013 Z M80.9167969,19.5173175 C81.2376302,19.5173175 81.5126302,19.4027342 81.7417969,19.1735675 C81.9709635,18.9444008 82.0855469,18.6722654 82.0855469,18.3571612 C82.0855469,18.0305987 81.9709635,17.7541665 81.7417969,17.5278644 C81.5126302,17.3015623 81.2376302,17.1884112 80.9167969,17.1884112 C80.5959635,17.1884112 80.3209635,17.3015623 80.0917969,17.5278644 C79.8626302,17.7541665 79.7480469,18.0305987 79.7480469,18.3571612 C79.7480469,18.6722654 79.8626302,18.9444008 80.0917969,19.1735675 C80.3209635,19.4027342 80.5959635,19.5173175 80.9167969,19.5173175 Z M81.8363281,30.50013 L81.8363281,21.1759112 L79.9714844,21.1759112 L79.9714844,30.50013 L81.8363281,30.50013 Z M87.4996094,33.7829425 C88.381901,33.7829425 89.1467448,33.6411456 89.7941406,33.3575519 C90.4415365,33.0739581 90.9414062,32.6714842 91.29375,32.15013 C91.6460937,31.6287758 91.8222656,31.015755 91.8222656,30.3110675 L91.8222656,21.1759112 L89.9574219,21.1759112 L89.9574219,22.7055988 L89.8457031,22.7055988 C89.668099,22.3561196 89.4389323,22.0553383 89.1582031,21.803255 C88.877474,21.5511717 88.553776,21.35638 88.1871094,21.21888 C87.8204427,21.08138 87.419401,21.01263 86.9839844,21.01263 C86.181901,21.01263 85.4886719,21.2059894 84.9042969,21.5927081 C84.3199219,21.9794269 83.8701823,22.5136717 83.5550781,23.1954425 C83.239974,23.8772133 83.0824219,24.6649737 83.0824219,25.5587237 L83.0824219,25.5759112 C83.0824219,26.4524737 83.2385417,27.2273435 83.5507812,27.9005206 C83.8630208,28.5736977 84.3084635,29.100781 84.8871094,29.4817706 C85.4657552,29.8627602 86.1532552,30.053255 86.9496094,30.053255 C87.3792969,30.053255 87.777474,29.9930988 88.1441406,29.8727862 C88.5108073,29.7524738 88.8359375,29.5734373 89.1195312,29.3356769 C89.403125,29.0979165 89.6394531,28.8128904 89.8285156,28.4805987 L89.9660156,28.4805987 L89.9660156,30.29388 C89.9660156,30.9298175 89.7511719,31.4210935 89.3214844,31.7677081 C88.8917969,32.1143227 88.2902344,32.28763 87.5167969,32.28763 C86.8923177,32.28763 86.3938802,32.1859373 86.0214844,31.9825519 C85.6490885,31.7791665 85.425651,31.5170571 85.3511719,31.1962237 L85.3425781,31.1790362 L83.4519531,31.1790362 L83.4433594,31.1962237 C83.5178385,31.7118487 83.7240885,32.1644529 84.0621094,32.5540362 C84.4001302,32.9436196 84.8598958,33.2458331 85.4414062,33.4606769 C86.0229167,33.6755206 86.7089844,33.7829425 87.4996094,33.7829425 Z M87.4652344,28.5149737 C86.938151,28.5149737 86.491276,28.3903644 86.1246094,28.1411456 C85.7579427,27.8919269 85.4772135,27.5467446 85.2824219,27.1055987 C85.0876302,26.6644529 84.9902344,26.1516925 84.9902344,25.5673175 L84.9902344,25.55013 C84.9902344,24.9714842 85.0876302,24.460156 85.2824219,24.0161456 C85.4772135,23.5721352 85.7579427,23.2240883 86.1246094,22.972005 C86.491276,22.7199217 86.938151,22.59388 87.4652344,22.59388 C87.9923177,22.59388 88.4449219,22.7199217 88.8230469,22.972005 C89.2011719,23.2240883 89.4919271,23.5735675 89.6953125,24.0204425 C89.8986979,24.4673175 90.0003906,24.9800779 90.0003906,25.5587237 L90.0003906,25.5759112 C90.0003906,26.1545571 89.8986979,26.6644529 89.6953125,27.1055987 C89.4919271,27.5467446 89.2011719,27.8919269 88.8230469,28.1411456 C88.4449219,28.3903644 87.9923177,28.5149737 87.4652344,28.5149737 Z M95.4574219,30.50013 L95.4574219,25.0259113 C95.4574219,24.5274737 95.5476562,24.096354 95.728125,23.7325519 C95.9085937,23.3687498 96.1635417,23.0880206 96.4929687,22.8903644 C96.8223958,22.6927081 97.2134115,22.59388 97.6660156,22.59388 C98.3535156,22.59388 98.8605469,22.7858071 99.1871094,23.1696612 C99.5136719,23.5535154 99.6769531,24.1321612 99.6769531,24.9055987 L99.6769531,30.50013 L101.541797,30.50013 L101.541797,24.4673175 C101.541797,23.728255 101.417187,23.1009112 101.167969,22.5852862 C100.91875,22.0696612 100.553516,21.675781 100.072266,21.4036456 C99.5910156,21.1315102 99.0009115,20.9954425 98.3019531,20.9954425 C97.6259115,20.9954425 97.0630208,21.1358071 96.6132812,21.4165363 C96.1635417,21.6972654 95.8240885,22.0897133 95.5949219,22.59388 L95.4574219,22.59388 L95.4574219,17.5235675 L93.5925781,17.5235675 L93.5925781,30.50013 L95.4574219,30.50013 Z M106.655078,30.5602862 C106.838411,30.5602862 107.016016,30.5502602 107.187891,30.5302081 C107.359766,30.510156 107.517318,30.4886717 107.660547,30.465755 L107.660547,28.9790363 C107.534505,28.9904946 107.421354,28.9990883 107.321094,29.0048175 C107.220833,29.0105467 107.101953,29.0134112 106.964453,29.0134112 C106.50612,29.0134112 106.17526,28.9031248 105.971875,28.6825519 C105.76849,28.461979 105.666797,28.1024738 105.666797,27.6040363 L105.666797,22.6454425 L107.660547,22.6454425 L107.660547,21.1759112 L105.666797,21.1759112 L105.666797,18.8212237 L103.758984,18.8212237 L103.758984,21.1759112 L102.306641,21.1759112 L102.306641,22.6454425 L103.758984,22.6454425 L103.758984,28.0423175 C103.758984,28.9360675 103.986719,29.5791665 104.442187,29.9716144 C104.897656,30.3640623 105.635286,30.5602862 106.655078,30.5602862 Z" id="TestFlight" fill="#000000"></path>
        </g>
    </g>
</svg>