<?xml version="1.0" encoding="UTF-8"?>
<svg width="250px" height="250px" viewBox="0 0 250 250" version="1.1" xmlns="http://www.w3.org/2000/svg" xmlns:xlink="http://www.w3.org/1999/xlink">
    <title>Creative Cloud</title>
    <g id="Creative-Cloud" stroke="none" stroke-width="1" fill="none" fill-rule="evenodd" fill-opacity="0.75">
        <g id="CC" transform="translate(0.000000, 31.000000)" fill="#141414" fill-rule="nonzero">
            <path d="M214.872945,151.352175 C199.925262,166.987818 179.372197,175.550194 158.071749,175.550194 C136.397608,175.177917 115.844544,166.243264 100.896861,150.60762 L64.2750374,114.496729 C59.7907324,109.657125 59.7907324,102.211581 64.6487294,97.7442539 C66.8908819,95.5105905 69.8804185,94.3937588 72.8699552,94.3937588 C76.2331839,94.3937588 79.2227205,95.5105905 81.4648729,98.1165311 L117.713004,134.227422 C128.176383,145.395739 142.750374,151.724452 158.071749,152.096729 C173.393124,152.096729 187.593423,145.768016 198.056801,134.971977 C208.893871,124.175937 214.872945,109.284848 214.872945,94.0214816 C214.872945,62.7501945 189.461883,37.435343 158.071749,37.435343 C146.860987,37.0630658 135.650224,40.0412836 126.681614,46.7422737 C126.681614,46.7422737 124.06577,44.8808875 121.076233,43.0195014 C119.207773,41.9026697 117.339312,40.785838 115.844544,40.0412836 C113.976084,38.9244519 109.118087,36.6907885 106.12855,35.5739569 C105.381166,35.2016796 104.633782,34.8294024 103.886398,34.8294024 L103.886398,34.8294024 C118.460389,21.055145 137.892377,13.6096004 158.071749,13.9818776 C202.541106,13.9818776 238.789238,50.0927687 238.789238,94.3937588 C238.415546,115.613561 229.820628,136.088808 214.872945,151.352175 M78.4753363,175.177917 C41.8535127,175.177917 11.9581465,145.395739 11.9581465,108.912571 C11.9581465,72.4294024 41.4798206,43.0195014 78.1016442,43.0195014 C94.5440957,43.0195014 110.239163,48.975937 122.197309,59.7719767 L122.571001,60.1442539 L150.224215,88.065046 C152.466368,90.2987093 153.587444,93.2769271 153.587444,96.6274222 C153.587444,99.60564 152.092676,102.583858 149.850523,104.817521 C147.608371,107.051185 144.618834,108.168016 141.629297,108.168016 C138.266069,108.168016 135.276532,107.051185 133.03438,104.445244 L105.754858,76.5244519 C97.9073244,69.8234618 88.1913303,66.4729668 78.1016442,66.4729668 C54.5590433,66.4729668 35.8744395,85.4591054 35.5007474,108.540293 C36.2481315,131.993759 55.3064275,150.979897 79.2227205,151.352175 L84.8281016,151.352175 L84.8281016,151.352175 C92.6756353,162.148214 114.349776,175.177917 114.349776,175.177917 L78.4753363,175.177917 Z M224.215247,30.3620757 C206.651719,11.375937 181.988042,0.952174673 156.203288,0.952174673 C130.792227,0.952174673 106.875934,11.0036598 88.9387145,29.245244 C85.9491779,28.8729668 82.9596413,28.8729668 79.9701046,28.8729668 C35.8744395,28.8729668 0.373692078,64.6115806 0,108.540293 C0,129.387818 8.22122571,149.118511 22.4215247,164.0096 C37.3692078,180.017521 57.922272,188.952175 79.9701046,188.952175 L156.203288,188.952175 C208.146487,188.579897 250,146.512571 250,94.7660361 C250,70.5680163 240.657698,47.8591054 224.215247,30.3620757" id="Shape"></path>
        </g>
    </g>
</svg>