<?xml version="1.0" encoding="UTF-8"?>
<svg width="250px" height="250px" viewBox="0 0 250 250" version="1.1" xmlns="http://www.w3.org/2000/svg" xmlns:xlink="http://www.w3.org/1999/xlink">
    <title>docker</title>
    <g id="docker" stroke="none" stroke-width="1" fill="none" fill-rule="evenodd">
        <g id="docker-icon-svgrepo-com" transform="translate(0, 35)" fill="#1D63ED" fill-rule="nonzero">
            <path d="M244.839595,68.6874154 C239.210061,64.7902574 226.309047,63.328823 216.222799,65.2774017 C215.049979,55.5345061 209.65501,47.0094723 200.272454,39.4587281 L194.877484,35.5615697 L191.124462,41.1637348 C186.433184,48.4709067 184.087545,58.7009472 184.791236,68.4438432 C185.025801,71.8538569 186.19862,77.9431663 189.717079,83.3017593 C186.433184,85.2503387 179.630831,87.6860623 170.717403,87.6860623 L1.12770506,87.6860623 L0.658577248,89.6346416 C-0.983370051,99.3775366 -0.983370051,129.824087 18.2508695,153.207037 C32.7938312,170.987822 54.3737098,180 82.7559416,180 C144.211683,180 189.717079,150.52774 211.062394,97.1853855 C219.506693,97.4289583 237.568113,97.1853855 246.716105,78.9174564 C246.95067,78.4303114 247.419797,77.4560213 249.061745,73.8024355 L250,71.8538569 L244.839595,68.6874154 L244.839595,68.6874154 Z M136.705638,0 L110.903608,0 L110.903608,24.3572395 L136.705638,24.3572395 L136.705638,0 L136.705638,0 Z M136.705638,29.2286874 L110.903608,29.2286874 L110.903608,53.5859269 L136.705638,53.5859269 L136.705638,29.2286874 L136.705638,29.2286874 Z M106.212331,29.2286874 L80.4103022,29.2286874 L80.4103022,53.5859269 L106.212331,53.5859269 L106.212331,29.2286874 L106.212331,29.2286874 Z M75.7190248,29.2286874 L49.9169958,29.2286874 L49.9169958,53.5859269 L75.7190248,53.5859269 L75.7190248,29.2286874 L75.7190248,29.2286874 Z M45.2257178,58.4573748 L19.4236891,58.4573748 L19.4236891,82.8146143 L45.2257178,82.8146143 L45.2257178,58.4573748 L45.2257178,58.4573748 Z M75.7190248,58.4573748 L49.9169958,58.4573748 L49.9169958,82.8146143 L75.7190248,82.8146143 L75.7190248,58.4573748 L75.7190248,58.4573748 Z M106.212331,58.4573748 L80.4103022,58.4573748 L80.4103022,82.8146143 L106.212331,82.8146143 L106.212331,58.4573748 L106.212331,58.4573748 Z M136.705638,58.4573748 L110.903608,58.4573748 L110.903608,82.8146143 L136.705638,82.8146143 L136.705638,58.4573748 L136.705638,58.4573748 Z M167.198944,58.4573748 L141.396915,58.4573748 L141.396915,82.8146143 L167.198944,82.8146143 L167.198944,58.4573748 L167.198944,58.4573748 Z" id="Shape"></path>
        </g>
    </g>
</svg>