<?xml version="1.0" encoding="UTF-8"?>
<svg width="250px" height="250px" viewBox="0 0 250 250" version="1.1" xmlns="http://www.w3.org/2000/svg" xmlns:xlink="http://www.w3.org/1999/xlink">
    <title>Firebase</title>
    <g id="Firebase" stroke="none" stroke-width="1" fill="none" fill-rule="evenodd" fill-opacity="0.75">
        <g transform="translate(34.000000, 0.000000)" fill="#141414" fill-rule="nonzero" id="icon">
            <path d="M6.5868304,163.262031 L31.3701116,4.80771567 C31.7465837,2.39316025 33.6262495,0.489514496 36.037812,0.0804670283 C38.4493742,-0.328580441 40.8526358,0.848598286 42.0057368,3.00370866 L68.6516742,52.7204367 L6.5868304,163.262031 Z M182.572299,201.714369 L158.983393,55.8881027 C158.627049,53.7937314 157.130967,52.0728969 155.105081,51.4271638 C153.079195,50.7814307 150.861954,51.3186758 149.357299,52.8198702 L0.572299128,201.714369 L82.8988616,247.837288 C88.0685594,250.720904 94.3651015,250.720904 99.5347992,247.837288 L182.572299,201.714369 Z M115.673081,74.4537494 L96.6057366,38.1889474 C95.622404,36.3216553 93.684309,35.1524828 91.5722993,35.1524828 C89.4602896,35.1524828 87.5221946,36.3216553 86.5388617,38.1889474 L2.81886163,187.339132 L115.673081,74.4537494 Z"></path>
        </g>
    </g>
</svg>