<?xml version="1.0" encoding="UTF-8"?>
<svg width="250px" height="250px" viewBox="0 0 250 250" version="1.1" xmlns="http://www.w3.org/2000/svg" xmlns:xlink="http://www.w3.org/1999/xlink">
    <title>Git</title>
    <defs>
        <polygon id="path-1" points="6.17156434e-15 0 249.003984 0 249.003984 250 6.17156434e-15 250"></polygon>
    </defs>
    <g id="Git" stroke="none" stroke-width="1" fill="none" fill-rule="evenodd">
        <g transform="translate(0.498008, 0.000000)">
            <mask id="mask-2" fill="white">
                <use xlink:href="#path-1"></use>
            </mask>
            <g id="Clip-2"></g>
            <path d="M244.784318,113.86639 L135.63301,4.71572343 C129.350939,-1.57190781 119.156519,-1.57190781 112.863566,4.71572343 L90.2002296,27.3849331 L118.949747,56.1377184 C125.631758,53.8795038 133.295938,55.3949563 138.620326,60.7194454 C143.977362,66.0793041 145.476461,73.8062071 143.163876,80.5128324 L170.87409,108.223574 C177.580587,105.910945 185.312784,107.404631 190.66982,112.769931 C198.151714,120.249247 198.151714,132.375587 190.66982,139.860344 C183.182485,147.347822 171.059097,147.347822 163.569041,139.860344 C157.939936,134.228412 156.549664,125.957361 159.400946,119.024914 L133.554403,93.1806 L133.554403,161.188229 C135.377265,162.091515 137.099461,163.296803 138.620326,164.812255 C146.102219,172.294292 146.102219,184.417911 138.620326,191.91083 C131.138432,199.390146 119.006881,199.390146 111.530429,191.91083 C104.048535,184.417911 104.048535,172.294292 111.530429,164.812255 C113.377776,162.964873 115.521679,161.566412 117.804337,160.630477 L117.804337,91.9916364 C115.521679,91.0584225 113.383218,89.6708448 111.530429,87.8125791 C105.863234,82.1479974 104.500169,73.827973 107.405865,66.8683189 L79.0617302,38.5182031 L4.21558514,113.360332 C-2.06920567,119.653405 -2.06920567,129.848019 4.21558514,136.135651 L113.372335,245.286317 C119.657126,251.571228 129.848825,251.571228 136.144499,245.286317 L244.784318,136.641708 C251.07455,130.354077 251.07455,120.1513 244.784318,113.86639" id="Fill-1" fill-opacity="0.75" fill="#141414" mask="url(#mask-2)"></path>
        </g>
    </g>
</svg>