<?xml version="1.0" encoding="UTF-8"?>
<svg width="250px" height="250px" viewBox="0 0 250 250" version="1.1" xmlns="http://www.w3.org/2000/svg" xmlns:xlink="http://www.w3.org/1999/xlink">
    <title>git</title>
    <g id="git" stroke="none" stroke-width="1" fill="none" fill-rule="evenodd">
        <g id="git-svgrepo-com" fill-rule="nonzero">
            <path d="M5.22643324,137.61798 C-1.74214441,130.649224 -1.74214441,119.350999 5.22643324,112.382243 L112.382243,5.22643324 C119.350999,-1.74214441 130.649224,-1.74214441 137.61798,5.22643324 L244.773433,112.382243 C251.742189,119.350999 251.742189,130.649224 244.773433,137.61798 L137.61798,244.773433 C130.649224,251.742189 119.350999,251.742189 112.382243,244.773433 L5.22643324,137.61798 Z" id="Path" fill="#EE513B"></path>
            <path d="M90.6152595,27.3350244 L79.7643569,38.1862841 L107.790275,66.2122913 C106.656345,68.6446149 106.023309,71.3572959 106.023309,74.2179234 C106.023309,82.3393592 111.125992,89.2688297 118.300106,91.9750821 L118.300106,160.534072 C111.125992,163.240324 106.023309,170.169795 106.023309,178.291231 C106.023309,188.769811 114.517959,197.264462 124.99654,197.264462 C135.475121,197.264462 143.969771,188.769811 143.969771,178.291231 C143.969771,170.928724 139.776018,164.54479 133.646548,161.400144 L133.646548,92.0688322 L160.43675,118.859035 C159.358178,121.242073 158.758177,123.887611 158.758177,126.673327 C158.758177,137.151908 167.252828,145.646559 177.731409,145.646559 C188.209989,145.646559 196.70464,137.151908 196.70464,126.673327 C196.70464,116.194747 188.209989,107.700096 177.731409,107.700096 C175.6948,107.700096 173.734084,108.020632 171.894796,108.614383 L143.122449,79.8420356 C143.673343,78.0652483 143.969771,76.1759609 143.969771,74.2179234 C143.969771,63.7391641 135.475121,55.2445136 124.99654,55.2445136 C123.038503,55.2445136 121.150108,55.5412103 119.372428,56.0920144 L90.6152595,27.3350244 Z" id="Path" fill="#FFFFFF"></path>
        </g>
    </g>
</svg>