<?xml version="1.0" encoding="UTF-8"?>
<svg width="250px" height="250px" viewBox="0 0 250 250" version="1.1" xmlns="http://www.w3.org/2000/svg" xmlns:xlink="http://www.w3.org/1999/xlink">
    <title>github</title>
    <defs>
        <path d="M9.64927199,51.1482036 C11.211772,58.3800925 15.0203657,62.6228006 18.8289595,65.1298554 L58.9656782,65.1298554 C63.8484907,61.8513991 68.8289595,55.6801873 68.8289595,44.1091651 L68.8289595,14.2173578 C68.8289595,14.2173578 69.414897,6.79261858 76.3484907,4.38198896 C76.3484907,4.38198896 80.352397,1.5856586 76.055522,0.0428556377 C76.055522,0.0428556377 57.0125532,-1.49994732 57.0125532,13.9280823 L57.0125532,36.6844259 C57.0125532,36.6844259 57.7938032,45.073417 53.3016157,48.5447236 L53.3016157,20.3885696 C53.3016157,20.3885696 53.5945845,11.4210275 58.2820845,8.04614598 C58.2820845,8.04614598 61.4070845,2.54991044 54.571147,3.99628822 C54.571147,3.99628822 41.4852095,5.82836673 40.899272,20.9671208 L40.6063032,49.8946762 L37.4813032,49.8946762 L37.1883345,20.9671208 C36.602397,5.92479192 23.5164595,3.99628822 23.5164595,3.99628822 C16.680522,2.45348526 19.805522,8.04614598 19.805522,8.04614598 C24.493022,11.4210275 24.7859907,20.3885696 24.7859907,20.3885696 L24.7859907,48.8339992 C20.2938032,45.6519681 21.0750532,36.6844259 21.0750532,36.6844259 L21.0750532,13.9280823 C21.0750532,-1.49994732 2.03208449,0.0428556377 2.03208449,0.0428556377 C-2.36244676,1.5856586 1.73911574,4.38198896 1.73911574,4.38198896 C8.57505324,6.88904376 9.25864699,14.2173578 9.25864699,14.2173578 L9.25864699,35.1416229 L9.64927199,51.1482036 Z" id="path-1"></path>
    </defs>
    <g id="github" stroke="none" stroke-width="1" fill="none" fill-rule="evenodd">
        <g id="github-octocat-svgrepo-com">
            <path d="M196.191406,192.627015 C196.191406,206.030116 164.746094,216.829736 125.976562,216.829736 C87.2070312,216.829736 55.7617187,205.933691 55.7617187,192.627015 C55.7617187,179.223914 87.2070312,168.424294 125.976562,168.424294 C164.746094,168.424294 196.191406,179.223914 196.191406,192.627015 L196.191406,192.627015 Z" id="Path" fill="#9EDCF2" fill-rule="nonzero"></path>
            <g id="Clipped" transform="translate(86.1515, 184.8701)">
                <mask id="mask-2" fill="white">
                    <use xlink:href="#path-1"></use>
                </mask>
                <g id="SVGID_1_"></g>
                <path d="M110.039897,7.75687043 C110.039897,21.1599711 78.5945845,31.9595918 39.8250532,31.9595918 C1.05552199,31.9595918 -30.3897905,21.0635459 -30.3897905,7.75687043 C-30.3897905,-5.64623027 1.05552199,-16.445851 39.8250532,-16.445851 C78.5945845,-16.445851 110.039897,-5.64623027 110.039897,7.75687043 L110.039897,7.75687043 Z" id="Path" fill="#7DBCE7" fill-rule="nonzero" mask="url(#mask-2)"></path>
            </g>
            <path d="M45.8007813,121.368803 L43.75,128.311417 C43.75,128.311417 43.2617188,130.818471 45.6054688,131.300597 C48.1445313,131.204172 47.9492188,128.889968 47.7539063,128.214991 L45.8007813,121.368803 L45.8007813,121.368803 Z" id="Path" fill="#9EDCF2" fill-rule="nonzero"></path>
            <path d="M249.804688,92.1519723 L250,91.2841457 C229.394531,87.2342879 208.300781,87.1378627 195.507812,87.7164138 C197.558594,80.2916746 198.242188,71.613408 198.242188,62.0673147 C198.242188,48.2785132 192.96875,37.2860421 184.570312,28.9934762 C186.035156,24.2686422 187.988281,13.758297 182.617188,0.355196337 C182.617188,0.355196337 173.046875,-2.63398439 151.269531,11.7333682 C142.773438,9.61201409 133.691406,8.55133705 124.609375,8.55133705 C114.648438,8.55133705 104.589844,9.80486446 95.1171875,12.3119193 C72.65625,-2.82683476 62.7929688,0.258771152 62.7929688,0.258771152 C56.3476562,16.1689267 60.3515625,28.0292244 61.5234375,30.9219799 C53.90625,39.0216955 49.3164062,49.3391903 49.3164062,61.9708895 C49.3164062,71.5169828 50.390625,80.0988242 53.125,87.5235635 C40.234375,87.0414375 19.921875,87.2342879 0,91.1877205 L0.1953125,92.0555472 C20.1171875,88.1021146 40.625,88.0056894 53.4179688,88.4878153 C54.0039063,90.0306183 54.6875,91.5734212 55.3710938,93.019799 C42.6757812,93.4054997 21.09375,95.0447279 0.390625,100.830239 L0.68359375,101.698066 C21.5820313,95.9125546 43.359375,94.3697516 55.9570313,93.9840509 C63.5742188,107.869277 78.4179688,116.933245 104.980469,119.729575 C101.171875,122.23663 97.3632812,126.479338 95.8007812,133.711227 C90.625,136.121857 74.4140625,142.100218 64.6484375,125.515086 C64.6484375,125.515086 59.1796875,115.679717 48.7304687,114.908316 C48.7304687,114.908316 38.5742187,114.715466 48.046875,121.175953 C48.046875,121.175953 54.7851562,124.357984 59.4726562,136.218282 C59.4726562,136.218282 65.625,156.467571 95.0195312,149.910658 L95.0195312,170.642073 C95.0195312,170.642073 94.4335937,178.066812 87.5,180.477442 C87.5,180.477442 83.3984375,183.273772 87.7929687,184.816575 C87.7929687,184.816575 106.835937,186.359378 106.835937,170.931348 L106.835937,148.175005 C106.835937,148.175005 106.054687,139.111037 110.546875,136.025431 L110.546875,173.438403 C110.546875,173.438403 110.253906,182.405945 105.566406,185.780827 C105.566406,185.780827 102.441406,191.277062 109.277344,189.830685 C109.277344,189.830685 122.363281,187.998606 122.949219,172.859852 L123.242187,134.964754 L126.367187,134.964754 L126.660156,172.859852 C127.246094,187.902181 140.332031,189.830685 140.332031,189.830685 C147.167969,191.373488 144.042969,185.780827 144.042969,185.780827 C139.355469,182.405945 139.0625,173.438403 139.0625,173.438403 L139.0625,136.314707 C143.554688,139.786014 142.773438,148.175005 142.773438,148.175005 L142.773438,170.931348 C142.773438,186.359378 161.816406,184.816575 161.816406,184.816575 C166.210938,183.273772 162.109375,180.477442 162.109375,180.477442 C155.273438,177.970387 154.589844,170.642073 154.589844,170.642073 L154.589844,140.750266 C154.589844,129.082818 149.609375,122.911606 144.726563,119.729575 C173.046875,116.933245 186.621094,107.965703 192.871094,93.8876257 C205.273438,94.1769012 227.636719,95.7197042 248.925781,101.698066 L249.21875,100.830239 C228.027344,94.9483027 205.859375,93.4054997 193.261719,93.019799 C193.847656,91.5734212 194.335938,90.1270435 194.824219,88.5842405 C207.910156,88.1021146 229.101562,88.1021146 249.804688,92.1519723 L249.804688,92.1519723 Z" id="Path" fill="#010101" fill-rule="nonzero"></path>
            <path d="M170.507813,61.3923384 C176.5625,66.8885739 180.175781,73.4454865 180.175781,80.484525 C180.175781,113.654789 155.175781,114.522615 124.316406,114.522615 C93.4570313,114.522615 68.4570313,109.894206 68.4570313,80.484525 C68.4570313,73.4454865 71.9726563,66.8885739 78.0273438,61.4887636 C88.0859375,52.4247962 105.078125,57.2460554 124.316406,57.2460554 C143.554688,57.2460554 160.449219,52.328371 170.507813,61.3923384 L170.507813,61.3923384 Z" id="Path" fill="#F5CCB3" fill-rule="nonzero"></path>
            <path d="M105.761719,82.2201783 C105.761719,91.3805709 100.585937,98.7088849 94.140625,98.7088849 C87.6953125,98.7088849 82.5195312,91.2841457 82.5195312,82.2201783 C82.5195312,73.0597857 87.6953125,65.7314717 94.140625,65.7314717 C100.585937,65.6350465 105.761719,73.0597857 105.761719,82.2201783 L105.761719,82.2201783 Z" id="Path" fill="#FFFFFF" fill-rule="nonzero"></path>
            <path d="M102.050781,82.4130287 C102.050781,88.4878153 98.5351563,93.4054997 94.3359375,93.4054997 C90.0390625,93.4054997 86.6210938,88.4878153 86.6210938,82.4130287 C86.6210938,76.338242 90.1367187,71.4205576 94.3359375,71.4205576 C98.5351563,71.4205576 102.050781,76.338242 102.050781,82.4130287 L102.050781,82.4130287 Z" id="Path" fill="#AF5C51" fill-rule="nonzero"></path>
            <path d="M168.164063,82.2201783 C168.164063,91.3805709 162.988281,98.7088849 156.542969,98.7088849 C150.097656,98.7088849 144.921875,91.2841457 144.921875,82.2201783 C144.921875,73.0597857 150.097656,65.7314717 156.542969,65.7314717 C162.890625,65.6350465 168.164063,73.0597857 168.164063,82.2201783 L168.164063,82.2201783 Z" id="Path" fill="#FFFFFF" fill-rule="nonzero"></path>
            <path d="M164.355469,82.4130287 C164.355469,88.4878153 160.839844,93.4054997 156.640625,93.4054997 C152.34375,93.4054997 148.925781,88.4878153 148.925781,82.4130287 C148.925781,76.338242 152.441406,71.4205576 156.640625,71.4205576 C160.9375,71.4205576 164.355469,76.338242 164.355469,82.4130287 L164.355469,82.4130287 Z" id="Path" fill="#AF5C51" fill-rule="nonzero"></path>
            <path d="M127.441406,96.8768064 C127.441406,98.4196094 126.171875,99.769562 124.511719,99.769562 C122.949219,99.769562 121.582031,98.5160345 121.582031,96.8768064 C121.582031,95.2375783 122.851562,93.9840509 124.511719,93.9840509 C126.074219,93.9840509 127.441406,95.2375783 127.441406,96.8768064 L127.441406,96.8768064 Z" id="Path" fill="#AF5C51" fill-rule="nonzero"></path>
            <path d="M117.773437,104.108695 C117.578125,103.626569 117.871094,103.144443 118.359375,102.951593 C118.847656,102.758743 119.335937,103.048018 119.53125,103.530144 C120.3125,105.651498 122.265625,107.001451 124.511719,107.001451 C126.757812,107.001451 128.710937,105.555073 129.492187,103.530144 C129.6875,103.048018 130.175781,102.758743 130.664062,102.951593 C131.152344,103.144443 131.445312,103.626569 131.25,104.108695 C130.273437,106.905026 127.539062,108.833529 124.511719,108.833529 C121.484375,108.833529 118.75,106.905026 117.773437,104.108695 L117.773437,104.108695 Z" id="Path" fill="#AF5C51" fill-rule="nonzero"></path>
            <path d="M53.2226563,117.22252 C53.2226563,117.993922 52.34375,118.572473 51.171875,118.572473 C50.0976563,118.572473 49.1210938,117.993922 49.1210938,117.22252 C49.1210938,116.451119 50,115.872568 51.171875,115.872568 C52.34375,115.872568 53.2226563,116.451119 53.2226563,117.22252 L53.2226563,117.22252 Z" id="Path" fill="#C4E5D9" fill-rule="nonzero"></path>
            <path d="M58.8867188,120.308126 C58.8867188,121.079528 58.0078125,121.658079 56.8359375,121.658079 C55.7617188,121.658079 54.7851562,121.079528 54.7851562,120.308126 C54.7851562,119.536725 55.6640625,118.958174 56.8359375,118.958174 C58.0078125,118.958174 58.8867188,119.536725 58.8867188,120.308126 L58.8867188,120.308126 Z" id="Path" fill="#C4E5D9" fill-rule="nonzero"></path>
            <path d="M62.3046875,124.357984 C62.3046875,125.129386 61.4257812,125.707937 60.2539062,125.707937 C59.1796875,125.707937 58.203125,125.129386 58.203125,124.357984 C58.203125,123.586583 59.0820312,123.008032 60.2539062,123.008032 C61.4257812,122.911606 62.3046875,123.586583 62.3046875,124.357984 L62.3046875,124.357984 Z" id="Path" fill="#C4E5D9" fill-rule="nonzero"></path>
            <path d="M65.4296875,128.986393 C65.4296875,129.757794 64.5507813,130.336346 63.3789063,130.336346 C62.3046875,130.336346 61.328125,129.757794 61.328125,128.986393 C61.328125,128.214991 62.2070313,127.63644 63.3789063,127.63644 C64.5507813,127.540015 65.4296875,128.214991 65.4296875,128.986393 L65.4296875,128.986393 Z" id="Path" fill="#C4E5D9" fill-rule="nonzero"></path>
            <path d="M68.8476562,133.229101 C68.8476562,134.000503 67.96875,134.579054 66.796875,134.579054 C65.7226562,134.579054 64.7460938,134.000503 64.7460938,133.229101 C64.7460938,132.4577 65.625,131.879149 66.796875,131.879149 C67.96875,131.879149 68.8476562,132.4577 68.8476562,133.229101 L68.8476562,133.229101 Z" id="Path" fill="#C4E5D9" fill-rule="nonzero"></path>
            <path d="M73.5351562,136.989683 C73.5351562,137.761085 72.65625,138.339636 71.484375,138.339636 C70.4101562,138.339636 69.4335938,137.761085 69.4335938,136.989683 C69.4335938,136.218282 70.3125,135.639731 71.484375,135.639731 C72.65625,135.543306 73.5351562,136.218282 73.5351562,136.989683 L73.5351562,136.989683 Z" id="Path" fill="#C4E5D9" fill-rule="nonzero"></path>
            <path d="M80.078125,139.400313 C80.078125,140.171714 79.1992188,140.750266 78.0273438,140.750266 C76.953125,140.750266 75.9765625,140.171714 75.9765625,139.400313 C75.9765625,138.628911 76.8554688,138.05036 78.0273438,138.05036 C79.1992188,138.05036 80.078125,138.628911 80.078125,139.400313 L80.078125,139.400313 Z" id="Path" fill="#C4E5D9" fill-rule="nonzero"></path>
            <path d="M86.6210938,139.400313 C86.6210938,140.171714 85.7421875,140.750266 84.5703125,140.750266 C83.4960938,140.750266 82.5195313,140.171714 82.5195313,139.400313 C82.5195313,138.628911 83.3984375,138.05036 84.5703125,138.05036 C85.7421875,138.05036 86.6210938,138.628911 86.6210938,139.400313 L86.6210938,139.400313 Z" id="Path" fill="#C4E5D9" fill-rule="nonzero"></path>
            <path d="M93.2617187,138.339636 C93.2617187,139.111037 92.3828125,139.689588 91.2109375,139.689588 C90.1367187,139.689588 89.1601562,139.111037 89.1601562,138.339636 C89.1601562,137.568234 90.0390625,136.989683 91.2109375,136.989683 C92.2851562,136.989683 93.2617187,137.568234 93.2617187,138.339636 L93.2617187,138.339636 Z" id="Path" fill="#C4E5D9" fill-rule="nonzero"></path>
        </g>
    </g>
</svg>