<?xml version="1.0" encoding="UTF-8"?>
<svg width="250px" height="250px" viewBox="0 0 250 250" version="1.1" xmlns="http://www.w3.org/2000/svg" xmlns:xlink="http://www.w3.org/1999/xlink">
    <title>google-analytics</title>
    <g id="google-analytics" stroke="none" stroke-width="1" fill="none" fill-rule="evenodd">
        <g id="google-analytics-svgrepo-com" transform="translate(13, 0)" fill-rule="nonzero">
            <path d="M225,218.716602 C225.045937,227.624012 221.281699,236.123196 214.662195,242.056158 C208.042692,247.989119 199.204623,250.785192 190.392033,249.734436 C174.533771,247.37917 162.912589,233.52773 163.299003,217.441897 L163.299003,32.5033725 C162.916091,16.400027 174.565594,2.54189726 190.444949,0.210832983 C199.249015,-0.823475372 208.072445,1.98005712 214.679712,7.91111974 C221.286979,13.8421824 225.044094,22.3316716 225,31.228667 L225,218.716602 Z" id="Path" fill="#F9AB00"></path>
            <path d="M30.8500709,188.070557 C47.8880947,188.070557 61.7001419,201.933935 61.7001419,219.035279 C61.7001419,236.136622 47.8880947,250 30.8500709,250 C13.8120472,250 0,236.136622 0,219.035279 C0,201.933935 13.8120472,188.070557 30.8500709,188.070557 Z M112.023328,94.2203645 C94.9046137,95.162193 81.6227541,109.574958 82.0199142,126.778468 L82.0199142,209.953002 C82.0199142,232.525912 91.91522,246.228996 106.414224,249.150196 C115.516551,251.001844 124.965924,248.646354 132.147563,242.735524 C139.329203,236.824694 143.481508,227.985358 143.455718,218.663489 L143.455718,125.344424 C143.47065,117.011197 140.150191,109.021119 134.239852,103.168712 C128.329514,97.3163043 120.324731,94.092147 112.023328,94.2203645 L112.023328,94.2203645 Z" id="Shape" fill="#E37400"></path>
        </g>
    </g>
</svg>