<?xml version="1.0" encoding="UTF-8"?>
<svg width="250px" height="250px" viewBox="0 0 250 250" version="1.1" xmlns="http://www.w3.org/2000/svg" xmlns:xlink="http://www.w3.org/1999/xlink">
    <title>Notion</title>
    <g id="Notion" stroke="none" stroke-width="1" fill="none" fill-rule="evenodd" fill-opacity="0.75">
        <g transform="translate(5.178577, 0.000000)" fill="#141414" fill-rule="nonzero" id="Shape">
            <path d="M41.3547962,43.8302032 C49.1304914,50.1476482 52.0474837,49.6656633 66.6491671,48.6913652 L204.304054,40.425816 C207.223506,40.425816 204.795876,37.5132501 203.82207,37.0292979 L180.960739,20.5021341 C176.580086,17.1011896 170.744134,13.2064565 159.558642,14.1807545 L26.2671934,23.9025867 C21.4060314,24.3845716 20.4351761,26.8151526 22.3709849,28.7632569 L41.3547962,43.8302032 Z M49.61887,75.9107247 L49.61887,220.747679 C49.61887,228.531735 53.5091767,231.443809 62.2640881,230.962316 L213.546853,222.208388 C222.30619,221.726895 223.281964,216.372928 223.281964,210.049581 L223.281964,66.1844661 C223.281964,59.8714476 220.85335,56.4670604 215.491514,56.9529798 L57.3994834,66.1844661 C51.565007,66.674812 49.61887,69.5932798 49.61887,75.9107247 L49.61887,75.9107247 Z M198.965334,83.6800262 C199.935206,88.0587115 198.965334,92.4334622 194.578288,92.9257753 L187.289496,94.3781237 L187.289496,201.305982 C180.960739,204.707418 175.124787,206.65208 170.261658,206.65208 C162.475634,206.65208 160.525563,204.220023 154.693545,196.93369 L107.014419,122.083403 L107.014419,194.503109 L122.102022,197.907497 C122.102022,197.907497 122.102022,206.65208 109.929444,206.65208 L76.3724747,208.598709 C75.3976848,206.65208 76.3724747,201.795836 79.7763701,200.823013 L88.5332488,198.395875 L88.5332488,102.643181 L76.3749338,101.668883 C75.3996521,97.2901978 77.8282658,90.9766874 84.6434339,90.4868333 L120.642296,88.0601869 L170.261658,163.884773 L170.261658,96.8082129 L157.610538,95.3563563 C156.639682,90.003373 160.525563,86.116509 165.390659,85.6345241 L198.965334,83.6800262 Z M15.0757991,10.7803019 L153.720231,0.570091161 C170.746102,-0.890126357 175.126754,0.0881062614 185.827803,7.86134233 L230.084837,38.9675658 C237.3874,44.3166145 239.821423,45.7728975 239.821423,51.6039311 L239.821423,222.208388 C239.821423,232.900584 235.926198,239.223931 222.30865,240.191343 L61.3006101,249.914159 C51.0781039,250.401554 46.2130073,248.944779 40.8595322,242.136005 L8.26800832,199.850191 C2.42861371,192.066135 0,186.24297 0,179.430261 L0,27.7855161 C0,19.0419165 3.89620855,11.7482063 15.0757991,10.7803019 Z"></path>
        </g>
    </g>
</svg>