<?xml version="1.0" encoding="UTF-8"?>
<svg width="250px" height="250px" viewBox="0 0 250 250" version="1.1" xmlns="http://www.w3.org/2000/svg" xmlns:xlink="http://www.w3.org/1999/xlink">
    <title>vs-code</title>
    <defs>
        <linearGradient x1="50.0005938%" y1="9.74517628e-08%" x2="50.0005938%" y2="100.00003%" id="linearGradient-1">
            <stop stop-color="#32B5F1" offset="0%"></stop>
            <stop stop-color="#2B9FED" offset="100%"></stop>
        </linearGradient>
        <linearGradient x1="99.5255169%" y1="15.3355459%" x2="5.29313889%" y2="94.8114648%" id="linearGradient-2">
            <stop stop-color="#0F6FB3" offset="0%"></stop>
            <stop stop-color="#1279B7" offset="27.0551%"></stop>
            <stop stop-color="#1176B5" offset="42.1376%"></stop>
            <stop stop-color="#0E69AC" offset="61.8197%"></stop>
            <stop stop-color="#0F70AF" offset="85.5344%"></stop>
            <stop stop-color="#0F6DAD" offset="100%"></stop>
        </linearGradient>
        <linearGradient x1="5.82775665%" y1="6.3121785%" x2="99.9977344%" y2="84.5729501%" id="linearGradient-3">
            <stop stop-color="#1791D2" offset="0%"></stop>
            <stop stop-color="#1173C5" offset="100%"></stop>
        </linearGradient>
    </defs>
    <g id="vs-code" stroke="none" stroke-width="1" fill="none" fill-rule="evenodd">
        <g id="vs-code-svgrepo-com" fill-rule="nonzero">
            <path d="M187.514125,9.97134256 C187.514125,2.12348303 178.727525,2.12339375 174.822172,3.10437619 C180.289131,-1.21196441 186.700733,-0.165446235 188.97841,1.14250059 L241.776578,27.0309906 C246.806931,29.4977771 249.998,34.6303679 249.998,40.2551018 L249.998,210.563457 C249.998,216.263459 246.72211,221.45096 241.589079,223.877747 L191.907871,247.369718 C188.490017,248.840254 181.070381,252.470613 174.822172,247.368825 C182.632879,248.841147 186.863233,243.282217 187.514125,239.521502 L187.514125,9.97134256 Z" id="Path" fill="url(#linearGradient-1)"></path>
            <path d="M175.456993,2.963394 C179.601632,2.1443759 187.515911,2.52419744 187.515911,9.97187827 L187.515911,68.5941282 L27.4427446,189.690236 C24.6448006,191.807201 20.7071254,191.455416 18.3240024,188.876843 L1.82617732,171.025052 C-0.758354392,168.228623 -0.577520619,163.850943 2.22878412,161.279514 L174.823065,3.1049119 L175.456993,2.963394 Z" id="Path" fill="url(#linearGradient-2)"></path>
            <path d="M187.515911,181.882198 L27.4427446,60.7858223 C24.6448006,58.6691252 20.7071254,59.0203753 18.3240024,61.5991261 L1.82617732,79.4509172 C-0.758354392,82.2473467 -0.577520619,86.6250266 2.22878412,89.1973488 L174.823065,247.371504 C182.633772,248.842933 186.865018,243.284003 187.515911,239.523287 L187.515911,181.882198 Z" id="Path" fill="url(#linearGradient-3)"></path>
        </g>
    </g>
</svg>