<?xml version="1.0" encoding="UTF-8"?>
<svg width="250px" height="250px" viewBox="0 0 250 250" version="1.1" xmlns="http://www.w3.org/2000/svg" xmlns:xlink="http://www.w3.org/1999/xlink">
    <title>VS Code</title>
    <defs>
        <path d="M177.279295,248.935676 C181.216795,250.471636 185.707029,250.372889 189.681639,248.45856 L241.152342,223.663218 C246.560545,221.057658 250,215.576696 250,209.564845 L250,41.4354883 C250,35.4234415 246.560545,29.9433589 241.152342,27.3377996 L189.681639,2.54148914 C184.465818,0.0288676997 178.361326,0.644303726 173.784178,3.97613059 C173.129881,4.45209245 172.506834,4.98350921 171.922849,5.56914898 L73.3876932,95.5686458 L30.4679667,62.9512482 C26.4725565,59.9149162 20.8840799,60.163642 17.1733378,63.5430474 L3.40757604,76.0795515 C-1.13137904,80.2132493 -1.13658412,87.3622585 3.3963358,91.5026046 L40.6177713,125.499629 L3.3963358,159.497044 C-1.13658412,163.637586 -1.13137904,170.786497 3.40757604,174.920195 L17.1733378,187.45621 C20.8840799,190.836104 26.4725565,191.084439 30.4679667,188.048694 L73.3876932,155.430807 L171.922849,245.430636 C173.481443,246.992017 175.311521,248.168185 177.279295,248.935676 Z M187.538084,68.681132 L112.772459,125.499629 L187.538084,182.318419 L187.538084,68.681132 Z" id="path-1"></path>
    </defs>
    <g id="VS-Code" stroke="none" stroke-width="1" fill="none" fill-rule="evenodd">
        <mask id="mask-2" fill="white">
            <use xlink:href="#path-1"></use>
        </mask>
        <use fill-opacity="0.75" fill="#141414" xlink:href="#path-1"></use>
    </g>
</svg>