<?xml version="1.0" encoding="UTF-8"?>
<svg width="250px" height="250px" viewBox="0 0 250 250" version="1.1" xmlns="http://www.w3.org/2000/svg" xmlns:xlink="http://www.w3.org/1999/xlink">
    <title>xcode</title>
    <defs>
        <linearGradient x1="49.997009%" y1="100.064806%" x2="49.997009%" y2="-0.0159521436%" id="linearGradient-1">
            <stop stop-color="#1578E4" offset="0%"></stop>
            <stop stop-color="#00C3F2" offset="100%"></stop>
        </linearGradient>
        <linearGradient x1="51.6818182%" y1="99.5466667%" x2="51.6818182%" y2="-0.213333333%" id="linearGradient-2">
            <stop stop-color="#1492E7" offset="0%"></stop>
            <stop stop-color="#DBEDFB" offset="100%"></stop>
        </linearGradient>
        <linearGradient x1="47.1%" y1="99.5466667%" x2="47.1%" y2="-0.213333333%" id="linearGradient-3">
            <stop stop-color="#1492E7" offset="0%"></stop>
            <stop stop-color="#DBEDFB" offset="100%"></stop>
        </linearGradient>
        <linearGradient x1="49.7%" y1="99.5466667%" x2="49.7%" y2="-0.213333333%" id="linearGradient-4">
            <stop stop-color="#1492E7" offset="0%"></stop>
            <stop stop-color="#DBEDFB" offset="100%"></stop>
        </linearGradient>
        <linearGradient x1="50.2%" y1="99.5466667%" x2="50.2%" y2="-0.213333333%" id="linearGradient-5">
            <stop stop-color="#1492E7" offset="0%"></stop>
            <stop stop-color="#DBEDFB" offset="100%"></stop>
        </linearGradient>
        <linearGradient x1="45.8%" y1="99.5466667%" x2="45.8%" y2="-0.213333333%" id="linearGradient-6">
            <stop stop-color="#1492E7" offset="0%"></stop>
            <stop stop-color="#DBEDFB" offset="100%"></stop>
        </linearGradient>
        <linearGradient x1="46.9166667%" y1="99.5466667%" x2="46.9166667%" y2="-0.213333333%" id="linearGradient-7">
            <stop stop-color="#1492E7" offset="0%"></stop>
            <stop stop-color="#DBEDFB" offset="100%"></stop>
        </linearGradient>
        <linearGradient x1="51.2%" y1="99.5466667%" x2="51.2%" y2="-0.213333333%" id="linearGradient-8">
            <stop stop-color="#1492E7" offset="0%"></stop>
            <stop stop-color="#DBEDFB" offset="100%"></stop>
        </linearGradient>
        <linearGradient x1="52.6%" y1="99.5466667%" x2="52.6%" y2="-0.213333333%" id="linearGradient-9">
            <stop stop-color="#1492E7" offset="0%"></stop>
            <stop stop-color="#DBEDFB" offset="100%"></stop>
        </linearGradient>
        <linearGradient x1="48.0454545%" y1="99.5466667%" x2="48.0454545%" y2="-0.213333333%" id="linearGradient-10">
            <stop stop-color="#1492E7" offset="0%"></stop>
            <stop stop-color="#DBEDFB" offset="100%"></stop>
        </linearGradient>
        <linearGradient x1="49.9484144%" y1="99.9428385%" x2="49.9484144%" y2="0.0384870991%" id="linearGradient-11">
            <stop stop-color="#1285E7" offset="0%"></stop>
            <stop stop-color="#00B5EF" offset="100%"></stop>
        </linearGradient>
        <linearGradient x1="66.5597793%" y1="100.134948%" x2="33.1852857%" y2="0.0968858131%" id="linearGradient-12">
            <stop stop-color="#2B90E7" offset="0%"></stop>
            <stop stop-color="#00B6EF" offset="100%"></stop>
        </linearGradient>
        <linearGradient x1="66.7682656%" y1="100.21273%" x2="33.188896%" y2="0.149078727%" id="linearGradient-13">
            <stop stop-color="#3795EA" offset="0%"></stop>
            <stop stop-color="#49C4F2" offset="100%"></stop>
        </linearGradient>
        <linearGradient x1="66.7431779%" y1="99.892916%" x2="33.254906%" y2="0.153212521%" id="linearGradient-14">
            <stop stop-color="#3696EA" offset="0%"></stop>
            <stop stop-color="#90D9F6" offset="100%"></stop>
        </linearGradient>
        <linearGradient x1="66.8179989%" y1="99.8862876%" x2="33.3246417%" y2="-0.0886287625%" id="linearGradient-15">
            <stop stop-color="#3097EA" offset="0%"></stop>
            <stop stop-color="#B5E5F9" offset="100%"></stop>
        </linearGradient>
        <linearGradient x1="66.8369324%" y1="99.9757366%" x2="33.3877874%" y2="-0.110918544%" id="linearGradient-16">
            <stop stop-color="#3A98EA" offset="0%"></stop>
            <stop stop-color="#BCE7FA" offset="100%"></stop>
        </linearGradient>
        <linearGradient x1="1.22727273%" y1="67.6061201%" x2="99.3484848%" y2="31.5550341%" id="linearGradient-17">
            <stop stop-color="#00A4EC" offset="0%"></stop>
            <stop stop-color="#B9DFF6" offset="100%"></stop>
        </linearGradient>
        <linearGradient x1="-0.196969697%" y1="66.3471626%" x2="97.9090909%" y2="29.4377175%" id="linearGradient-18">
            <stop stop-color="#00A4EC" offset="0%"></stop>
            <stop stop-color="#B9DFF6" offset="100%"></stop>
        </linearGradient>
        <linearGradient x1="-4.09090909%" y1="62.7460746%" x2="93.3939394%" y2="25.8462971%" id="linearGradient-19">
            <stop stop-color="#00B4EF" offset="0%"></stop>
            <stop stop-color="#C3E9FA" offset="100%"></stop>
        </linearGradient>
        <linearGradient x1="-3.99640072%" y1="62.6507849%" x2="91.1817636%" y2="26.5672917%" id="linearGradient-20">
            <stop stop-color="#00B4EF" offset="0%"></stop>
            <stop stop-color="#C3E9FA" offset="100%"></stop>
        </linearGradient>
        <linearGradient x1="50.0413752%" y1="100.188302%" x2="50.0413752%" y2="-0.0337564272%" id="linearGradient-21">
            <stop stop-color="#1285E7" offset="0%"></stop>
            <stop stop-color="#00B5EF" offset="100%"></stop>
        </linearGradient>
        <linearGradient x1="33.3279881%" y1="100.227036%" x2="66.9185351%" y2="0.0190641248%" id="linearGradient-22">
            <stop stop-color="#3194E9" offset="0%"></stop>
            <stop stop-color="#71CFF4" offset="100%"></stop>
        </linearGradient>
        <linearGradient x1="33.2667838%" y1="100.304858%" x2="66.8500479%" y2="0.227805695%" id="linearGradient-23">
            <stop stop-color="#5AA6EC" offset="0%"></stop>
            <stop stop-color="#A2DEF8" offset="100%"></stop>
        </linearGradient>
        <linearGradient x1="33.298521%" y1="99.8105437%" x2="66.6919254%" y2="0.0708401977%" id="linearGradient-24">
            <stop stop-color="#66ABEE" offset="0%"></stop>
            <stop stop-color="#BEE8FA" offset="100%"></stop>
        </linearGradient>
        <linearGradient x1="33.1742921%" y1="99.9698492%" x2="66.7799489%" y2="-0.172529313%" id="linearGradient-25">
            <stop stop-color="#7BB6F0" offset="0%"></stop>
            <stop stop-color="#B1E3F9" offset="100%"></stop>
        </linearGradient>
        <linearGradient x1="33.2024753%" y1="99.9514731%" x2="66.5684766%" y2="-0.187175043%" id="linearGradient-26">
            <stop stop-color="#5AA6EC" offset="0%"></stop>
            <stop stop-color="#AFE3F9" offset="100%"></stop>
        </linearGradient>
        <linearGradient x1="8.38329875%" y1="26.3754991%" x2="104.985154%" y2="63.3656134%" id="linearGradient-27">
            <stop stop-color="#C1E7FA" offset="0%"></stop>
            <stop stop-color="#89D4F5" offset="100%"></stop>
        </linearGradient>
        <linearGradient x1="6.80597015%" y1="27.832972%" x2="103.462687%" y2="62.7083469%" id="linearGradient-28">
            <stop stop-color="#C1E7FA" offset="0%"></stop>
            <stop stop-color="#89D4F5" offset="100%"></stop>
        </linearGradient>
        <linearGradient x1="5.56716418%" y1="29.495364%" x2="102.208955%" y2="63.636268%" id="linearGradient-29">
            <stop stop-color="#C1E7FA" offset="0%"></stop>
            <stop stop-color="#89D4F5" offset="100%"></stop>
        </linearGradient>
        <linearGradient x1="3.89552239%" y1="29.9520374%" x2="100.537313%" y2="64.1020749%" id="linearGradient-30">
            <stop stop-color="#B0DFF8" offset="0%"></stop>
            <stop stop-color="#52BDF2" offset="100%"></stop>
        </linearGradient>
        <linearGradient x1="3.73134328%" y1="31.3129242%" x2="100.402985%" y2="65.4629616%" id="linearGradient-31">
            <stop stop-color="#B4DEF8" offset="0%"></stop>
            <stop stop-color="#4EB5F0" offset="100%"></stop>
        </linearGradient>
        <linearGradient x1="3.58208955%" y1="32.6738109%" x2="100.223881%" y2="66.8147149%" id="linearGradient-32">
            <stop stop-color="#B4DEF8" offset="0%"></stop>
            <stop stop-color="#4EB5F0" offset="100%"></stop>
        </linearGradient>
        <linearGradient x1="2.07462687%" y1="32.9752154%" x2="98.7014925%" y2="67.1161193%" id="linearGradient-33">
            <stop stop-color="#B5DDF8" offset="0%"></stop>
            <stop stop-color="#46AEEE" offset="100%"></stop>
        </linearGradient>
        <linearGradient x1="0.52238806%" y1="34.1389529%" x2="97.1791045%" y2="67.4560626%" id="linearGradient-34">
            <stop stop-color="#96CEF4" offset="0%"></stop>
            <stop stop-color="#46AAEE" offset="100%"></stop>
        </linearGradient>
        <linearGradient x1="2.16363636%" y1="39.321852%" x2="92.3818182%" y2="60.1845946%" id="linearGradient-35">
            <stop stop-color="#8FC1F2" offset="0%"></stop>
            <stop stop-color="#3193EA" offset="100%"></stop>
        </linearGradient>
        <linearGradient x1="-3.97014925%" y1="37.2082234%" x2="92.6865672%" y2="73.0487592%" id="linearGradient-36">
            <stop stop-color="#8FC1F2" offset="0%"></stop>
            <stop stop-color="#3193EA" offset="100%"></stop>
        </linearGradient>
        <linearGradient x1="-4.11940299%" y1="36.0083133%" x2="92.5223881%" y2="73.5800385%" id="linearGradient-37">
            <stop stop-color="#8FC1F2" offset="0%"></stop>
            <stop stop-color="#3193EA" offset="100%"></stop>
        </linearGradient>
        <linearGradient x1="45.5937966%" y1="48.14%" x2="53.2405053%" y2="54.5347368%" id="linearGradient-38">
            <stop stop-color="#000000" offset="0.1%"></stop>
            <stop stop-color="#000000" stop-opacity="0" offset="100%"></stop>
        </linearGradient>
        <radialGradient cx="64.4819688%" cy="29.6598157%" fx="64.4819688%" fy="29.6598157%" r="42.3574604%" gradientTransform="translate(0.6448, 0.2966), scale(0.7194, 1), rotate(116.7059), translate(-0.6448, -0.2966)" id="radialGradient-39">
            <stop stop-color="#000000" offset="0%"></stop>
            <stop stop-color="#000000" stop-opacity="0" offset="100%"></stop>
        </radialGradient>
        <radialGradient cx="48.3006118%" cy="48.5078432%" fx="48.3006118%" fy="48.5078432%" r="73.4043607%" gradientTransform="translate(0.483, 0.4851), scale(0.7007, 1), rotate(26.1167), translate(-0.483, -0.4851)" id="radialGradient-40">
            <stop stop-color="#0C0C12" offset="41.7%"></stop>
            <stop stop-color="#3D4651" offset="100%"></stop>
        </radialGradient>
        <linearGradient x1="40.3346527%" y1="40.6763006%" x2="60.7083234%" y2="55.0549133%" id="linearGradient-41">
            <stop stop-color="#344351" offset="0%"></stop>
            <stop stop-color="#9697A0" offset="10%"></stop>
            <stop stop-color="#8B8C95" offset="18.1%"></stop>
            <stop stop-color="#787A83" offset="35.1%"></stop>
            <stop stop-color="#71747D" offset="47%"></stop>
            <stop stop-color="#777982" offset="59.1%"></stop>
            <stop stop-color="#87898F" offset="74.9%"></stop>
            <stop stop-color="#8E8F94" offset="80%"></stop>
            <stop stop-color="#3D3B42" offset="84.9%"></stop>
            <stop stop-color="#606E84" offset="90%"></stop>
        </linearGradient>
        <linearGradient x1="74.1362324%" y1="89.045968%" x2="18.5030445%" y2="4.37796999%" id="linearGradient-42">
            <stop stop-color="#262B33" offset="27%"></stop>
            <stop stop-color="#74747E" offset="45%"></stop>
            <stop stop-color="#B0B0BC" offset="54%"></stop>
            <stop stop-color="#74747E" offset="73%"></stop>
        </linearGradient>
        <linearGradient x1="-1.74958249%" y1="55.3282223%" x2="97.9170936%" y2="48.1215412%" id="linearGradient-43">
            <stop stop-color="#606E84" offset="14%"></stop>
            <stop stop-color="#9899A5" offset="40%"></stop>
            <stop stop-color="#475768" offset="73%"></stop>
            <stop stop-color="#262B33" offset="92%"></stop>
        </linearGradient>
        <linearGradient x1="52.1559441%" y1="71.3939964%" x2="41.5517795%" y2="26.3024674%" id="linearGradient-44">
            <stop stop-color="#101215" stop-opacity="0.1" offset="0%"></stop>
            <stop stop-color="#101215" stop-opacity="0.7" offset="46%"></stop>
            <stop stop-color="#474951" offset="70%"></stop>
            <stop stop-color="#7B7D88" offset="91%"></stop>
        </linearGradient>
        <linearGradient x1="42.6281472%" y1="42.6158885%" x2="57.8382433%" y2="54.0125254%" id="linearGradient-45">
            <stop stop-color="#2C3952" offset="11.5%"></stop>
            <stop stop-color="#3D414E" offset="37.4%"></stop>
            <stop stop-color="#474A54" offset="55%"></stop>
            <stop stop-color="#4E5057" offset="75.4%"></stop>
            <stop stop-color="#323945" offset="89.2%"></stop>
            <stop stop-color="#143052" offset="100%"></stop>
        </linearGradient>
        <linearGradient x1="29.790026%" y1="69.5003392%" x2="58.0648946%" y2="23.542257%" id="linearGradient-46">
            <stop stop-color="#6D7078" stop-opacity="0" offset="11.8%"></stop>
            <stop stop-color="#6D7078" stop-opacity="0.7" offset="20%"></stop>
            <stop stop-color="#35363A" offset="34%"></stop>
            <stop stop-color="#1D1F22" offset="37.4%"></stop>
            <stop stop-color="#101215" offset="40%"></stop>
            <stop stop-color="#16171A" offset="50%"></stop>
            <stop stop-color="#292A2E" offset="56%"></stop>
            <stop stop-color="#4B4D51" offset="68.8%"></stop>
            <stop stop-color="#63666B" offset="80.7%"></stop>
            <stop stop-color="#72757B" offset="91.5%"></stop>
            <stop stop-color="#777A80" offset="100%"></stop>
        </linearGradient>
        <linearGradient x1="-0.164118631%" y1="50.0043285%" x2="99.9573642%" y2="50.0043285%" id="linearGradient-47">
            <stop stop-color="#4A4D56" offset="0%"></stop>
            <stop stop-color="#29292D" offset="100%"></stop>
        </linearGradient>
        <linearGradient x1="-0.189811699%" y1="49.5838027%" x2="99.9358594%" y2="49.5838027%" id="linearGradient-48">
            <stop stop-color="#767880" offset="0%"></stop>
            <stop stop-color="#0C0A0B" offset="41%"></stop>
        </linearGradient>
        <linearGradient x1="31.7263385%" y1="89.0314465%" x2="67.0244668%" y2="8.6918239%" id="linearGradient-49">
            <stop stop-color="#858997" offset="0%"></stop>
            <stop stop-color="#244668" offset="23%"></stop>
            <stop stop-color="#1A3249" offset="28.2%"></stop>
            <stop stop-color="#040506" offset="40%"></stop>
            <stop stop-color="#313236" offset="46.4%"></stop>
            <stop stop-color="#65656E" offset="54.6%"></stop>
            <stop stop-color="#868691" offset="60.7%"></stop>
            <stop stop-color="#92929E" offset="64%"></stop>
        </linearGradient>
    </defs>
    <g id="xcode" stroke="none" stroke-width="1" fill="none" fill-rule="evenodd">
        <g id="xcode-seeklogo" transform="translate(2.4946, 0)" fill-rule="nonzero">
            <path d="M47.6086152,18.0434782 L170.434494,18.0434782 C196.738797,18.0434782 218.043109,39.3478261 218.043109,65.6521738 L218.043109,188.47826 C218.043109,214.782608 196.738797,236.086956 170.434494,236.086956 L47.6086152,236.086956 C21.3043118,236.086956 0,214.782608 0,188.47826 L0,65.6521738 C0,39.3478261 21.3043118,18.0434782 47.6086152,18.0434782 Z" id="Path" fill="url(#linearGradient-1)"></path>
            <path d="M166.738849,29.7826087 L51.3042611,29.7826087 C29.3477764,29.7826087 11.5217196,47.6086956 11.5217196,69.5652173 L11.5217196,185 C11.5217196,206.956521 29.3477764,224.782609 51.3042611,224.782609 L166.738849,224.782609 C188.695333,224.782609 206.52139,206.956521 206.52139,185 L206.52139,69.3478261 C206.52139,47.3913043 188.695333,29.7826087 166.738849,29.7826087 Z M203.260526,185.434782 C203.260526,205.434782 187.173597,221.521739 167.17363,221.521739 L50.8694792,221.521739 C31.086904,221.521739 14.7825837,205.434782 14.7825837,185.434782 L14.7825837,68.9130434 C14.7825837,48.9130434 30.869513,32.826087 50.8694792,32.826087 L167.391022,32.826087 C187.173597,32.826087 203.477917,48.9130434 203.477917,68.9130434 L203.477917,185.434782 L203.260526,185.434782 Z" id="Shape" fill="#FFFFFF"></path>
            <path d="M109.347641,37.6086956 C60.2172895,37.6086956 20.2173571,77.6086956 20.2173571,126.739131 C20.2173571,175.869565 60.2172895,215.869565 109.347641,215.869565 C158.695384,215.869565 198.477925,175.869565 198.477925,126.739131 C198.477925,77.6086956 158.477993,37.6086956 109.347641,37.6086956 L109.347641,37.6086956 Z M109.347641,214.565217 C60.8694623,214.565217 21.5217028,175.217391 21.5217028,126.739131 C21.5217028,78.2608695 60.8694623,38.9130434 109.347641,38.9130434 C157.82582,38.9130434 197.17358,78.2608695 197.17358,126.739131 C197.17358,175.217391 157.82582,214.565217 109.347641,214.565217 Z" id="Shape" fill="#69C5F3"></path>
            <path d="M109.347641,55.8695651 C69.9998816,55.8695651 38.2608049,87.6086956 38.2608049,126.956522 C38.2608049,166.304347 69.9998816,197.826086 109.347641,197.826086 C148.695401,197.826086 180.434477,166.086956 180.434477,126.739131 C180.434477,87.3913043 148.47801,55.8695651 109.347641,55.8695651 L109.347641,55.8695651 Z M109.347641,196.304348 C70.8694453,196.304348 39.7825414,165.217391 39.7825414,126.739131 C39.7825414,88.2608694 70.8694453,57.173913 109.347641,57.173913 C147.825837,57.173913 178.912741,88.2608694 178.912741,126.739131 C178.912741,165.217391 147.608446,196.304348 109.347641,196.304348 Z" id="Shape" fill="#68C5F4"></path>
            <g id="Group" transform="translate(31.2968, 143.0435)">
                <path d="M10.0074381,0 L145.659383,0 C151.311547,0 155.659365,4.56521739 155.659365,10 C155.659365,15.6521739 151.094156,20 145.659383,20 L10.0074381,20 C4.35527376,20 0.00745502065,15.4347826 0.00745502065,10 C-0.209935917,4.56521739 4.35527376,0 10.0074381,0 Z" id="Path" fill="#FFFFFF"></path>
                <path d="M9.57265623,1.95652173 L145.659383,1.95652173 C150.007201,1.95652173 153.702848,5.4347826 153.702848,9.99999996 L153.702848,10.2173913 C153.702848,14.5652174 150.224592,18.2608695 145.659383,18.2608695 L9.57265623,18.2608695 C5.2248375,18.2608695 1.52919158,14.7826087 1.52919158,10.2173913 L1.52919158,9.78260867 C1.74658252,5.4347826 5.2248375,1.95652173 9.57265623,1.95652173 Z" id="Path" fill="#0A93E9"></path>
                <polygon id="Path" fill="#1694EA" points="6.31179219 17.3913043 149.137638 17.3913043 150.224592 16.7391305 5.2248375 16.7391305"></polygon>
                <polygon id="Path" fill="#319DEC" points="3.05092814 14.7826087 152.181111 14.7826087 152.615892 14.1304348 2.61614626 14.1304348"></polygon>
                <polygon id="Path" fill="#65B1EE" points="1.74658252 10.6521739 153.702848 10.6521739 153.702848 9.78260867 1.74658252 9.78260867"></polygon>
                <polygon id="Path" fill="#8EC6F3" points="3.26831907 5.2173913 152.398501 5.2173913 152.615892 5.6521739 152.833284 6.08695651 2.8335372 6.08695651 3.05092814 5.6521739"></polygon>
                <polygon id="Path" fill="#95CAF3" points="6.52918313 2.60869565 149.137638 2.60869565 149.789811 2.82608696 150.441983 3.26086956 5.2248375 3.26086956 5.87701031 2.82608696"></polygon>
                <path d="M141.746346,1.95652173 L140.659391,1.95652173 C140.659391,1.95652173 144.355037,4.56521739 144.355037,10.4347826 C144.355037,15.8695652 140.659391,18.2608695 140.659391,18.2608695 L141.746346,18.2608695 C141.746346,18.2608695 145.441991,16.5217391 145.441991,10.4347826 C145.441991,3.91304348 141.746346,1.95652173 141.746346,1.95652173 Z" id="Path" fill="url(#linearGradient-2)"></path>
                <path d="M131.311581,1.95652173 L130.224626,1.95652173 C130.224626,1.95652173 133.485491,4.99999999 133.485491,10.4347826 C133.485491,15.2173913 130.224626,18.2608695 130.224626,18.2608695 L131.311581,18.2608695 C131.311581,18.2608695 134.572445,15.8695652 134.572445,10.4347826 C134.355054,4.56521739 131.311581,1.95652173 131.311581,1.95652173 Z" id="Path" fill="url(#linearGradient-3)"></path>
                <polygon id="Path" fill="url(#linearGradient-4)" points="77.1812376 1.95652173 78.2681922 1.95652173 78.2681922 18.2608695 77.1812376 18.2608695"></polygon>
                <path d="M66.5290817,1.95652173 L67.6160363,1.95652173 C67.6160363,1.95652173 67.1812545,6.08695651 67.1812545,10.4347826 C67.1812545,14.3478261 67.6160363,18.2608695 67.6160363,18.2608695 L66.5290817,18.2608695 C66.5290817,18.2608695 66.0942998,14.3478261 66.0942998,10.4347826 C66.0942998,6.08695651 66.5290817,1.95652173 66.5290817,1.95652173 Z" id="Path" fill="url(#linearGradient-5)"></path>
                <path d="M56.0943167,1.95652173 L57.1812714,1.95652173 C57.1812714,1.95652173 56.0943167,6.08695651 56.0943167,10.4347826 C56.0943167,14.3478261 57.1812714,18.2608695 57.1812714,18.2608695 L56.0943167,18.2608695 C56.0943167,18.2608695 55.0073621,14.3478261 55.0073621,10.4347826 C55.0073621,6.08695651 56.0943167,1.95652173 56.0943167,1.95652173 Z" id="Path" fill="url(#linearGradient-6)"></path>
                <path d="M45.4421608,1.95652173 L46.5291155,1.95652173 C46.5291155,1.95652173 45.0073789,6.08695651 45.0073789,10.4347826 C45.0073789,14.3478261 46.5291155,18.2608695 46.5291155,18.2608695 L45.4421608,18.2608695 C45.4421608,18.2608695 43.9204243,14.3478261 43.9204243,10.4347826 C43.9204243,6.08695651 45.4421608,1.95652173 45.4421608,1.95652173 Z" id="Path" fill="url(#linearGradient-7)"></path>
                <path d="M34.7900049,1.95652173 L35.8769596,1.95652173 C35.8769596,1.95652173 33.7030502,5.4347826 33.7030502,10.4347826 C33.7030502,14.7826087 35.8769596,18.2608695 35.8769596,18.2608695 L34.7900049,18.2608695 C34.7900049,18.2608695 32.6160956,14.7826087 32.6160956,10.4347826 C32.6160956,5.4347826 34.7900049,1.95652173 34.7900049,1.95652173 Z" id="Path" fill="url(#linearGradient-8)"></path>
                <path d="M24.137849,1.95652173 L25.2248037,1.95652173 C25.2248037,1.95652173 21.9639396,4.99999999 21.9639396,10.4347826 C21.9639396,15.2173913 25.2248037,18.2608695 25.2248037,18.2608695 L24.137849,18.2608695 C24.137849,18.2608695 20.8769849,15.8695652 20.8769849,10.4347826 C21.0943759,4.56521739 24.137849,1.95652173 24.137849,1.95652173 Z" id="Path" fill="url(#linearGradient-9)"></path>
                <path d="M13.7030841,1.95652173 L14.7900387,1.95652173 C14.7900387,1.95652173 11.0943928,4.56521739 11.0943928,10.4347826 C11.0943928,15.8695652 14.7900387,18.2608695 14.7900387,18.2608695 L13.7030841,18.2608695 C13.7030841,18.2608695 10.0074381,16.5217391 10.0074381,10.4347826 C10.0074381,3.91304348 13.7030841,1.95652173 13.7030841,1.95652173 Z" id="Path" fill="url(#linearGradient-10)"></path>
            </g>
            <g id="Group" transform="translate(86.03, 57.1171)">
                <path d="M18.7524122,5.05679171 L86.5783844,122.448096 C89.4044666,127.230705 87.6653392,133.317662 82.8827385,136.143748 C78.1001379,138.969835 72.0131917,137.230704 69.1871095,132.448096 L1.36113725,15.0567917 C-1.46494493,10.274183 0.274182562,4.1872265 5.05678317,1.36113955 C9.83938378,-1.46494741 15.92633,0.274183025 18.7524122,5.05679171 Z" id="Path" fill="#FFFFFF"></path>
                <path d="M17.0132847,5.92635693 L85.0566479,123.752444 C87.2305573,127.448096 85.9262117,132.448096 82.2305657,134.622009 L81.7957838,134.8394 C78.1001379,137.013313 73.1001464,135.708966 70.926237,132.013313 L2.88287381,13.9698352 C0.708964436,10.274183 2.01331006,5.27418302 5.70895598,3.10026998 L5.92634692,2.88287868 C9.83938378,0.708965634 14.8393753,2.01331346 17.0132847,5.92635693 Z" id="Path" fill="url(#linearGradient-11)"></path>
                <polygon id="Path" fill="url(#linearGradient-12)" points="1.79591912 10.7089657 73.1001464 134.404618 73.5349283 134.622009 73.9697101 134.8394 74.404492 135.056791 1.79591912 9.4046178"></polygon>
                <polygon id="Path" fill="url(#linearGradient-13)" points="2.44809193 6.57853085 77.0131832 135.708966 77.882747 135.708966 2.88287381 5.92635693 2.66548286 6.36113954"></polygon>
                <polygon id="Path" fill="url(#linearGradient-14)" points="5.49156505 3.31766128 81.5783929 134.8394 82.2305657 134.404618 6.14373785 2.88287868"></polygon>
                <polygon id="Path" fill="url(#linearGradient-15)" points="10.9263385 2.01331346 85.2740388 130.926357 85.0566479 131.36114 84.839257 131.795922 9.83938378 1.79592216 10.2741656 1.79592216"></polygon>
                <polygon id="Path" fill="url(#linearGradient-16)" points="14.8393753 3.31766128 86.1436026 126.795922 86.1436026 128.100269 13.5350297 2.66548737 13.9698116 2.88287868 14.4045935 3.10026998"></polygon>
                <path d="M82.8827385,119.8394 L82.4479567,118.969835 C82.4479567,118.969835 82.0131748,123.317661 77.2305741,126.36114 C72.6653645,129.187226 68.5349367,127.230705 68.5349367,127.230705 L68.9697186,128.100269 C68.9697186,128.100269 72.4479735,130.491574 77.6653561,127.230705 C82.8827385,124.187227 82.8827385,119.8394 82.8827385,119.8394 Z M77.4479651,110.708965 L77.0131832,109.8394 C77.0131832,109.8394 75.9262286,114.187227 71.3610189,116.795922 C67.2305911,119.404618 63.1001632,118.10027 63.1001632,118.10027 L63.5349452,118.969835 C63.5349452,118.969835 67.2305911,120.491574 72.0131917,117.665487 C76.7957923,114.8394 77.4479651,110.708965 77.4479651,110.708965 L77.4479651,110.708965 Z" id="Shape" fill="#3C98EA"></path>
                <path d="M72.2305826,101.57853 L71.7958008,100.708966 C71.7958008,100.708966 69.8392824,104.404618 65.7088545,106.795922 C62.0132086,108.969835 57.8827808,108.969835 57.8827808,108.969835 L58.3175626,109.8394 C58.3175626,109.8394 62.2305996,109.8394 66.1436364,107.665487 C70.2740642,105.274183 72.2305826,101.57853 72.2305826,101.57853 Z" id="Path" fill="#4CA4ED"></path>
                <path d="M67.0132002,92.448096 L66.5784183,91.5785307 C66.5784183,91.5785307 63.7523361,95.2741829 60.0566902,97.2307046 C56.5784352,99.1872264 52.4480074,99.8394006 52.4480074,99.8394006 L52.8827893,100.708966 C52.8827893,100.708966 57.0132171,100.056792 60.4914721,98.1002699 C63.969727,96.1437481 67.0132002,92.448096 67.0132002,92.448096 Z" id="Path" fill="#4DA7EE"></path>
                <path d="M45.4914974,55.4915743 L45.9262793,56.3611395 C45.9262793,56.3611395 42.2306333,58.1002699 38.5349874,60.0567917 C35.0567325,62.0133134 32.0132593,64.622009 32.0132593,64.622009 L31.5784775,63.7524438 C31.5784775,63.7524438 34.8393415,61.1437481 38.1002056,59.1872264 C41.7958515,57.2307047 45.4914974,55.4915743 45.4914974,55.4915743 Z" id="Path" fill="url(#linearGradient-17)"></path>
                <path d="M40.2741149,46.3611395 L40.7088968,47.2307047 C40.7088968,47.2307047 36.578469,48.5350525 33.1002141,50.7089656 C29.621959,52.6654873 26.7958769,55.7089656 26.7958769,55.7089656 L26.3610949,54.8394003 C26.3610949,54.8394003 29.1871771,51.7959221 32.6654321,49.8394003 C36.1436872,47.448096 40.2741149,46.3611395 40.2741149,46.3611395 Z" id="Path" fill="url(#linearGradient-18)"></path>
                <path d="M30.4915228,39.1872264 C33.317605,38.3176613 35.4915143,37.8828787 35.4915143,37.8828787 L35.0567325,37.0133134 C35.0567325,37.0133134 33.1002141,37.2307047 30.9263046,38.10027 C29.621959,38.5350525 29.4045681,39.6220091 30.4915228,39.1872264 L30.4915228,39.1872264 Z" id="Path" fill="#9DD4F7"></path>
                <path d="M24.4045765,18.9698352 L24.8393584,19.8394004 C24.8393584,19.8394004 20.7089306,18.7524439 15.92633,21.3611395 C11.7959022,23.9698352 10.9263385,28.1002699 10.9263385,28.1002699 L10.4915565,27.2307047 C10.4915565,27.2307047 10.9263385,23.5350526 15.4915565,20.7089656 C20.2741488,17.6654874 24.4045765,18.9698352 24.4045765,18.9698352 L24.4045765,18.9698352 Z" id="Path" fill="url(#linearGradient-19)"></path>
                <path d="M19.1871941,9.62200911 L19.8393668,10.4915743 C19.8393668,10.4915743 15.4915482,8.75244388 10.4915565,11.5785308 C5.70895598,14.6220091 5.70895598,18.7524439 5.70895598,18.7524439 L5.05678317,17.8828786 C5.05678317,17.8828786 4.6220013,14.1872265 9.83938378,10.926357 C15.2741572,7.66548737 19.1871941,9.62200911 19.1871941,9.62200911 L19.1871941,9.62200911 Z" id="Path" fill="url(#linearGradient-20)"></path>
            </g>
            <g id="Group" transform="translate(44.7257, 57.5519)">
                <path d="M45.9262793,85.4915743 C64.8392908,52.8828786 86.5783844,15.0567917 86.5783844,15.0567917 C89.4044666,10.274183 87.6653392,4.1872265 82.8827385,1.36113955 C78.1001379,-1.46494741 72.0131917,0.274183025 69.1871095,5.05679171 C69.1871095,5.05679171 42.6654153,51.1437482 22.665449,85.4915743 L45.9262793,85.4915743 L45.9262793,85.4915743 Z M34.1871687,105.491574 C25.0567494,121.143748 18.7524122,132.448096 18.7524122,132.448096 C15.92633,137.230704 9.83938378,138.969835 5.05678317,136.143748 C0.274182562,133.317662 -1.46494493,127.230705 1.36113725,122.448096 C1.36113725,122.448096 5.05678317,115.708965 10.9263385,105.708965 C18.3176303,105.491574 31.7958684,105.491574 34.1871687,105.491574 L34.1871687,105.491574 Z" id="Shape" fill="#FFFFFF"></path>
                <path d="M43.534979,85.4915743 C62.6653814,52.448096 84.839257,13.9698352 84.839257,13.9698352 C87.0131663,10.274183 85.7088207,5.27418302 82.0131748,3.10026998 L81.7957838,2.88287868 C78.1001379,0.708965634 73.1001464,2.01331346 70.926237,5.70896562 C70.926237,5.70896562 44.8393246,50.9263569 24.8393584,85.4915743 L43.534979,85.4915743 L43.534979,85.4915743 Z M32.0132593,105.491574 C23.3176218,120.708965 17.0132847,131.578531 17.0132847,131.578531 C14.8393753,135.274182 10.0567747,136.578531 6.14373785,134.404618 L5.70895598,134.404618 C2.01331006,132.230704 0.708964436,127.448096 2.88287381,123.535053 C2.88287381,123.535053 7.01330161,116.36114 13.3176387,105.491574 L32.0132593,105.491574 Z" id="Shape" fill="url(#linearGradient-21)"></path>
                <path d="M42.8828062,85.4915743 L86.1436026,10.7089657 L86.1436026,9.4046178 C86.1436026,9.4046178 62.2305996,50.9263569 42.2306333,85.4915743 L42.8828062,85.4915743 L42.8828062,85.4915743 Z M31.1436955,105.491574 L14.6219844,134.187226 L13.9698116,134.622009 L13.3176387,134.8394 C13.3176387,134.8394 20.7089306,122.013313 30.2741319,105.491574 L31.1436955,105.491574 Z" id="Shape" fill="url(#linearGradient-22)"></path>
                <path d="M39.6219421,85.4915743 L85.2740388,6.57853085 L85.0566479,6.14374824 L84.839257,5.70896562 C84.839257,5.70896562 59.8392992,48.9698352 38.9697693,85.2741829 L39.6219421,85.4915743 L39.6219421,85.4915743 Z M28.1002224,105.491574 L10.7089476,135.491574 L9.83938378,135.491574 C9.83938378,135.491574 17.2306757,122.665487 27.2306587,105.274183 C27.6654406,105.491574 28.1002224,105.491574 28.1002224,105.491574 L28.1002224,105.491574 Z" id="Shape" fill="url(#linearGradient-23)"></path>
                <path d="M34.8393415,85.4915743 C56.3610442,48.3176612 82.2305657,3.31766128 82.2305657,3.31766128 L81.5783929,2.88287868 L33.7523868,85.4915743 L34.8393415,85.4915743 L34.8393415,85.4915743 Z M23.1002309,105.708965 C13.5350297,122.448096 6.36112879,134.8394 6.36112879,134.8394 L5.70895598,134.404618 C5.70895598,134.404618 12.665466,122.230705 22.2306672,105.708965 C22.665449,105.491574 22.4480581,105.491574 23.1002309,105.708965 Z" id="Shape" fill="url(#linearGradient-24)"></path>
                <path d="M29.621959,85.4915743 C51.1436618,48.3176612 77.882747,1.79592216 77.882747,1.79592216 L77.0131832,1.79592216 C77.0131832,1.79592216 50.274098,48.1002699 28.7523953,85.4915743 L29.621959,85.4915743 Z M17.0132847,105.491574 C8.31764723,120.491574 2.44809193,130.708965 2.44809193,130.708965 L2.66548286,131.143748 L2.88287381,131.578531 C2.88287381,131.578531 9.18721097,120.708965 18.1002394,105.491574 L17.0132847,105.491574 Z" id="Shape" fill="url(#linearGradient-25)"></path>
                <path d="M26.3610949,85.4915743 L74.187101,2.66548737 L73.7523192,2.88287868 L73.3175373,3.10026998 L73.1001464,3.31766128 C73.1001464,3.31766128 46.5784521,49.1872265 25.7089222,85.4915743 L26.3610949,85.4915743 Z M14.8393753,105.491574 C7.23069254,118.752444 1.79591912,128.100269 1.79591912,128.100269 L1.79591912,126.36114 C1.79591912,126.36114 6.57851973,118.10027 13.9698116,105.274183 C14.4045935,105.491574 14.4045935,105.491574 14.8393753,105.491574 Z" id="Shape" fill="url(#linearGradient-26)"></path>
                <path d="M68.7523276,9.18722649 L68.3175458,10.0567917 C68.3175458,10.0567917 72.2305826,8.10026997 77.4479651,10.926357 C82.2305657,13.5350525 82.4479567,18.1002699 82.4479567,18.1002699 L82.8827385,17.2307048 C82.8827385,17.2307048 83.3175204,13.10027 77.882747,10.0567917 C72.4479735,7.01331346 68.7523276,9.18722649 68.7523276,9.18722649 Z" id="Path" fill="url(#linearGradient-27)"></path>
                <path d="M63.5349452,18.5350525 L63.1001632,19.4046178 C63.1001632,19.4046178 67.447982,18.1002699 72.0131917,20.7089656 C76.3610105,23.1002699 77.2305741,27.2307047 77.2305741,27.2307047 L77.6653561,26.3611395 C77.6653561,26.3611395 77.2305741,22.448096 72.4479735,19.8394004 C67.447982,17.0133135 63.5349452,18.5350525 63.5349452,18.5350525 Z" id="Path" fill="url(#linearGradient-28)"></path>
                <path d="M58.1001717,27.6654873 L57.6653899,28.5350526 C57.6653899,28.5350526 61.5784268,28.3176613 65.9262454,30.9263569 C69.8392824,33.10027 71.7958008,36.5785308 71.7958008,36.5785308 L72.2305826,35.7089656 C72.2305826,35.7089656 70.2740642,32.2307047 66.3610274,30.0567917 C62.2305996,27.6654873 58.1001717,27.6654873 58.1001717,27.6654873 L58.1001717,27.6654873 Z" id="Path" fill="url(#linearGradient-29)"></path>
                <path d="M52.8827893,37.0133134 L52.4480074,37.8828787 C52.4480074,37.8828787 56.7958262,38.5350525 60.4914721,40.7089655 C63.969727,42.6654874 66.5784183,45.9263569 66.5784183,45.9263569 L67.0132002,45.0567917 C67.0132002,45.0567917 64.4045089,41.7959221 60.9262539,39.8394004 C57.230608,37.6654873 52.8827893,37.0133134 52.8827893,37.0133134 Z" id="Path" fill="url(#linearGradient-30)"></path>
                <path d="M47.4480159,46.1437482 L47.0132339,47.0133134 C47.0132339,47.0133134 51.1436618,48.1002699 54.8393077,50.2741829 C58.3175626,52.2307047 61.1436448,55.0567916 61.1436448,55.0567916 L61.5784268,54.1872265 C61.5784268,54.1872265 58.7523446,51.3611395 55.2740896,49.4046178 C51.7958345,47.448096 47.4480159,46.1437482 47.4480159,46.1437482 Z" id="Path" fill="url(#linearGradient-31)"></path>
                <path d="M42.2306333,55.274183 L41.5784606,56.1437482 C41.5784606,56.1437482 45.4914974,57.6654873 49.1871434,59.8394003 C52.6653983,61.7959221 55.7088715,64.1872264 55.7088715,64.1872264 L56.1436533,63.3176613 C56.1436533,63.3176613 53.1001802,60.9263569 49.6219252,58.9698351 C46.1436702,57.0133134 42.2306333,55.274183 42.2306333,55.274183 L42.2306333,55.274183 Z" id="Path" fill="url(#linearGradient-32)"></path>
                <polygon id="Path" fill="url(#linearGradient-33)" points="36.3610781 65.4915743 36.7958599 64.622009 50.9262708 72.6654872 50.491489 73.5350525"></polygon>
                <path d="M31.1436955,74.8394003 L31.5784775,73.9698351 C31.5784775,73.9698351 35.0567325,76.5785308 38.7523784,78.5350525 C42.2306333,80.4915742 45.7088884,82.0133133 45.7088884,82.0133133 L45.2741064,82.6654873 C45.2741064,82.6654873 41.5784606,81.1437482 38.1002056,79.1872265 C34.4045596,77.2307046 31.1436955,74.8394003 31.1436955,74.8394003 L31.1436955,74.8394003 Z" id="Path" fill="url(#linearGradient-34)"></path>
                <path d="M27.6654406,85.4915743 C26.578486,84.622009 25.9263131,83.9698351 25.9263131,83.9698351 L26.3610949,83.1002699 C26.3610949,83.1002699 27.6654406,84.1872264 29.4045681,85.4915743 L27.6654406,85.4915743 L27.6654406,85.4915743 Z" id="Path" fill="#73B9F1"></path>
                <path d="M19.1871941,105.491574 C20.0567578,106.143748 20.9263216,106.795922 22.0132763,107.448096 C25.9263131,109.622009 29.83935,109.404618 29.83935,109.404618 L29.4045681,110.274183 C29.4045681,110.274183 25.4915312,110.491574 21.5784943,108.317661 C20.0567578,107.448096 18.7524122,106.361139 17.8828484,105.491574 L19.1871941,105.491574 L19.1871941,105.491574 Z" id="Path" fill="url(#linearGradient-35)"></path>
                <path d="M9.83938378,111.578531 L10.2741656,110.708965 C10.2741656,110.708965 11.3611203,115.056792 16.1437209,117.665487 C20.4915397,120.056792 24.4045765,118.752444 24.4045765,118.752444 L23.9697947,119.622009 C23.9697947,119.622009 20.4915397,121.143748 15.7089391,118.535052 C10.7089476,115.708965 9.83938378,111.578531 9.83938378,111.578531 Z" id="Path" fill="url(#linearGradient-36)"></path>
                <path d="M4.40461036,120.926356 L4.83939224,120.056792 C4.83939224,120.056792 5.27417411,124.622009 10.4915565,127.448096 C15.2741572,130.056792 18.9698031,128.100269 18.9698031,128.100269 L18.3176303,128.969835 C18.3176303,128.969835 15.0567662,131.36114 9.83938378,128.317661 C4.40461036,125.274183 4.40461036,120.926356 4.40461036,120.926356 L4.40461036,120.926356 Z" id="Path" fill="url(#linearGradient-37)"></path>
            </g>
            <g id="Group" transform="translate(65.189, 0)">
                <path d="M54.3760091,236.304347 L147.41933,40.8695652 L123.941109,29.7826087 L26.9847511,233.043478 C26.9847511,233.043478 30.0282242,234.565218 33.941261,236.304347 L54.3760091,236.304347 Z" id="Path" fill="url(#linearGradient-38)"></path>
                <path d="M109.375916,18.0434782 L152.854103,38.6956521 L152.854103,101.086956 C137.854129,93.9130434 37.4195161,46.0869565 37.4195161,46.0869565 C37.4195161,46.0869565 44.376026,31.5217391 50.8977541,18.0434782 L109.375916,18.0434782 Z" id="Path" fill="url(#radialGradient-39)"></path>
                <path d="M1.55001146,227.608696 C0.897838654,228.913043 -0.189116029,230.434782 0.0282749075,232.826087 C0.245665844,241.739131 14.8108586,250 23.2891052,250 C29.1586604,250 31.1151789,247.608695 33.2890882,243.260869 C35.4629976,238.913043 3.94131177,222.391305 1.55001146,227.608696 L1.55001146,227.608696 Z" id="Path" fill="url(#radialGradient-40)"></path>
                <path d="M101.767233,42.6086956 C101.767233,42.6086956 124.1585,48.0434782 125.897627,49.5652173 C127.636755,51.0869565 123.071545,59.7826087 122.201981,61.0869564 C115.02808,69.7826086 92.636814,117.826087 92.636814,117.826087 L71.984675,106.086956 C71.984675,106.086956 90.4629046,71.7391303 96.9846322,59.5652173 C101.115061,51.3043477 101.767233,42.6086956 101.767233,42.6086956 Z" id="Path" fill="url(#linearGradient-41)"></path>
                <path d="M153.506276,31.3043478 C157.419313,34.1304347 162.636696,33.4782608 166.767123,32.826087 C169.593206,32.3913043 165.245387,36.5217391 160.462786,46.0869565 C155.680185,55.6521739 155.897576,56.3043477 155.245404,55.6521739 C154.593231,55 133.071528,42.8260869 133.723701,41.7391304 C134.593264,40.6521739 138.07152,16.9565218 139.810648,17.6086956 C146.114985,19.1304348 147.201939,26.7391304 153.506276,31.3043478 L153.506276,31.3043478 Z" id="Path" fill="url(#linearGradient-42)"></path>
                <path d="M120.028072,58.0434782 C121.549809,55.6521739 128.506318,40.8695652 139.593256,40.8695652 C144.593248,40.8695652 154.158449,53.4782608 155.028013,55.2173913 C155.680185,56.7391304 153.506276,62.8260868 152.419322,60 C151.114976,56.7391304 145.680202,49.7826086 139.810648,49.7826086 C133.941092,49.7826086 125.897627,56.521739 123.941109,58.9130434 C121.98459,61.0869564 118.506336,60.4347825 120.028072,58.0434782 L120.028072,58.0434782 Z" id="Path" fill="url(#linearGradient-43)"></path>
                <path d="M119.59329,57.173913 C120.680245,55.4347826 125.680237,47.8260869 128.071537,45.4347826 C130.462837,43.0434782 136.549783,36.7391304 141.767166,35.8695652 C146.984549,35 152.419322,45.6521739 150.680194,47.8260869 C149.375848,49.347826 147.201939,47.6086956 144.593248,45.4347826 C141.984557,43.4782608 140.245429,39.5652174 131.984574,45.8695652 C129.158491,48.0434782 126.332409,49.7826086 119.810681,59.1304347 C118.071553,61.5217391 118.506336,58.9130434 119.59329,57.173913 L119.59329,57.173913 Z" id="Path" fill="url(#linearGradient-44)"></path>
                <path d="M92.636814,120.652174 C93.5063777,118.913043 94.5933324,116.304347 92.2020321,114.347826 C89.5933408,112.391304 77.4194484,105.869565 75.245539,105.434783 C73.0716297,105 71.3325022,105.434783 70.4629384,106.956522 C69.5933747,108.478261 2.85435708,222.826087 1.55001146,226.086956 C0.245665844,229.347825 0.0282749075,231.73913 1.98479334,232.391304 C3.94131177,233.043478 26.3325783,243.695651 28.5064876,246.086956 C30.680397,248.47826 31.7673517,245.869565 32.6369155,244.565217 C36.7673432,239.347826 91.5498593,122.391304 92.636814,120.652174 Z" id="Path" fill="url(#linearGradient-45)"></path>
                <path d="M121.115026,56.7391304 C122.201981,55.2173913 124.810673,50.8695652 128.071537,46.9565216 C130.245446,44.3478261 141.984557,38.6956521 144.593248,29.5652174 C146.114985,24.5652173 143.723684,19.5652173 140.46282,17.3913043 C129.375882,10.6521739 110.24548,0 82.202049,0 C63.2890375,0 55.2455729,6.30434782 55.2455729,6.30434782 L64.8107741,6.30434782 L98.0715878,19.3478261 L102.202016,36.7391304 C102.202016,36.7391304 102.636797,42.6086956 100.680279,49.347826 C99.3759332,54.7826086 98.9411507,58.0434782 96.9846322,63.4782608 C98.5063693,64.1304347 101.984624,61.7391304 105.897661,62.8260868 C109.375916,63.6956521 111.549826,68.4782608 113.941126,65.6521738 C118.071553,60.2173913 119.375899,59.1304347 121.115026,56.7391304 L121.115026,56.7391304 Z" id="Path" fill="url(#linearGradient-46)"></path>
                <path d="M101.549842,43.2608695 C99.8107146,27.173913 95.8976776,11.9565218 55.028182,12.1739131 C57.6368731,9.56521738 63.9412103,6.95652173 63.9412103,6.95652173 L55.028182,6.30434782 C55.028182,6.30434782 56.3325275,5.2173913 58.9412188,4.99999999 C82.8542218,3.04347826 104.158534,8.04347825 102.636797,39.1304348 C102.419406,44.1304348 101.984624,46.3043478 101.549842,43.2608695 Z" id="Path" fill="url(#linearGradient-47)"></path>
                <path d="M55.028182,12.1739131 C57.8542641,11.0869565 61.767301,10.4347826 69.1585928,10.8695652 C78.2890121,11.3043478 89.8107318,14.7826087 94.5933324,19.1304348 C96.9846322,21.3043478 96.7672415,19.5652173 94.1585505,16.7391305 C87.4194315,8.91304347 77.2020574,7.17391303 63.9412103,6.95652173 C62.4194737,6.73913042 57.4194822,9.56521738 55.028182,12.1739131 L55.028182,12.1739131 Z" id="Path" fill="url(#linearGradient-48)"></path>
                <path d="M167.201905,32.826087 L179.158407,38.9130434 C179.158407,38.9130434 174.593197,44.9999999 170.897551,51.9565217 C166.984514,59.347826 164.375823,67.3913042 164.375823,67.3913042 L152.854103,60.4347825 C152.854103,60.4347825 155.680185,52.6086956 159.810613,44.9999999 C163.071477,38.6956521 167.201905,32.826087 167.201905,32.826087 L167.201905,32.826087 Z" id="Path" fill="url(#linearGradient-49)"></path>
                <path d="M179.158407,38.9130434 C180.02797,39.3478261 177.201888,46.0869565 173.07146,53.9130434 C168.941033,61.7391304 165.027996,67.8260869 164.375823,67.3913042 C163.506259,66.9565217 166.332342,60.2173913 170.46277,52.3913043 C174.375807,44.5652173 178.288843,38.4782608 179.158407,38.9130434 L179.158407,38.9130434 Z" id="Path" fill="#BFC0D0"></path>
            </g>
        </g>
    </g>
</svg>