<?xml version="1.0" encoding="UTF-8"?>
<svg width="250px" height="250px" viewBox="0 0 250 250" version="1.1" xmlns="http://www.w3.org/2000/svg" xmlns:xlink="http://www.w3.org/1999/xlink">
    <title>Xcode</title>
    <g id="Xcode" stroke="none" stroke-width="1" fill="none" fill-rule="evenodd" fill-opacity="0.75">
        <g transform="translate(19.000000, 15.207059)" fill="#141414">
            <path d="M89.2084265,6.83879858 L89.242,7.068 L89.2137792,7.24752883 C87.9813915,15.5804585 94.0663816,24.3143927 103.757843,24.5074514 L104.085882,24.5107115 C104.924549,24.5107115 105.742239,24.520504 106.538876,24.5397861 L107.718033,24.5757883 L108.865556,24.6257975 C116.032901,24.9863982 121.29347,26.1760765 124.582613,27.9350189 C126.948525,29.200243 127.795533,30.3686967 128.129084,32.5578336 C128.507736,35.0429661 128.193779,38.228352 127.161328,42.0706831 L126.929081,42.9040792 C126.564187,44.169209 126.12487,45.5018924 125.610269,46.9006911 L125.25604,47.8430026 L124.879447,48.8048092 L124.480436,49.7860161 C124.070196,50.7768916 123.626242,51.7967255 123.148319,52.8450918 L122.659065,53.902953 L122.147107,54.9797411 L121.612391,56.0753613 C121.521372,56.2595288 121.429402,56.444477 121.336481,56.6302039 L120.76752,57.7538948 C120.670787,57.9427289 120.573099,58.1323377 120.474456,58.3227194 L119.871123,59.4742679 L119.244805,60.6442698 C119.1385,60.8408026 119.031235,61.0381004 118.923009,61.2361611 L118.262107,62.4336654 L117.578078,63.6493863 C117.462143,63.8535193 117.345241,64.0584073 117.227373,64.2640484 L116.508548,65.5069167 C116.386806,65.7155624 116.264095,65.9249572 116.140413,66.1350992 L115.386663,67.4049018 C115.259094,67.6180247 115.130551,67.8318908 115.001035,68.0464982 L114.212234,69.343022 L113.399995,70.6572416 L112.564262,71.9890622 L111.704977,73.3383892 L110.822084,74.7051279 L109.915526,76.0891836 L108.985247,77.4904616 L108.03119,78.9088672 L107.053299,80.3443056 L106.051516,81.7966823 C105.882559,82.0401513 105.712603,82.2843221 105.541648,82.5291928 L104.503923,84.0067992 C104.249653,84.3667377 104.011368,84.7377069 103.789762,85.1186271 L90.8629954,107.357535 L78.5917448,128.514621 L71.1448071,141.386409 L63.2003862,155.1596 L59.4008781,161.768994 L53.9011612,171.375933 L50.6678657,177.058222 L47.9398008,181.886364 L46.0019366,185.347884 L44.914683,187.309726 L43.9906816,188.995744 L43.2295275,190.406661 L42.6308156,191.543202 L42.2881408,192.215986 C39.0911936,198.62713 38.6809417,205.603218 41.1768971,212.079591 L40,212.08 C17.90861,212.08 -1.15054397e-14,194.17139 0,172.08 L0,45.28 C-9.81084236e-15,23.18861 17.90861,5.28 40,5.28 L89.073662,5.27899578 C89.0926324,5.80085773 89.1377451,6.32160015 89.2084265,6.83879858 Z M175.573,60.209 L175.957142,60.760306 L176.254746,61.1759394 C176.303059,61.2423498 176.350996,61.3076784 176.39896,61.3724491 L176.690296,61.7585673 L176.842249,61.9544609 C178.015825,63.4542207 179.14952,64.6423341 180.980446,65.8662444 C184.581112,68.273165 189.163312,70.3151925 194.927423,72.2417469 C199.59244,73.8009478 204.672671,72.962353 208.561185,70.1057634 L208.56,172.08 C208.56,194.17139 190.65139,212.08 168.56,212.08 L102.368,212.079002 L103.07125,210.784072 L103.895502,209.241525 L104.74412,207.630255 L105.617393,205.949507 L106.515612,204.198523 L107.439066,202.376547 L108.388047,200.482821 L109.860012,197.506047 L110.874075,195.429636 C111.04529,195.077389 111.21761,194.722041 111.391042,194.363578 L112.445025,192.175286 L113.525984,189.911459 L114.634209,187.571341 L116.348304,183.916462 L117.525962,181.382305 L118.731901,178.769207 L119.966411,176.076412 L121.229782,173.303163 L122.522304,170.448703 L123.844267,167.512274 L125.883048,162.952286 L127.989703,158.203611 L129.432331,154.931741 L131.654283,149.862913 L133.174683,146.375241 L135.514653,140.979163 L137.926738,135.383329 L139.575342,131.540535 L142.109795,125.606097 L144.718973,119.46509 L146.500423,115.255064 L150.840395,104.953691 L151.778974,102.756127 L152.707438,100.613069 L153.320727,99.21454 L154.232031,97.1618507 L154.833756,95.8233683 L155.430785,94.5087936 L156.317439,92.5816195 L156.902556,91.3265361 L157.482839,90.0951381 L158.344111,88.2923123 L158.912133,87.1198499 L159.754828,85.4051299 L160.586197,83.7429876 L161.134085,82.6639967 L161.676839,81.608215 L162.214421,80.5755789 L162.746789,79.5660249 L163.273906,78.5794895 L163.795729,77.6159092 L164.568455,76.2134407 L165.076874,75.3069704 L165.57986,74.4232329 L166.077376,73.5621648 L166.56938,72.7237025 L167.055833,71.9077826 L167.536695,71.1143415 L168.011927,70.3433158 L168.481487,69.5946419 L168.945338,68.8682563 L169.403438,68.1640956 L169.855748,67.4820962 L170.302229,66.8221946 L170.74284,66.1843273 L171.177541,65.5684309 L171.606293,64.9744418 L172.029057,64.4022965 L172.445791,63.8519315 C172.514742,63.7620155 172.583441,63.6730044 172.651885,63.5848968 L173.059502,63.0670832 L173.46099,62.5708912 L173.85631,62.0962573 L174.245422,61.6431179 C174.309755,61.5693823 174.373827,61.4965397 174.437638,61.4245888 L174.817363,61.0035722 L175.190781,60.6038913 L175.573,60.209 Z" id="Combined-Shape"></path>
            <path d="M64.9258824,216.23282 C55.7117647,210.843417 52.6403922,205.069056 55.7117647,198.909738 C58.7831373,192.75042 79.1309804,157.334342 116.755294,92.6615036 C155.915294,37.2276422 151.692157,9.51071152 104.085882,9.51071152 C106.389412,7.20096729 108.30902,6.04609518 109.844706,6.04609518 C107.541176,5.27618044 105.621569,4.89122307 104.085882,4.89122307 C122.514118,-4.34775384 148.236863,-0.498180127 181.254118,16.4399442 C185.093333,27.2187506 191.62,31.0683243 200.834118,27.9886653 C207.744706,31.838239 211.2,33.7630259 211.2,33.7630259 C205.825098,47.6214912 201.985882,55.705596 199.682353,58.0153403 C195.075294,56.4755108 191.62,54.9356813 189.316471,53.3958518 C185.861176,51.0861076 173.191765,12.9753279 136.335294,100.745608 C99.4788235,188.515889 86.8094118,210.458459 82.2023529,216.23282 C79.1309804,220.082393 73.3721569,220.082393 64.9258824,216.23282 Z" id="Hammer"></path>
        </g>
    </g>
</svg>