<?xml version="1.0" encoding="UTF-8"?>
<svg width="250px" height="250px" viewBox="0 0 250 250" version="1.1" xmlns="http://www.w3.org/2000/svg" xmlns:xlink="http://www.w3.org/1999/xlink">
    <title>Email</title>
    <defs>
        <path d="M51.277704,1.55565594e-15 L198.722296,2.07168062e-15 C216.552671,-1.2037061e-15 223.018396,1.85651222 229.536914,5.34265408 C236.055433,8.82879593 241.171204,13.9445674 244.657346,20.4630859 C248.143488,26.9816044 250,33.4473292 250,51.277704 L250,123.722296 C250,141.552671 248.143488,148.018396 244.657346,154.536914 C241.171204,161.055433 236.055433,166.171204 229.536914,169.657346 C223.018396,173.143488 216.552671,175 198.722296,175 L51.277704,175 C33.4473292,175 26.9816044,173.143488 20.4630859,169.657346 C13.9445674,166.171204 8.82879593,161.055433 5.34265408,154.536914 C1.85651222,148.018396 2.91005773e-15,141.552671 -5.00845697e-15,123.722296 L1.38112041e-15,51.277704 C-8.02470732e-16,33.4473292 1.85651222,26.9816044 5.34265408,20.4630859 C8.82879593,13.9445674 13.9445674,8.82879593 20.4630859,5.34265408 C26.9816044,1.85651222 33.4473292,-9.03880902e-16 51.277704,1.55565594e-15 Z" id="path-1"></path>
    </defs>
    <g id="Email" stroke="none" stroke-width="1" fill="none" fill-rule="evenodd">
        <g transform="translate(0.000000, 38.000000)">
            <mask id="mask-2" fill="white">
                <use xlink:href="#path-1"></use>
            </mask>
            <use id="Envelope" fill="#141414" xlink:href="#path-1"></use>
            <path d="M-1.02355738,0.573863636 L124.5,100.426136 M248.976443,0.573863636 L123.976443,100.426136 M105.5,88.5 L-0.5,177.5 M145.346321,88.7915088 L251.346321,177.791509" id="Lines" stroke="#FAFEFD" stroke-width="15" stroke-linecap="round" stroke-linejoin="round" mask="url(#mask-2)"></path>
        </g>
    </g>
</svg>