<?xml version="1.0" encoding="UTF-8"?>
<svg width="250px" height="250px" viewBox="0 0 250 250" version="1.1" xmlns="http://www.w3.org/2000/svg" xmlns:xlink="http://www.w3.org/1999/xlink">
    <title>Email 2</title>
    <g id="Email" stroke="none" stroke-width="1" fill="none" fill-rule="evenodd">
        <path d="M125.212764,137.561753 C129.659684,137.561753 134.248544,135.136591 138.979344,130.286268 L236.055777,33.7062683 C231.703418,29.9020894 223.99218,28 212.922063,28 L33.3877039,28 C24.1154224,28 17.6342621,29.7595131 13.9442231,33.2785392 L111.304051,130.286268 C116.129606,135.136591 120.765843,137.561753 125.212764,137.561753 Z M2.57907551,203.298805 L81.6733068,125.397138 L2.43587179,47.9203187 C0.811957263,51.3196411 0,56.7964024 0,64.3506026 L0,186.727079 C0,194.564395 0.859691836,200.088304 2.57907551,203.298805 Z M36.8378511,222.223108 L216.717064,222.223108 C225.817669,222.223108 232.263907,220.50996 236.055777,217.083665 L155.71447,136.565737 L148.60464,143.703844 C140.831219,151.222626 132.915585,154.982018 124.857739,154.982018 C116.70515,154.982018 108.742145,151.222626 100.968724,143.703844 L94.0010091,136.565737 L13.9442231,216.798129 C18.3996852,220.414781 26.0308946,222.223108 36.8378511,222.223108 Z M247.420868,203.298805 C249.140289,199.990918 250,194.461972 250,186.711968 L250,64.2238981 C250,56.5683515 249.140289,51.133825 247.420868,47.9203187 L168.326693,125.326101 L247.420868,203.298805 Z" id="Shape" fill="#4F4F4F" fill-rule="nonzero"></path>
    </g>
</svg>