<?xml version="1.0" encoding="UTF-8"?>
<svg width="250px" height="250px" viewBox="0 0 250 250" version="1.1" xmlns="http://www.w3.org/2000/svg" xmlns:xlink="http://www.w3.org/1999/xlink">
    <title>Email</title>
    <g id="Email" stroke="none" stroke-width="1" fill="none" fill-rule="evenodd">
        <path d="M125.711726,137.561753 C130.178588,137.561753 134.788025,135.136591 139.540039,130.286268 L237.051793,33.7062683 C232.679917,29.9020894 224.934099,28 213.814341,28 L33.4748944,28 C24.1610331,28 17.6508094,29.7595131 13.9442231,33.2785392 L111.740642,130.286268 C116.587836,135.136591 121.244864,137.561753 125.711726,137.561753 Z M2.57907551,203.298805 L81.6733068,124.897768 L2.43587179,46.9243028 C0.811957263,50.3454157 0,55.8572844 0,63.459909 L0,186.62085 C0,194.508405 0.859691836,200.067723 2.57907551,203.298805 Z M36.9405131,222.223108 L217.626359,222.223108 C226.767774,222.223108 233.242919,220.50996 237.051793,217.083665 L156.350211,136.565737 L149.208498,143.703844 C141.400219,151.222626 133.449089,154.982018 125.355109,154.982018 C117.165962,154.982018 109.167248,151.222626 101.358968,143.703844 L94.3600081,136.565737 L13.9442231,216.798129 C18.4196649,220.414781 26.0850949,222.223108 36.9405131,222.223108 Z M247.420868,203.298805 C249.140289,199.969714 250,194.405326 250,186.605642 L250,63.3323923 C250,55.6277716 249.140289,50.1584084 247.420868,46.9243028 L168.326693,124.826276 L247.420868,203.298805 Z" id="Shape" fill="#141414" fill-rule="nonzero"></path>
    </g>
</svg>