<?xml version="1.0" encoding="UTF-8"?>
<svg width="250px" height="250px" viewBox="0 0 250 250" version="1.1" xmlns="http://www.w3.org/2000/svg" xmlns:xlink="http://www.w3.org/1999/xlink">
    <title>Facebook</title>
    <g id="Facebook" stroke="none" stroke-width="1" fill="none" fill-rule="evenodd">
        <path d="M125,0 C193.925313,0 250,56.0746867 250,125 C250,187.192344 204.339881,238.905412 144.784889,248.418325 L144.784889,156.15749 L173.144225,156.15749 L177.385919,124.886664 L144.784889,124.886664 C144.784889,124.886664 144.784889,106.003818 144.784889,101.209195 C144.784889,91.8295743 151.123214,87.0144159 157.856377,87.0144159 C164.589927,87.0144159 178.531297,86.8239715 178.531297,86.8239715 L178.531297,56.5729805 C178.531297,56.5729805 166.12588,55.1387396 153.457367,55.1387396 C142.812638,55.1387396 131.089953,58.1399315 121.702583,67.7965971 C112.155573,77.6173586 110.78391,89.3045899 110.78391,106.998467 C110.78391,112.116438 110.78391,124.886663 110.78391,124.886663 L82.3579281,124.886663 L82.3579281,156.15749 L110.78391,156.15749 L110.78391,249.16809 C48.5309253,242.084843 0,189.116354 0,125 C0,56.0746867 56.0746867,0 125,0 Z" id="circle_29_" fill="#4F4F4F" fill-rule="nonzero"></path>
    </g>
</svg>