<?xml version="1.0" encoding="UTF-8"?>
<svg width="250px" height="250px" viewBox="0 0 250 250" version="1.1" xmlns="http://www.w3.org/2000/svg" xmlns:xlink="http://www.w3.org/1999/xlink">
    <title>Facebook</title>
    <defs>
        <polygon id="path-1" points="0.0146484375 0.009765625 250 0.009765625 250 248.481445 0.0146484375 248.481445"></polygon>
    </defs>
    <g id="Facebook" stroke="none" stroke-width="1" fill="none" fill-rule="evenodd">
        <g id="f_logo_RGB-Black_1024">
            <g id="Group-3">
                <mask id="mask-2" fill="white">
                    <use xlink:href="#path-1"></use>
                </mask>
                <g id="Clip-2"></g>
                <path d="M250,125 C250,55.9643555 194.035645,0 125,0 C55.9643555,0 0,55.9643555 0,125 C0,187.391113 45.7106934,239.104004 105.46875,248.481445 L105.46875,161.132812 L73.7304688,161.132812 L73.7304688,125 L105.46875,125 L105.46875,97.4609375 C105.46875,66.1328125 124.130371,48.828125 152.683105,48.828125 C166.359131,48.828125 180.664062,51.2695312 180.664062,51.2695312 L180.664062,82.03125 L164.901855,82.03125 C149.373779,82.03125 144.53125,91.666748 144.53125,101.552002 L144.53125,125 L179.199219,125 L173.657227,161.132812 L144.53125,161.132812 L144.53125,248.481445 C204.289307,239.104004 250,187.391113 250,125" id="Fill-1" fill-opacity="0.75" fill="#141414" mask="url(#mask-2)"></path>
            </g>
            <path d="M173.657227,161.132812 L179.199219,125 L144.53125,125 L144.53125,101.552002 C144.53125,91.666748 149.373779,82.03125 164.901855,82.03125 L180.664062,82.03125 L180.664062,51.2695312 C180.664062,51.2695312 166.359131,48.828125 152.683105,48.828125 C124.130371,48.828125 105.46875,66.1328125 105.46875,97.4609375 L105.46875,125 L73.7304688,125 L73.7304688,161.132812 L105.46875,161.132812 L105.46875,248.481445 C111.832764,249.47998 118.355469,250 125,250 C131.644531,250 138.167236,249.47998 144.53125,248.481445 L144.53125,161.132812 L173.657227,161.132812" id="Fill-4" fill="#FFFFFE"></path>
        </g>
    </g>
</svg>