<?xml version="1.0" encoding="UTF-8"?>
<svg width="250px" height="250px" viewBox="0 0 250 250" version="1.1" xmlns="http://www.w3.org/2000/svg" xmlns:xlink="http://www.w3.org/1999/xlink">
    <title>GitHub</title>
    <g id="GitHub" stroke="none" stroke-width="1" fill="none" fill-rule="evenodd">
        <path d="M125.001035,4 C55.9739184,4 0,59.773297 0,128.576042 C0,183.616999 35.8166011,230.313417 85.4833368,246.78589 C91.7304906,247.939066 94.0240116,244.083456 94.0240116,240.793087 C94.0240116,237.822472 93.9080936,228.009128 93.8542745,217.599598 C59.0788657,225.13547 51.7408404,202.901242 51.7408404,202.901242 C46.0546471,188.502011 37.8617264,184.673218 37.8617264,184.673218 C26.5203892,176.941367 38.7166218,177.100213 38.7166218,177.100213 C51.2688884,177.97902 57.8782861,189.937808 57.8782861,189.937808 C69.0271165,208.982751 87.1206789,203.476799 94.2537777,200.293702 C95.3756986,192.242098 98.6151935,186.74646 102.190023,183.635566 C74.4255848,180.485476 45.2390809,169.80364 45.2390809,122.06957 C45.2390809,108.468691 50.1221279,97.3557029 58.118402,88.6315842 C56.8205341,85.4938721 52.5419168,72.8233738 59.3293314,55.6639462 C59.3293314,55.6639462 69.826123,52.3158156 93.7135169,68.433465 C103.684537,65.6732685 114.377976,64.2890444 125.001035,64.2415971 C135.624094,64.2890444 146.325812,65.6732685 156.315463,68.433465 C180.173877,52.3158156 190.656179,55.6639462 190.656179,55.6639462 C197.460153,72.8233738 193.179466,85.4938721 191.881598,88.6315842 C199.896502,97.3557029 204.746429,108.468691 204.746429,122.06957 C204.746429,169.917101 175.504036,180.452469 147.66922,183.536545 C152.152763,187.402471 156.147795,194.983728 156.147795,206.606259 C156.147795,223.27471 156.002898,236.689925 156.002898,240.793087 C156.002898,244.108211 158.25295,247.992703 164.589112,246.769387 C214.228938,230.278348 250,183.598433 250,128.576042 C250,59.773297 194.034361,4 125.001035,4" id="Fill-5" fill="#141414"></path>
    </g>
</svg>