<?xml version="1.0" encoding="UTF-8"?>
<svg width="250px" height="250px" viewBox="0 0 250 250" version="1.1" xmlns="http://www.w3.org/2000/svg" xmlns:xlink="http://www.w3.org/1999/xlink">
    <title>GitHub</title>
    <g id="GitHub" stroke="none" stroke-width="1" fill="none" fill-rule="evenodd">
        <path d="M125,3 C194.035744,3 250,58.964256 250,128 C250,183.502192 213.814433,230.527968 163.757629,246.843401 C163.771191,246.796516 163.791727,246.726577 163.791727,246.726577 C163.791727,246.726577 155.354835,242.774326 155.533848,235.715297 C155.730298,227.948737 155.533848,209.826699 155.533848,203.173938 C155.533848,191.754065 148.306267,183.659894 148.306267,183.659894 C148.306267,183.659894 204.992003,184.295935 204.992003,123.813327 C204.992003,100.476449 192.795822,88.3321907 192.795822,88.3321907 C192.795822,88.3321907 199.202343,63.4179004 190.5783,52.8510546 C180.91156,51.8071956 163.597602,62.0909903 156.205731,66.8954933 C156.205731,66.8954933 144.489245,62.0909903 125,62.0909903 C105.511142,62.0909903 93.7946566,66.8954933 93.7946566,66.8954933 C86.4027854,62.0909903 69.0888281,51.8071952 59.4220879,52.8510546 C50.7980447,63.4179004 57.2045653,88.3321907 57.2045653,88.3321907 C57.2045653,88.3321907 45.0079975,100.476449 45.0079975,123.813327 C45.0079975,184.295935 101.69412,183.659894 101.69412,183.659894 C101.69412,183.659894 95.9823433,190.113493 94.736222,199.601607 C90.7797091,200.944403 84.9590515,202.599311 80.2554858,202.599311 C67.952362,202.599311 58.5952152,190.640653 55.1664441,185.109634 C51.7837826,179.653203 44.8533949,175.074986 38.3910776,175.074986 C34.1338838,175.074986 32.0566272,177.203583 32.0566272,179.636154 C32.0566272,182.06892 38.0225883,183.766644 41.9605023,188.277246 C50.2641034,197.788415 50.112988,219.176484 79.6936464,219.176484 C82.9062064,219.176484 89.4622924,218.386228 94.398731,217.723645 C94.369283,224.458939 94.3615331,231.564272 94.4665392,235.715297 C94.6455529,242.774327 86.2086602,246.726577 86.2086602,246.726577 C86.2086602,246.726577 86.2288091,246.796516 86.2427581,246.843401 C36.1859541,230.527968 0,183.502192 0,128 C0,58.964256 55.9646436,3 125,3 Z" id="Path" fill="#141414" fill-rule="nonzero"></path>
    </g>
</svg>