<?xml version="1.0" encoding="UTF-8"?>
<svg width="250px" height="250px" viewBox="0 0 250 250" version="1.1" xmlns="http://www.w3.org/2000/svg" xmlns:xlink="http://www.w3.org/1999/xlink">
    <title>Twitter</title>
    <g id="Twitter" stroke="none" stroke-width="1" fill="none" fill-rule="evenodd" fill-opacity="0.75">
        <g id="Logo-black" transform="translate(1.000000, 24.000000)" fill="#141414" fill-rule="nonzero">
            <path d="M223.508227,50.5080242 C223.659963,52.6995858 223.659963,54.8911475 223.659963,57.1029079 C223.659963,124.495954 172.271785,202.220648 78.3062767,202.220648 L78.3062767,202.18025 C50.5485679,202.220648 23.3674589,194.282549 0,179.315294 C4.03619744,179.800063 8.09262645,180.042448 12.1591712,180.052547 C35.1624619,180.072746 57.5082267,172.366932 75.6053626,158.177328 C53.7451554,157.763254 34.5757465,143.533252 27.8790981,122.758864 C35.5367459,124.23337 43.4270567,123.93039 50.9430835,121.880219 C27.1102986,117.072922 9.96404631,96.1672421 9.96404631,71.8883746 C9.96404631,71.6661886 9.96404631,71.454102 9.96404631,71.2420154 C17.065326,75.1908661 25.0163315,77.3824278 33.1494211,77.6248125 C10.7024985,62.6474579 3.78330286,32.8341398 17.3384522,9.52481111 C43.2753199,41.3882998 81.5433272,60.7588771 122.623522,62.8090477 C118.506399,45.0947659 124.130774,26.5321376 137.402681,14.0796236 C157.978184,-5.23035752 190.338574,-4.24061999 209.679951,16.291384 C221.120902,14.0392262 232.086411,9.84799071 242.121268,3.90956555 C238.307617,15.7157203 230.326264,25.7443873 219.664229,32.117085 C229.790128,30.9253603 239.683364,28.2187311 249,24.0880918 C242.141499,34.3490442 233.50262,43.28698 223.508227,50.5080242 Z" id="white_background"></path>
        </g>
    </g>
</svg>