<?xml version="1.0" encoding="UTF-8"?>
<svg width="250px" height="250px" viewBox="0 0 250 250" version="1.1" xmlns="http://www.w3.org/2000/svg" xmlns:xlink="http://www.w3.org/1999/xlink">
    <title>Twitter</title>
    <g id="Twitter" stroke="none" stroke-width="1" fill="none" fill-rule="evenodd">
        <path d="M250,47.0471765 C243.125369,57.3255572 234.42366,66.3543925 224.395331,73.5943325 C224.491586,75.7964874 224.539536,78.0076998 224.539536,80.2288572 C224.539536,148.00515 172.964356,226.156078 78.6219056,226.156078 C49.6518465,226.156078 11.9030031,216.01249 0,203.11834 C4.01893288,203.599085 8.10535099,203.839368 12.2397196,203.839368 C36.2773069,203.839368 58.3919155,195.637762 75.9395388,181.878733 C53.4978035,181.465474 34.5564292,166.62952 28.0277501,146.255147 C38.2372248,147.857747 51.1901582,145.370555 51.1901582,145.370555 C51.1901582,145.370555 11.0874952,138.4874 10.0475097,94.4398609 C21.6436317,101.163715 33.2774033,100.852927 33.2774033,100.852927 C33.2774033,100.852927 10.1480274,86.6135086 10.4705367,58.1717891 C10.6609166,41.3952751 17.4030628,32.3749643 17.4030628,32.3749643 C61.2252366,86.3382392 123.120354,85.9690234 123.120354,85.9690234 C123.120354,85.9690234 121.793378,78.3058792 121.793378,74.2867688 C121.793378,45.9706074 144.754041,23 173.079792,23 C187.829257,23 201.155847,29.2306778 210.511454,39.2012897 C222.203121,36.893822 233.18335,32.6248379 243.087009,26.7502344 C238.612372,44.6663637 220.539784,55.1239357 220.539784,55.1239357 C220.539784,55.1239357 236.009567,53.405011 250,47.0471765 Z" id="Path" fill="#141414" fill-rule="nonzero"></path>
    </g>
</svg>