<?xml version="1.0" standalone="no"?>
<!DOCTYPE svg PUBLIC "-//W3C//DTD SVG 20010904//EN"
 "http://www.w3.org/TR/2001/REC-SVG-20010904/DTD/svg10.dtd">
<svg version="1.0" xmlns="http://www.w3.org/2000/svg"
 width="1024.000000pt" height="1024.000000pt" viewBox="0 0 1024.000000 1024.000000"
 preserveAspectRatio="xMidYMid meet">
<metadata>
Created by potrace 1.11, written by Peter Selinger 2001-2013
</metadata>
<g transform="translate(0.000000,1024.000000) scale(0.100000,-0.100000)"
fill="#000000" stroke="none">
<path d="M1960 9144 c0 -3 37 -67 83 -142 45 -75 87 -144 92 -154 13 -23 210
-350 532 -883 146 -242 273 -453 283 -470 9 -16 54 -91 100 -165 45 -74 90
-148 100 -165 24 -43 476 -793 578 -960 46 -77 92 -153 102 -170 9 -16 140
-235 291 -485 l274 -455 -1 -1122 -1 -1123 729 0 728 0 0 1115 0 1114 151 253
c83 139 159 264 168 278 14 20 254 419 312 518 9 15 137 227 284 472 147 245
275 457 284 472 114 195 418 694 423 696 5 2 8 8 8 12 0 5 131 227 291 492
161 266 299 497 309 513 9 17 50 84 90 150 40 66 86 141 101 168 l28 47 -717
0 -717 0 -51 -88 c-28 -48 -372 -620 -764 -1272 -392 -652 -718 -1195 -724
-1207 -6 -13 -14 -23 -18 -23 -5 0 -8 -4 -8 -8 0 -10 -94 -170 -108 -184 -7
-7 -19 4 -36 31 -14 22 -26 44 -26 48 0 3 -6 14 -14 22 -7 9 -25 36 -39 61
-13 25 -62 106 -107 180 -46 74 -92 151 -104 172 -12 20 -322 538 -691 1152
l-670 1115 -772 1 c-425 0 -773 -3 -773 -6z"/>
<path d="M2091 1540 c-3 -3 -6 -105 -6 -227 l0 -223 3042 0 3043 0 0 225 0
225 -267 0 c-3681 4 -5806 4 -5812 0z"/>
</g>
</svg>
