<?xml version="1.0" encoding="UTF-8"?>
<svg width="250px" height="250px" viewBox="0 0 250 250" version="1.1" xmlns="http://www.w3.org/2000/svg" xmlns:xlink="http://www.w3.org/1999/xlink">
    <title>C</title>
    <g id="C" stroke="none" stroke-width="1" fill="none" fill-rule="evenodd">
        <g id="c-1" transform="translate(13.7066, 0)" fill-rule="nonzero">
            <path d="M222.206936,73.503997 C222.293,69.6279156 221.358317,65.7973781 219.498776,62.3954129 C217.571436,59.1069823 214.79299,56.3991396 211.456052,54.5570652 C181.874089,37.4768933 152.281906,20.4205668 122.679503,3.38808583 C114.708316,-1.22090352 106.982395,-1.0573917 99.0623047,3.62313407 C87.2894736,10.5417278 28.3333426,44.3580156 10.7660711,54.5468457 C3.53068526,58.736836 0.0151870678,65.1546748 0.0151870678,73.4937775 L0.0151870678,176.506222 C-0.0594829555,180.300371 0.837605049,184.050557 2.6211523,187.400197 C4.54931446,190.788827 7.37935349,193.57642 10.7967295,195.453154 C28.364001,205.672643 87.3303515,239.448053 99.1031826,246.397305 C107.023273,251.077831 114.749193,251.241342 122.730601,246.632353 C152.305751,229.545368 181.897934,212.482229 211.507149,195.442935 C214.924525,193.5662 217.754565,190.778607 219.682727,187.389978 C221.466274,184.040338 222.363362,180.290152 222.288692,176.496003 L222.288692,73.503997 L222.206936,73.503997 Z" id="Path" fill="#004482"></path>
            <path d="M222.227375,176.506222 C222.304323,180.300617 221.4071,184.051369 219.62141,187.400197 C219.182971,188.197781 218.687753,188.962808 218.139586,189.689363 L111.111062,125 L211.456052,54.5570652 C214.789842,56.399793 217.564822,59.1076975 219.488557,62.3954129 C221.35617,65.7946463 222.293855,69.626469 222.206936,73.503997 C222.227375,107.841479 222.227375,176.506222 222.227375,176.506222 L222.227375,176.506222 Z" id="Path" fill="#00599C"></path>
            <path d="M219.488557,62.3954129 L2.59049388,187.400197 C0.814884492,184.052027 -0.0751446653,180.305456 0.00496759627,176.516442 L0.00496759627,73.4937775 C0.00496759627,65.1546748 3.53068526,58.736836 10.7558516,54.5468457 C28.3333426,44.3580156 87.2894736,10.5417278 99.0725242,3.60269509 C106.972176,-1.07783068 114.708316,-1.2413425 122.679503,3.36764686 C152.254654,20.4546318 181.846837,37.5177712 211.456052,54.5570652 C214.789842,56.399793 217.564822,59.1076975 219.488557,62.3954129 Z" id="Path" fill="#659AD2"></path>
            <path d="M115.40324,166.613758 C100.528002,166.634587 86.8211152,158.555343 79.6350894,145.530953 C79.2740014,144.890531 78.9333524,144.236484 78.6131423,143.568811 C69.6031837,124.960707 75.9294685,102.554592 93.3409754,91.4065168 C110.752482,80.258442 133.749628,83.8896285 146.879212,99.8600581 C147.420844,100.514105 147.901159,101.198811 148.442791,101.903956 C148.688058,102.241199 148.933326,102.578442 149.158154,102.925905 L184.99784,82.2825377 C184.125779,80.8790613 183.212839,79.5164628 182.259022,78.1947423 C181.758268,77.4895976 181.237075,76.8151113 180.74654,76.1508446 C154.924107,42.6048928 107.746086,34.3573127 72.0741509,57.152925 C36.4022153,79.9485373 24.0678671,126.226599 43.6625498,163.752301 C44.0100118,164.406348 44.3676933,165.050176 44.6844969,165.694004 C58.8051122,190.60779 84.9439312,206.304738 113.57107,207.061938 C142.198209,207.819138 169.130278,193.525938 184.548184,169.393458 L149.505616,148.208459 C141.968659,159.701196 129.146901,166.621191 115.40324,166.613758 L115.40324,166.613758 Z" id="Path" fill="#FFFFFF"></path>
        </g>
    </g>
</svg>