<?xml version="1.0" encoding="UTF-8"?>
<svg width="250px" height="250px" viewBox="0 0 250 250" version="1.1" xmlns="http://www.w3.org/2000/svg" xmlns:xlink="http://www.w3.org/1999/xlink">
    <title>C++</title>
    <g id="C++" stroke="none" stroke-width="1" fill="none" fill-rule="evenodd">
        <g id="c-plus-plus-svgrepo-com" transform="translate(13.8395, 0)" fill-rule="nonzero">
            <path d="M219.33539,187.503471 C221.077965,184.483477 222.161,181.081644 222.161,178.026937 L222.161,71.973063 C222.161,68.918356 221.077965,65.5165232 219.33539,62.5034713 L111.0805,125 L219.33539,187.503471 Z" id="Path" fill="#00599C"></path>
            <path d="M120.702848,247.70897 L212.538652,194.688975 C215.183756,193.161622 217.592814,190.523466 219.33539,187.503471 L111.0805,125 L2.82561022,187.503471 C4.56818556,190.523466 6.97724391,193.161622 9.62234831,194.688975 L101.458152,247.70897 C106.74836,250.763677 115.412639,250.763677 120.702848,247.70897 L120.702848,247.70897 Z" id="Path" fill="#004482"></path>
            <path d="M219.33539,62.5034713 C217.592814,59.4765343 215.183756,56.8453207 212.538652,55.3179672 L120.702848,2.29103027 C115.41264,-0.763676756 106.748361,-0.763676756 101.458152,2.29103027 L9.62234831,55.3179672 C4.3321395,58.3726743 1.57854885e-14,65.8705915 1.57854885e-14,71.9800056 L1.57854885e-14,178.026937 C1.57854885e-14,181.081644 1.08303488,184.483477 2.82561022,187.503471 L111.0805,125 L219.33539,62.5034713 Z" id="Path" fill="#659AD2"></path>
            <path d="M111.0805,199.055818 C70.2445312,199.055818 37.0245192,165.835879 37.0245192,125 C37.0245192,84.1641211 70.2445312,50.9441822 111.0805,50.9441822 C137.427406,50.9441822 162.003967,65.1277423 175.208661,87.9477923 L143.161937,106.498195 C136.523708,95.0574656 124.307598,88.0043368 111.0805,87.9755623 C90.6435225,88.0023348 74.0827534,104.563068 74.0559808,125 C74.0751041,145.442355 90.6381089,162.011535 111.0805,162.038323 C124.309025,162.008111 136.525463,154.952148 143.161937,143.508748 L175.208661,162.052208 C161.933416,184.911553 137.514978,198.998981 111.0805,199.048875 L111.0805,199.055818 Z" id="Path" fill="#FFFFFF"></path>
            <path d="M185.136481,120.890031 L176.895696,120.890031 L176.895696,112.656207 L168.668797,112.656207 L168.668797,120.890031 L160.441897,120.890031 L160.441897,129.116912 L168.668797,129.116912 L168.668797,137.343793 L176.895696,137.343793 L176.895696,129.116912 L185.129538,129.116912 L185.129538,120.890031 L185.136481,120.890031 Z M215.98909,120.890031 L207.76219,120.890031 L207.76219,112.656207 L199.528348,112.656207 L199.528348,120.890031 L191.301449,120.890031 L191.301449,129.116912 L199.528348,129.116912 L199.528348,137.343793 L207.755248,137.343793 L207.755248,129.116912 L215.982147,129.116912 L215.982147,120.890031 L215.98909,120.890031 Z" id="Shape" fill="#FFFFFF"></path>
        </g>
    </g>
</svg>