<?xml version="1.0" encoding="UTF-8"?>
<svg width="250px" height="250px" viewBox="0 0 250 250" version="1.1" xmlns="http://www.w3.org/2000/svg" xmlns:xlink="http://www.w3.org/1999/xlink">
    <title>CSS</title>
    <g id="CSS" stroke="none" stroke-width="1" fill="none" fill-rule="evenodd">
        <g id="css3-svgrepo-com" transform="translate(15, 0)" fill-rule="nonzero">
            <polyline id="Path" fill="#264DE4" points="20.4878049 224.609375 0 0 220 0 200 224.609375 110.243902 250"></polyline>
            <polyline id="Path" fill="#2965F1" points="110.243902 18.0664062 110.243902 230.46875 182.926829 210.449219 200 18.0664062"></polyline>
            <path d="M40.9756098,45.8984375 L110.243902,45.8984375 L110.243902,73.2421875 L43.4146341,73.2421875 M45.8536585,101.5625 L110.243902,101.5625 L110.243902,129.394531 L48.2926829,129.394531 M49.7560976,143.066406 L77.0731707,143.066406 L79.0243902,165.039062 L110.243902,173.339844 L110.243902,202.148438 L53.1707317,186.523438" id="Shape" fill="#EBEBEB"></path>
            <polygon id="Path" fill="#FFFFFF" points="110.243902 101.5625 110.243902 129.394531 143.902439 129.394531 140.487805 165.039062 110.243902 173.339844 110.243902 202.148438 166.341463 186.523438 179.02439 45.8984375 110.243902 45.8984375 110.243902 73.2421875 149.268293 73.2421875 146.585366 101.5625"></polygon>
        </g>
    </g>
</svg>