<?xml version="1.0" encoding="UTF-8"?>
<svg width="250px" height="250px" viewBox="0 0 250 250" version="1.1" xmlns="http://www.w3.org/2000/svg" xmlns:xlink="http://www.w3.org/1999/xlink">
    <title>HTML 5</title>
    <g id="HTML-5" stroke="none" stroke-width="1" fill="none" fill-rule="evenodd" fill-opacity="0.75">
        <g transform="translate(15.000000, 0.000000)" fill="#141414" fill-rule="nonzero" id="Combined-Shape">
            <path d="M220.214844,0 L200.195312,224.609375 L109.863281,250 L20.0195312,224.609375 L0,0 L220.214844,0 Z M179.199219,45.8984375 L41.015625,45.8984375 L41.5039062,53.2226562 L48.3398438,129.394531 L144.042969,129.394531 L140.625,165.039062 L109.863281,173.339844 L79.1015625,165.039062 L77.1484375,143.066406 L49.8046875,143.066406 L53.2226562,186.523438 L109.863281,202.148438 L110.351562,202.148438 L110.350625,202.013438 L166.503906,186.523438 L166.992188,181.640625 L173.339844,108.886719 L174.316406,101.5625 L73.7304688,101.5625 L71.2890625,73.2421875 L176.757812,73.2421875 L177.246094,67.3828125 L178.710938,53.2226562 L179.199219,45.8984375 Z"></path>
        </g>
    </g>
</svg>