<?xml version="1.0" encoding="UTF-8"?>
<svg width="250px" height="250px" viewBox="0 0 250 250" version="1.1" xmlns="http://www.w3.org/2000/svg" xmlns:xlink="http://www.w3.org/1999/xlink">
    <title>JavaScript</title>
    <g id="JavaScript" stroke="none" stroke-width="1" fill="none" fill-rule="evenodd">
        <g id="javascript-svgrepo-com" fill-rule="nonzero">
            <polygon id="Path" fill="#F7DF1E" points="0 0 250 0 250 250 0 250"></polygon>
            <path d="M65.7337302,208.918254 L84.865873,197.340079 C88.556746,203.884127 91.9142857,209.421032 99.9678574,209.421032 C107.687698,209.421032 112.554762,206.40119 112.554762,194.655159 L112.554762,114.774206 L136.048413,114.774206 L136.048413,194.987302 C136.048413,219.320635 121.784921,230.396429 100.975,230.396429 C82.1809523,230.396429 71.2714286,220.662698 65.7337302,208.91627" id="Path" fill="#000000"></path>
            <path d="M148.809523,206.400794 L167.938889,195.325 C172.974604,203.54881 179.519444,209.589683 191.098016,209.589683 C200.83254,209.589683 207.040079,204.722619 207.040079,198.009921 C207.040079,189.954762 200.663492,187.101587 189.923016,182.404365 L184.05119,179.885317 C167.100794,172.670635 155.856746,163.60873 155.856746,144.477381 C155.856746,126.856746 169.281746,113.430952 190.259523,113.430952 C205.195238,113.430952 215.935317,118.63373 223.653968,132.226984 L205.361904,143.973413 C201.334127,136.757937 196.972223,133.905556 190.259921,133.905556 C183.379365,133.905556 179.015873,138.26865 179.015873,143.973413 C179.015873,151.021825 183.379365,153.875396 193.447223,158.238889 L199.320238,160.755952 C219.290477,169.315079 230.534523,178.040477 230.534523,197.674206 C230.534523,218.820238 213.921032,230.398413 191.601984,230.398413 C169.786111,230.398413 155.689286,219.994444 148.809523,206.400794" id="Path" fill="#000000"></path>
        </g>
    </g>
</svg>