<?xml version="1.0" encoding="UTF-8"?>
<svg width="250px" height="250px" viewBox="0 0 250 250" version="1.1" xmlns="http://www.w3.org/2000/svg" xmlns:xlink="http://www.w3.org/1999/xlink">
    <title>Matlab</title>
    <defs>
        <linearGradient x1="61.6527174%" y1="89.2216981%" x2="50.7776579%" y2="43.7814465%" id="linearGradient-1">
            <stop stop-color="#551122" offset="0%"></stop>
            <stop stop-color="#552233" offset="23%"></stop>
            <stop stop-color="#553344" offset="36%"></stop>
            <stop stop-color="#664455" offset="51%"></stop>
            <stop stop-color="#556688" offset="66%"></stop>
            <stop stop-color="#2299DD" offset="84%"></stop>
        </linearGradient>
        <linearGradient x1="82.9772561%" y1="61.7440945%" x2="24.6104311%" y2="44.3425197%" id="linearGradient-2">
            <stop stop-color="#CC3333" offset="8.1%"></stop>
            <stop stop-color="#DE5239" offset="18.9%"></stop>
            <stop stop-color="#F06E3E" offset="31.3%"></stop>
            <stop stop-color="#FA8042" offset="42.1%"></stop>
            <stop stop-color="#FE8643" offset="50%"></stop>
            <stop stop-color="#FA7F42" offset="58%"></stop>
            <stop stop-color="#EF6C3E" offset="69.6%"></stop>
            <stop stop-color="#DC4C37" offset="83.3%"></stop>
            <stop stop-color="#CF3633" offset="91.6%"></stop>
        </linearGradient>
    </defs>
    <g id="Matlab" stroke="none" stroke-width="1" fill="none" fill-rule="evenodd">
        <g id="matlab" transform="translate(0, 11.2102)" fill-rule="nonzero">
            <path d="M0,127.232243 L71.1607143,98.4822202 C78.3838863,88.9367051 86.5173273,80.115503 95.4464286,72.1429138 C101.339286,69.0179114 112.410714,70.7143413 132.678571,45.5357501 C152.321429,20.9821593 158.571429,2.27373854e-14 167.767857,2.27373854e-14 C182.321429,2.27373854e-14 193.035714,31.4285961 209.285714,79.0179192 C220.871968,115.367868 234.464246,151.047627 250,185.893003 C233.035714,170.089419 218.571429,153.035834 202.053571,153.482263 C186.696429,153.839407 169.642857,172.053707 150.982143,195.446582 C136.160714,214.196597 116.517857,227.05375 108.839286,226.785892 C108.839286,226.785892 89.0178571,170.71442 72.4107143,161.60727 C65.4218882,158.752178 57.488538,159.416058 51.0714286,163.392985 L0,127.142957 L0,127.232243 Z" id="Path" fill="#4499DD"></path>
            <path d="M158.928571,6.42857648 C152.946429,14.4642971 145.714286,29.1964515 132.678571,45.5357501 C112.410714,70.7143413 101.428571,69.0179114 95.4464286,72.1429138 C86.4746728,80.0720507 78.3371219,88.8977102 71.1607143,98.4822202 L100.625,120.000094 C125.625,85.8929246 139.017857,48.9286099 149.464286,25.0000196 C152.080073,18.5493279 155.246534,12.3358904 158.928571,6.42857648 L158.928571,6.42857648 Z" id="Path" fill="url(#linearGradient-1)"></path>
            <path d="M167.857143,0 C148.392857,0 135.089286,102.500081 63.2142857,159.732268 C83.3928571,156.428694 100.892857,206.518019 108.928571,226.785892 C144.642857,220.714459 173.214286,152.410834 202.053571,153.482263 C218.571429,154.107264 233.035714,170.089419 250,185.893003 C211.25,104.464368 193.125,0 167.857143,0 Z" id="Path" fill="url(#linearGradient-2)"></path>
        </g>
    </g>
</svg>