<?xml version="1.0" encoding="UTF-8"?>
<svg width="250px" height="250px" viewBox="0 0 250 250" version="1.1" xmlns="http://www.w3.org/2000/svg" xmlns:xlink="http://www.w3.org/1999/xlink">
    <title>PL/SQL</title>
    <g id="PL/SQL" stroke="none" stroke-width="1" fill="none" fill-rule="evenodd">
        <g id="plsql-svgrepo-com" transform="translate(36, 0)" fill="#FF0000" fill-rule="nonzero">
            <path d="M22.5446791,118.357143 C43.8662826,125.851489 66.359629,129.459249 88.9555,129.008929 C111.551911,129.456383 134.045273,125.845596 155.366321,118.348214 C172.009205,111.857143 177.911,104.642857 177.911,100.491071 L177.911,68.75 C172.092383,72.6465935 165.849977,75.8696349 159.303827,78.3571429 C136.745248,86.434844 112.913509,90.3730181 88.9555,89.9821429 C64.999544,90.3656572 41.1701621,86.4339213 18.6071727,78.375 C12.0577734,75.8873153 5.81472948,72.6579532 1.01506268e-14,68.75 L1.01506268e-14,100.446429 C1.01506268e-14,104.678571 5.91965236,111.857143 22.5446791,118.357143 Z" id="Path"></path>
            <path d="M22.5446791,178.223214 C30.0769044,181.095729 37.8441312,183.309385 45.7590021,184.839286 C59.9915344,187.592578 74.459238,188.947241 88.9555,188.883929 C103.45147,188.950183 117.919171,187.598511 132.151998,184.848214 C140.066838,183.318182 147.834053,181.10453 155.366321,178.232143 C172.009205,171.741071 177.911,164.526786 177.911,160.375 L177.911,130.107143 C173.101325,133.001306 168.046067,135.466189 162.803833,137.473214 C139.105341,145.863926 114.091331,149.925559 88.9555,149.464286 C63.8169619,149.911235 38.802874,145.834469 15.1071671,137.428571 C9.86717769,135.41638 4.81236245,132.951714 1.01506268e-14,130.0625 L1.01506268e-14,160.357143 C1.01506268e-14,164.517857 5.91965236,171.705357 22.5446791,178.223214 Z" id="Path"></path>
            <path d="M88.9555,250 C138.062722,250 177.911,234.428571 177.911,215.232143 L177.911,189.901786 C173.535552,192.539291 168.95183,194.814725 164.205621,196.705357 L162.803833,197.267857 C139.109943,205.683433 114.095705,209.769297 88.9555,209.330357 C63.8143799,209.781968 38.797893,205.695736 15.1071671,197.267857 C14.6250235,197.089286 14.160737,196.883929 13.7053792,196.705357 C8.95917027,194.814725 4.37544771,192.539291 -1.01506268e-14,189.901786 L-1.01506268e-14,215.232143 C-1.01506268e-14,234.428571 39.8482783,250 88.9555,250 Z" id="Path"></path>
            <ellipse id="Oval" cx="88.9555" cy="34.7678571" rx="88.9555" ry="34.7678571"></ellipse>
        </g>
    </g>
</svg>