<?xml version="1.0" encoding="UTF-8"?>
<svg width="250px" height="250px" viewBox="0 0 250 250" version="1.1" xmlns="http://www.w3.org/2000/svg" xmlns:xlink="http://www.w3.org/1999/xlink">
    <title>Python</title>
    <g id="Python" stroke="none" stroke-width="1" fill="none" fill-rule="evenodd" fill-opacity="0.75">
        <g transform="translate(2.000000, 0.000000)" fill="#141414" fill-rule="nonzero">
            <path d="M122.441632,0.0020355866 C112.304477,0.0491973026 102.623721,0.914826472 94.105653,2.42397193 C69.0124907,6.86262849 64.4565451,16.1531172 64.4565429,33.286361 L64.4565429,55.9141663 L123.754763,55.9141663 L123.754763,63.4567681 L64.4565429,63.4567681 L42.2024324,63.4567681 C24.9687186,63.4567681 9.87838552,73.8281184 5.15832239,93.557977 C-0.286210724,116.172975 -0.527705366,130.285101 5.15832239,153.898791 C9.37345175,171.475909 19.4397515,184 36.6734608,184 L57.0615435,184 L57.0615435,156.874313 C57.0615435,137.277605 73.995996,119.991687 94.105653,119.991682 L153.334761,119.991682 C169.822046,119.991682 182.983871,106.399689 182.983871,89.8212752 L182.983871,33.286361 C182.983871,17.1962028 169.426877,5.10935428 153.334761,2.42397193 C143.148212,0.72618005 132.578787,-0.0451261294 122.441632,0.0020355866 Z M90.3735972,18.2011575 C96.4986958,18.2011575 101.500652,23.2911454 101.500652,29.5496592 C101.500652,35.7859898 96.4986958,40.8289628 90.3735972,40.8289628 C84.2265396,40.8289628 79.2465419,35.7859876 79.2465419,29.5496592 C79.2465419,23.2911476 84.2265396,18.2011575 90.3735972,18.2011575 Z" id="path1948"></path>
            <path d="M188.650368,65 L188.650368,91.3060806 C188.650368,111.70083 171.377871,128.866466 151.68152,128.866469 L92.5727444,128.866469 C76.3818607,128.866469 62.983871,142.738366 62.983871,158.970015 L62.983871,215.379635 C62.983871,231.434138 76.9295978,240.877218 92.5727444,245.483182 C111.305094,250.997069 129.268437,251.993568 151.68152,245.483182 C166.579756,241.165085 181.2704,232.474892 181.270393,215.379635 L181.270393,192.801982 L122.161618,192.801982 L122.161618,185.276096 L181.270393,185.276096 L210.859275,185.276096 C228.057978,185.276096 234.46692,173.266917 240.448127,155.241594 C246.626515,136.684805 246.363628,118.839445 240.448127,95.0345015 C236.197746,77.894943 228.079851,65 210.859275,65 L188.650368,65 Z M155.405993,207.853755 C161.540566,207.853755 166.510442,212.885559 166.510442,219.108056 C166.510442,225.352692 161.54056,230.431408 155.405993,230.431408 C149.293332,230.431408 144.301544,225.352692 144.301544,219.108056 C144.301544,212.885559 149.293325,207.853755 155.405993,207.853755 Z" id="path1950"></path>
        </g>
    </g>
</svg>