<?xml version="1.0" encoding="UTF-8"?>
<svg width="250px" height="250px" viewBox="0 0 250 250" version="1.1" xmlns="http://www.w3.org/2000/svg" xmlns:xlink="http://www.w3.org/1999/xlink">
    <title>Python</title>
    <defs>
        <linearGradient x1="14.1005621%" y1="13.1292063%" x2="76.5556241%" y2="76.9135585%" id="linearGradient-1">
            <stop stop-color="#387EB8" offset="0%"></stop>
            <stop stop-color="#366994" offset="100%"></stop>
        </linearGradient>
        <linearGradient x1="16.8765122%" y1="21.0111882%" x2="88.9026417%" y2="84.7973195%" id="linearGradient-2">
            <stop stop-color="#FFE052" offset="0%"></stop>
            <stop stop-color="#FFC331" offset="100%"></stop>
        </linearGradient>
    </defs>
    <g id="Python" stroke="none" stroke-width="1" fill="none" fill-rule="evenodd">
        <g id="python-svgrepo-com" fill-rule="nonzero">
            <path d="M123.649641,0.107725836 C60.4222409,0.107725836 64.4207061,27.6675855 64.4207061,27.6675855 L64.4207061,56.3047035 L124.549073,56.3047035 L124.549073,65.2818565 L40.4744414,65.2818565 C40.4744414,65.2818565 0,60.2546509 0,124.935038 C0,189.615425 35.736839,186.98512 35.736839,186.98512 L56.3703441,186.98512 L56.3703441,156.812908 C56.3703441,156.812908 55.2126593,120.787593 91.1008879,120.787593 L151.318308,120.787593 C151.318308,120.787593 184.908977,121.326223 184.908977,88.0030307 L184.908977,33.3231919 C184.908977,33.3231919 190.00279,0 123.979136,0 L123.979136,0 L123.649641,0.107725836 Z M90.4151823,19.2919018 C94.7866197,19.1807194 98.7940193,21.7351446 100.5686,25.7639657 C102.343181,29.7927868 101.535439,34.5025245 98.5220491,37.696875 C95.5086596,40.8912255 90.8831123,41.9410591 86.8024505,40.3568042 C82.7217888,38.7725492 79.9897018,34.866226 79.8802507,30.4594801 L79.8802507,30.279937 C79.8802507,24.2609922 84.720498,19.3816733 90.6912456,19.3816733 L90.6912456,19.3816733 L90.4151823,19.2919018 Z" id="Shape" fill="url(#linearGradient-1)"></path>
            <path d="M125.628905,249.982045 C189.088106,249.982045 185.074981,222.331643 185.074981,222.331643 L185.074981,193.7835 L124.735114,193.7835 L124.735114,184.806097 L209.377174,184.806097 C209.377174,184.806097 250,189.366618 250,125.061477 C250,60.7563369 214.132145,63.0096651 214.132145,63.0096651 L193.154857,63.0096651 L193.154857,92.7877121 C193.154857,92.7877121 194.316786,128.814032 158.296986,128.814032 L97.8319878,128.814032 C97.8319878,128.814032 64.0913566,128.30232 64.0913566,161.626441 L64.0913566,216.675879 C64.0913566,216.675879 58.9788689,250 125.244575,250 L125.602091,250 L125.628905,249.982045 Z M158.985206,230.70756 C154.597742,230.818746 150.575651,228.264249 148.794564,224.235316 C147.013477,220.206382 147.824181,215.496513 150.848618,212.302074 C153.873055,209.107634 158.51556,208.057771 162.611182,209.64207 C166.706804,211.226369 169.448908,215.132801 169.55876,219.53967 L169.55876,219.808992 C169.55876,225.828105 164.700768,230.70756 158.708131,230.70756 L158.976268,230.70756 L158.985206,230.70756 Z" id="Shape" fill="url(#linearGradient-2)"></path>
        </g>
    </g>
</svg>