<?xml version="1.0" encoding="UTF-8"?>
<svg width="250px" height="250px" viewBox="0 0 250 250" version="1.1" xmlns="http://www.w3.org/2000/svg" xmlns:xlink="http://www.w3.org/1999/xlink">
    <title>Bash</title>
    <g id="Bash" stroke="none" stroke-width="1" fill="none" fill-rule="evenodd">
        <g id="bash-2" transform="translate(15.251, 0)" fill-rule="nonzero">
            <path d="M203.527402,51.0512254 L124.605877,4.19577985 C115.225908,-1.39859328 103.533527,-1.39859328 94.1535575,4.19577985 L15.2189938,51.0512254 C5.72419815,56.7791613 -0.056638592,67.0801488 0.000418486818,78.1687493 L0.000418486818,171.865857 C-0.0509860091,182.948757 5.72911937,193.242358 15.2189938,198.967363 L94.1405193,245.80679 C103.521432,251.397737 115.211926,251.397737 124.592839,245.80679 L203.514364,198.967363 C213.015163,193.2433 218.802345,182.941597 218.748583,171.849839 L218.748583,78.1724745 C218.805511,67.0840065 213.024691,56.7831909 203.53001,51.0553231 L203.527402,51.0512254 Z" id="Path" fill="#FFFFFF"></path>
            <path d="M203.527402,51.0512254 L124.605877,4.19577985 C115.225908,-1.39859328 103.533527,-1.39859328 94.1535575,4.19577985 L15.2189938,51.0512254 C5.72419815,56.7791613 -0.056638592,67.0801488 0.000418486818,78.1687493 L0.000418486818,171.865857 C-0.0509860091,182.948757 5.72911937,193.242358 15.2189938,198.967363 L94.1405193,245.80679 C103.521432,251.397737 115.211926,251.397737 124.592839,245.80679 L203.514364,198.967363 C213.015163,193.2433 218.802345,182.941597 218.748583,171.849839 L218.748583,78.1724745 C218.805511,67.0840065 213.024691,56.7831909 203.53001,51.0553231 L203.527402,51.0512254 Z M96.903866,241.016195 L17.982713,194.176768 C10.1837902,189.450834 5.43369081,180.981896 5.46697851,171.862877 L5.46697851,78.1665141 C5.43057851,69.0466883 10.181479,60.5763222 17.982713,55.8526233 L96.9042385,8.99717783 C104.584912,4.41509851 114.159994,4.41509851 121.840668,8.99717783 L200.69663,55.8526233 C207.197379,59.7899153 211.631975,66.392607 212.817656,73.899681 C210.194377,68.3212083 204.300007,66.7886649 197.425539,70.7392294 L122.82002,116.946119 C113.511885,122.366271 106.653436,128.481917 106.63779,139.702563 L106.63779,231.707317 C106.63779,238.423835 109.339671,242.76927 113.511885,244.049245 C112.145607,244.299561 110.760299,244.431673 109.371335,244.444115 C104.982822,244.440917 100.676082,243.256467 96.903121,241.015077 L96.903866,241.016195 Z" id="Shape" fill="#2F3A3E"></path>
            <path d="M182.841416,180.921795 L163.182466,192.679614 C162.655971,192.891181 162.303123,193.39258 162.281714,193.959589 L162.281714,199.127173 C162.281714,199.759338 162.708621,200.011906 163.230148,199.712028 L183.189349,187.575358 C183.678258,187.208893 183.912091,186.593412 183.78985,185.994759 L183.78985,181.45934 C183.773832,180.874485 183.315633,180.621917 182.841416,180.922168 L182.841416,180.921795 Z" id="Path" fill="#3AB14A"></path>
            <path d="M140.998208,137.63769 C141.630373,137.321793 142.151899,137.63769 142.167918,138.538813 L142.230873,145.396889 C144.594881,144.322981 147.232223,144.003019 149.784443,144.480492 C150.274306,144.607148 150.479937,145.270605 150.290324,146.060718 L148.789072,152.081743 C148.675279,152.536125 148.440463,152.951172 148.109597,153.282745 C147.993462,153.397437 147.860259,153.493443 147.714727,153.567349 C147.536022,153.663935 147.329916,153.697279 147.129872,153.661969 C144.641161,153.110965 142.036005,153.52926 139.844889,154.831679 C136.641153,156.274808 134.546843,159.425103 134.456027,162.937693 C134.456027,166.098517 136.036253,166.967604 141.551399,167.062597 C148.836382,167.189253 151.997207,170.36535 152.076181,177.713661 C151.902715,185.384017 148.365927,192.590274 142.404467,197.419919 L142.531124,204.15171 C142.519879,204.987869 142.085539,205.761323 141.377432,206.206153 L137.395203,208.497517 C136.763038,208.813786 136.241511,208.497517 136.225493,207.612412 L136.225493,200.991259 C132.812473,202.413536 129.351398,202.745823 127.139379,201.860718 C126.728491,201.702397 126.538879,201.086251 126.712845,200.375112 L128.150769,194.291131 C128.260107,193.80961 128.507198,193.37031 128.861908,193.026801 C128.974389,192.919074 129.102179,192.828566 129.241132,192.758215 C129.447249,192.665512 129.683198,192.665512 129.889315,192.758215 C132.706309,193.521977 135.710998,193.141437 138.248644,191.699516 C141.910881,189.933266 144.29085,186.281024 144.427619,182.217416 C144.427619,178.804024 142.547142,177.382119 138.106714,177.350082 C132.36992,177.350082 127.044759,176.244073 126.934121,167.868355 C127.066108,160.551455 130.462767,153.676837 136.194201,149.12655 L135.909969,142.236437 C135.907285,141.388284 136.343587,140.599108 137.063288,140.150331 L140.998208,137.63769 Z" id="Path" fill="#FFFFFF"></path>
        </g>
    </g>
</svg>