<?xml version="1.0" encoding="UTF-8"?>
<svg width="250px" height="250px" viewBox="0 0 250 250" version="1.1" xmlns="http://www.w3.org/2000/svg" xmlns:xlink="http://www.w3.org/1999/xlink">
    <title>Swift</title>
    <g id="Swift" stroke="none" stroke-width="1" fill="none" fill-rule="evenodd" fill-opacity="0.75">
        <g transform="translate(0.500008, 0.000000)" fill="#141414" fill-rule="nonzero" id="Combined-Shape">
            <path d="M174.089865,0.000611074082 C176.072656,0.00183322224 178.056143,0.00549966673 180.037544,0.0164990002 C182.542465,0.0329980004 185.047387,0.0612820008 187.552309,0.129635002 C193.010551,0.275769003 198.513397,0.598678007 203.912948,1.57447602 C209.387622,2.56205903 214.484329,4.17660405 219.45661,6.71745008 C224.346725,9.21587011 228.818962,12.4803152 232.697247,16.3740792 C236.575533,20.2678432 239.827002,24.7602853 242.31549,29.6675594 C244.848584,34.6667564 246.456711,39.7814465 247.440368,45.2826846 C248.40994,50.7014276 248.731565,56.2262357 248.877118,61.7015468 C248.945199,64.2188228 248.973371,66.7313848 248.987457,69.2463039 C249.003984,72.2326229 249.003984,75.2189419 249.003984,78.202904 L249.003285,174.784472 C249.001887,176.775526 248.997692,178.765882 248.985109,180.758332 C248.971023,183.273251 248.942852,185.785813 248.87477,188.298375 C248.729217,193.776043 248.407592,199.303208 247.43802,204.717238 C246.454363,210.216119 244.846236,215.335523 242.313143,220.332363 C239.827002,225.241994 236.573186,229.729722 232.6949,233.623486 C228.816614,237.519607 224.344377,240.784052 219.454263,243.284829 C214.479633,245.825675 209.385275,247.437863 203.9106,248.425446 C198.511049,249.398887 193.008203,249.724153 187.549962,249.870287 C185.042692,249.936283 182.540118,249.966924 180.035196,249.981066 C177.063095,250 174.0863,250 171.114199,250 L171.114199,250 L77.8921324,250 C74.9153367,250 71.9432363,250 68.9711358,249.981066 C66.4662139,249.966924 63.9589443,249.936283 61.45637,249.870287 C56.0004763,249.724153 50.4929347,249.401244 45.0980794,248.425446 C39.6234046,247.437863 34.529046,245.825675 29.5544166,243.284829 C24.6619543,240.784052 20.1873702,237.519607 16.3114319,233.623486 C12.433146,229.732079 9.18167751,225.241994 6.69318899,220.332363 C4.15774785,215.335523 2.55196846,210.216119 1.5683112,204.717238 C0.601087361,199.303208 0.277114326,193.776043 0.131561224,188.298375 C0.061132303,185.785813 0.0329607348,183.273251 0.01652732,180.758332 C0,177.769656 0,174.785694 0,171.797018 L0,78.202904 C0,75.2189419 0,72.2326229 0.01652732,69.2486609 C0.0329607348,66.7337418 0.0634799337,64.2211798 0.131561224,61.7039038 C0.277114326,56.2285927 0.59873973,50.7014276 1.5683112,45.2850416 C2.55431609,39.7838035 4.16009548,34.6667564 6.69318899,29.6699164 C9.17932988,24.7626423 12.4307984,20.2702002 16.3114319,16.3764362 C17.2810034,15.4029952 18.2857893,14.4696232 19.330485,13.5739632 C22.4528338,10.8964111 25.8874175,8.59126511 29.5544166,6.71745008 C30.7963132,6.08106007 32.0476004,5.50359507 33.3106257,4.98034106 C37.0997016,3.40822204 40.9920733,2.31457403 45.0980794,1.57447602 C49.143047,0.84380601 53.2537484,0.478471006 57.3574068,0.280483003 C58.7260755,0.214487003 60.0923966,0.167347002 61.45637,0.129635002 C63.9589443,0.0612820008 66.4662139,0.0329980004 68.9711358,0.0164990002 C71.9432363,0 74.9176843,0 77.8921324,0 Z M140.585172,35 C159.317036,60.4761638 167.596858,91.3324897 160.238584,118.318212 C159.582686,120.724072 158.792788,123.035584 157.92061,125.281052 C156.973202,124.658359 155.781303,123.948395 154.180349,123.063888 C154.180349,123.063888 154.142083,123.040182 154.066602,122.992936 L153.866332,122.867104 C153.284712,122.500484 151.907912,121.623582 149.842822,120.253115 L148.915955,119.635602 C136.165563,111.108431 101.98498,86.941301 65.5801385,50.1380446 C64.3717828,48.9138867 90.1539551,87.1104423 119.413089,118.1248 C105.629841,110.360007 67.2140046,82.3152344 42.8917328,59.9808399 C45.8797096,64.9812535 49.43425,69.7953309 53.3390725,74.4301482 C73.6507319,100.271908 100.135819,132.15898 131.868085,156.642137 C109.572278,170.331949 78.0680476,171.395716 46.7025199,156.656289 C38.9445944,153.007402 31.6497936,148.606095 24.9003984,143.605681 C38.1782054,164.914048 58.6285671,183.297644 83.5174025,194.032022 C113.197345,206.830251 142.712725,205.962254 164.695864,194.241945 L164.679408,194.267891 C164.754637,194.220717 164.836918,194.171185 164.914497,194.124011 C165.901869,193.593307 166.879838,193.046092 167.834298,192.472931 C178.453252,187.003139 199.173966,181.606466 210.307764,203.344113 C213.048898,208.693612 218.876746,180.342211 197.453117,153.894268 C197.446064,153.884833 197.441363,153.880116 197.43431,153.87304 C197.709364,152.931924 197.993821,151.995526 198.235962,151.030824 C208.584565,109.661836 183.32664,60.7521301 140.585172,35 Z"></path>
        </g>
    </g>
</svg>