<?xml version="1.0" encoding="UTF-8"?>
<svg width="250px" height="250px" viewBox="0 0 250 250" version="1.1" xmlns="http://www.w3.org/2000/svg" xmlns:xlink="http://www.w3.org/1999/xlink">
    <title>Swift</title>
    <defs>
        <linearGradient x1="50.0368018%" y1="0%" x2="50.0368018%" y2="100.005269%" id="linearGradient-1">
            <stop stop-color="#F88A36" offset="0%"></stop>
            <stop stop-color="#FD2020" offset="100%"></stop>
        </linearGradient>
    </defs>
    <g id="Swift" stroke="none" stroke-width="1" fill="none" fill-rule="evenodd">
        <path d="M188.710775,221.581923 C159.241123,238.516555 118.720574,240.256848 77.9535072,222.876216 C44.9452823,208.906595 17.5570592,184.452398 0,156.512262 C8.42741342,163.497519 18.2592023,169.087687 28.7932235,173.974958 C70.8937728,193.604324 112.985751,192.260079 142.607189,174.02491 C100.469675,141.889696 64.6094851,99.9228513 37.9241193,65.6956281 C32.3034925,60.1063522 28.0897412,53.1202034 23.8760791,46.8331155 C56.1808216,76.1736917 107.449142,113.196712 125.704505,123.680396 C87.0848494,83.1586809 52.6705527,32.863137 54.0723388,34.2576016 C115.172358,95.7340164 172.059877,130.664761 172.059877,130.664761 C173.94202,131.720889 175.394699,132.59951 176.562557,133.385362 C177.793807,130.269604 178.873272,127.034318 179.783094,123.680396 C189.614347,88.0521071 178.381307,47.5303031 153.798264,14 C210.680425,48.230702 244.393829,112.499168 230.343824,166.293049 C229.977753,167.744334 229.579538,169.176887 229.150074,170.583572 C257.237583,205.515208 250.007223,243.140686 246.496508,236.155429 C231.259003,206.494625 203.051851,215.564487 188.710775,221.581923 Z" id="Path" fill="url(#linearGradient-1)" fill-rule="nonzero"></path>
    </g>
</svg>