<?xml version="1.0" encoding="UTF-8"?>
<svg width="250px" height="250px" viewBox="0 0 250 250" version="1.1" xmlns="http://www.w3.org/2000/svg" xmlns:xlink="http://www.w3.org/1999/xlink">
    <title>notion</title>
    <g id="notion" stroke="none" stroke-width="1" fill="none" fill-rule="evenodd">
        <g id="notion-svgrepo-com" transform="translate(5, 0)">
            <path d="M15.0847016,10.7786433 L153.838937,0.570331549 C170.873078,-0.8879987 175.261923,0.0807492513 185.968204,7.86198279 L230.263226,38.9660837 C237.560594,44.3098224 240,45.7681526 240,51.6014736 L240,222.205279 C240,232.892757 236.111545,239.226077 222.486317,240.184408 L61.3395882,249.913554 C51.1232734,250.403136 46.2444618,248.944806 40.8861089,242.132321 L8.26687516,199.840743 C2.42898097,192.05951 0,186.236605 0,179.42412 L0,27.7786073 C0,19.0390425 3.89887933,11.7369746 15.0847016,10.7786433 Z" id="Path" fill="#FFFFFF"></path>
            <path d="M41.3864999,43.8306567 C49.1634089,50.1431434 52.082356,49.6639777 66.6979411,48.6848131 L204.461819,40.4244139 C207.380766,40.4244139 204.951785,37.5077534 203.982278,37.0285878 L181.089393,20.4973727 C176.710972,17.1015466 170.862653,13.2057215 159.666406,14.1744694 L26.2809487,23.9036155 C21.4229867,24.3827812 20.4430545,26.820276 22.3820693,28.7577719 L41.3864999,43.8306567 Z M49.653375,75.9139222 L49.653375,220.746949 C49.653375,228.528183 53.5418296,231.444843 62.3090956,230.955261 L213.708627,222.205279 C222.475893,221.726114 223.455825,216.371958 223.455825,210.049055 L223.455825,66.1847761 C223.455825,59.8722894 221.026844,56.4660466 215.658066,56.9452123 L57.4407089,66.1847761 C51.6028147,66.6743584 49.653375,69.5910189 49.653375,75.9035055 L49.653375,75.9139222 Z M199.113891,83.6743224 C200.083398,88.0493132 199.113891,92.4243039 194.73547,92.9243029 L187.438103,94.3826331 L187.438103,201.299074 C181.099818,204.705316 175.261923,206.653229 170.393537,206.653229 C162.595778,206.653229 160.646338,204.215734 154.808444,196.9345 L107.094084,122.080491 L107.094084,194.497005 L122.18921,197.913664 C122.18921,197.913664 122.18921,206.663646 110.013031,206.663646 L76.4242898,208.601142 C75.4547824,206.663646 76.4242898,201.799073 79.833203,200.830325 L88.5900443,198.403246 L88.5900443,102.643032 L76.4451394,101.663868 C75.4652072,97.288877 77.904613,90.9763903 84.7120146,90.486808 L120.740162,88.0597298 L170.403961,163.882486 L170.403961,96.7992947 L157.737816,95.3513811 C156.768309,89.9972257 160.656763,86.1118173 165.52515,85.6326516 L199.113891,83.6743224 Z M15.0847016,10.7786433 L153.838937,0.570331549 C170.873078,-0.8879987 175.261923,0.0807492513 185.968204,7.86198279 L230.263226,38.9660837 C237.560594,44.3098224 240,45.7681526 240,51.6014736 L240,222.205279 C240,232.892757 236.111545,239.226077 222.486317,240.184408 L61.3395882,249.913554 C51.1232734,250.403136 46.2444618,248.944806 40.8861089,242.132321 L8.26687516,199.840743 C2.42898097,192.05951 0,186.236605 0,179.42412 L0,27.7786073 C0,19.0390425 3.89887933,11.7369746 15.0847016,10.7786433 Z" id="Shape" fill="#000000" fill-rule="nonzero"></path>
        </g>
    </g>
</svg>