<?xml version="1.0" encoding="UTF-8"?>
<svg width="250px" height="250px" viewBox="0 0 250 250" version="1.1" xmlns="http://www.w3.org/2000/svg" xmlns:xlink="http://www.w3.org/1999/xlink">
    <title>office</title>
    <defs>
        <linearGradient x1="7.52007097%" y1="46.2009759%" x2="195.875376%" y2="56.0249204%" id="linearGradient-1">
            <stop stop-color="#F32B44" offset="0%"></stop>
            <stop stop-color="#A4070A" offset="60%"></stop>
        </linearGradient>
        <linearGradient x1="135.155736%" y1="52.4177031%" x2="51.5360549%" y2="48.0558907%" id="linearGradient-2">
            <stop stop-color="#000000" stop-opacity="0.4" offset="0%"></stop>
            <stop stop-color="#000000" stop-opacity="0" offset="100%"></stop>
        </linearGradient>
        <linearGradient x1="67.2688246%" y1="-4.38321788%" x2="22.0529441%" y2="94.6637784%" id="linearGradient-3">
            <stop stop-color="#800600" offset="0%"></stop>
            <stop stop-color="#C72127" offset="60%"></stop>
            <stop stop-color="#C13959" offset="72.8%"></stop>
            <stop stop-color="#BC4B81" offset="84.7%"></stop>
            <stop stop-color="#B95799" offset="94.2%"></stop>
            <stop stop-color="#B85BA2" offset="100%"></stop>
        </linearGradient>
        <linearGradient x1="68.2376279%" y1="-6.36577243%" x2="58.6621011%" y2="14.6098665%" id="linearGradient-4">
            <stop stop-color="#000000" stop-opacity="0.4" offset="0%"></stop>
            <stop stop-color="#000000" stop-opacity="0" offset="100%"></stop>
        </linearGradient>
        <linearGradient x1="50.0560872%" y1="-5.68076502%" x2="50.0560872%" y2="92.9669728%" id="linearGradient-5">
            <stop stop-color="#FFB900" offset="0%"></stop>
            <stop stop-color="#EF8400" offset="16.6%"></stop>
            <stop stop-color="#E25C01" offset="31.3%"></stop>
            <stop stop-color="#DB4401" offset="42.9%"></stop>
            <stop stop-color="#D83B01" offset="50%"></stop>
        </linearGradient>
    </defs>
    <g id="office" stroke="none" stroke-width="1" fill="none" fill-rule="evenodd">
        <g id="office-2" transform="translate(23, 0)" fill-rule="nonzero">
            <path d="M49.8744218,196.06596 C42.7824248,196.06596 37,201.661992 37,208.606244 C37,213.326329 39.6842323,217.370987 43.6780368,219.529192 L93.4521917,246.562171 C97.4004932,248.817755 101.856643,250.001923 106.389098,250 C109.419599,250 112.312113,249.461765 114.996345,248.517221 L132,243.731175 L132,196 C132.07025,196.06596 49.9395099,196.06596 49.8718183,196.06596 L49.8744218,196.06596 Z" id="Path" fill="url(#linearGradient-1)"></path>
            <path d="M49.8744218,196.06596 C42.7824248,196.06596 37,201.661992 37,208.606244 C37,213.326329 39.6842323,217.370987 43.6780368,219.529192 L93.4521917,246.562171 C97.4004932,248.817755 101.856643,250.001923 106.389098,250 C109.419599,250 112.312113,249.461765 114.996345,248.517221 L132,243.731175 L132,196 C132.07025,196.06596 49.9395099,196.06596 49.8718183,196.06596 L49.8744218,196.06596 Z" id="Path" fill="url(#linearGradient-2)"></path>
            <path d="M113.653688,0.993710457 C111.307117,0.324871491 108.877635,-0.00960216242 106.437298,0 C102.383439,0 98.3295793,0.796566715 94.6863031,2.65127429 C93.9327011,2.98330586 13.8793725,46.3964332 13.8793725,46.3964332 C12.7801529,46.9282025 11.7484977,47.5896717 10.7870054,48.2537348 C10.6518767,48.3185847 10.5817138,48.3860286 10.4439865,48.4534725 C9.82551309,48.9152039 9.27460399,49.3795293 8.6587292,49.8438547 C8.38327465,50.0435925 8.1078201,50.3107741 7.9025285,50.5079178 C7.55950963,50.8373554 7.21389213,51.169387 6.94103621,51.5014186 C5.97954392,52.4949193 4.32941525,54.6142145 4.32941525,54.6142145 C1.49837595,58.631774 -0.0142588415,63.4271446 0,68.3390506 L0,183.66814 C0,190.498133 5.77165369,196 12.8503159,196 C14.6355732,196 16.2857018,195.667968 17.7981032,195.003905 L40.6790212,182.609789 C44.8004449,180.622788 48.1007022,177.240216 49.8183952,173.063882 C50.2289784,172.202675 50.5719973,171.144324 50.7798875,170.080786 C50.8474518,169.816198 50.9176148,169.484167 50.9176148,169.219579 C50.9176148,169.089879 50.9851791,168.890141 50.9851791,168.757848 C51.0553421,168.290928 51.1229064,167.761753 51.1229064,167.300021 C51.1229064,166.900546 51.1930693,166.568514 51.1930693,166.171633 L51.1930693,104.792485 L51.1930693,85.63582 C51.1930693,80.266247 53.5968001,75.4284433 57.3778035,72.0484657 C57.3778035,72.0484657 55.5899476,73.6385857 57.3778035,72.0484657 C59.1630609,70.4583458 61.4992273,69.0653696 64.2485755,68.1393128 C66.9953251,67.1432181 132,44.4768757 132,44.4768757 L132,6.23098962 L113.653688,0.993710457 Z" id="Path" fill="url(#linearGradient-3)"></path>
            <path d="M113.653688,0.993710457 C111.307117,0.324871491 108.877635,-0.00960216242 106.437298,0 C102.383439,0 98.3295793,0.796566715 94.6863031,2.65127429 C93.9327011,2.98330586 13.8793725,46.3964332 13.8793725,46.3964332 C12.7801529,46.9282025 11.7484977,47.5896717 10.7870054,48.2537348 C10.6518767,48.3185847 10.5817138,48.3860286 10.4439865,48.4534725 C9.82551309,48.9152039 9.27460399,49.3795293 8.6587292,49.8438547 C8.38327465,50.0435925 8.1078201,50.3107741 7.9025285,50.5079178 C7.55950963,50.8373554 7.21389213,51.169387 6.94103621,51.5014186 C5.97954392,52.4949193 4.32941525,54.6142145 4.32941525,54.6142145 C1.49837595,58.631774 -0.0142588415,63.4271446 0,68.3390506 L0,183.66814 C0,190.498133 5.77165369,196 12.8503159,196 C14.6355732,196 16.2857018,195.667968 17.7981032,195.003905 L40.6790212,182.609789 C44.8004449,180.622788 48.1007022,177.240216 49.8183952,173.063882 C50.2289784,172.202675 50.5719973,171.144324 50.7798875,170.080786 C50.8474518,169.816198 50.9176148,169.484167 50.9176148,169.219579 C50.9176148,169.089879 50.9851791,168.890141 50.9851791,168.757848 C51.0553421,168.290928 51.1229064,167.761753 51.1229064,167.300021 C51.1229064,166.900546 51.1930693,166.568514 51.1930693,166.171633 L51.1930693,104.792485 L51.1930693,85.63582 C51.1930693,80.266247 53.5968001,75.4284433 57.3778035,72.0484657 C57.3778035,72.0484657 55.5899476,73.6385857 57.3778035,72.0484657 C59.1630609,70.4583458 61.4992273,69.0653696 64.2485755,68.1393128 C66.9953251,67.1432181 132,44.4768757 132,44.4768757 L132,6.23098962 L113.653688,0.993710457 Z" id="Path" fill="url(#linearGradient-4)"></path>
            <path d="M187.123408,21.4847081 L115,1 C125.450068,4.93866375 131.979085,13.8137164 131.979085,24.6267588 C131.979085,24.6267588 131.914081,221.037577 131.979085,225.775465 C132.049289,236.452692 125.036641,245.596765 115,249 C117.199741,248.399275 187.123408,228.844385 187.123408,228.844385 C197.503271,225.642261 205,216.297076 205,205.154941 L205,45.1741512 C205.067155,34.0999242 197.503271,24.6868312 187.123408,21.4847081 Z" id="Path" fill="url(#linearGradient-5)"></path>
        </g>
    </g>
</svg>