<?xml version="1.0" standalone="no"?>
<!DOCTYPE svg PUBLIC "-//W3C//DTD SVG 20010904//EN"
 "http://www.w3.org/TR/2001/REC-SVG-20010904/DTD/svg10.dtd">
<svg version="1.0" xmlns="http://www.w3.org/2000/svg"
 width="1024.000000pt" height="1024.000000pt" viewBox="0 0 1024.000000 1024.000000"
 preserveAspectRatio="xMidYMid meet">
<metadata>
Created by potrace 1.11, written by Peter Selinger 2001-2013
</metadata>
<g transform="translate(0.000000,1024.000000) scale(0.100000,-0.100000)"
fill="#000000" stroke="none">
<path d="M1102 8598 c8 -13 77 -126 153 -253 76 -126 282 -468 458 -760 176
-291 328 -543 337 -560 9 -16 30 -51 46 -78 16 -26 106 -174 199 -329 94 -154
180 -299 193 -321 21 -37 185 -308 353 -585 38 -63 69 -117 69 -122 0 -5 3
-10 8 -12 6 -2 101 -156 138 -223 6 -11 30 -51 54 -90 24 -38 52 -86 64 -107
12 -20 111 -185 221 -367 110 -182 246 -408 303 -502 l102 -170 0 -1250 0
-1249 1060 0 1060 0 0 78 c0 42 1 600 1 1240 l0 1162 276 458 c151 251 281
466 287 477 31 53 557 931 585 975 26 42 214 354 347 575 82 138 152 252 156
253 5 2 8 7 8 12 0 4 72 126 160 271 88 145 166 275 173 289 6 14 14 27 17 30
3 3 11 16 19 30 8 14 158 264 334 555 176 292 328 545 338 563 l19 32 -1044 0
-1044 0 -17 -26 c-13 -21 -1011 -1679 -1465 -2435 -48 -80 -100 -165 -114
-188 l-27 -43 -59 96 c-32 53 -60 99 -62 103 -3 9 -277 464 -739 1231 -153
255 -279 468 -279 473 0 5 -4 9 -10 9 -5 0 -10 4 -10 9 0 5 -40 75 -90 156
-49 81 -90 148 -90 149 0 1 -62 106 -138 232 l-138 229 -1113 3 -1113 2 14
-22z"/>
</g>
</svg>
